0
SECTION
2
HEADER
9
$ANGDIR
70
1
9
$AUNITS
70
0
9
$PROJECTNAME
1
sw2
9
$TDCREATE
40
2458171.64751648
9
$INSUNITS
70
4
0
ENDSEC
0
SECTION
2
ENTITIES
0
POLYLINE
66
1
8
outline
10
0.0
20
0.0
30
0.0
70
1
0
VERTEX
8
0
10
0
20
0
30
0
0
VERTEX
8
0
10
43
20
0
30
0
0
VERTEX
8
0
10
43
20
78
30
0
0
VERTEX
8
0
10
0
20
78
30
0
0
VERTEX
8
0
10
0
20
0
30
0
0
SEQEND
0
POLYLINE
66
1
8
holes
10
0.0
20
0.0
30
0.0
70
1
0
VERTEX
8
0
10
41.5
20
2.946428125
30
0
0
VERTEX
8
0
10
41.49235625
20
2.8395562500000002
30
0
0
VERTEX
8
0
10
41.477109375000005
20
2.7335000000000003
30
0
0
VERTEX
8
0
10
41.45433125
20
2.628803125
30
0
0
VERTEX
8
0
10
41.424146875000005
20
2.5260000000000002
30
0
0
VERTEX
8
0
10
41.386703125000004
20
2.425609375
30
0
0
VERTEX
8
0
10
41.34219375
20
2.3281468750000003
30
0
0
VERTEX
8
0
10
41.29084375
20
2.23410625
30
0
0
VERTEX
8
0
10
41.232915625000004
20
2.143971875
30
0
0
VERTEX
8
0
10
41.16870625
20
2.058196875
30
0
0
VERTEX
8
0
10
41.098540625000005
20
1.9772218750000001
30
0
0
VERTEX
8
0
10
41.022778125
20
1.9014593750000002
30
0
0
VERTEX
8
0
10
40.941803125
20
1.8312937500000002
30
0
0
VERTEX
8
0
10
40.856028125
20
1.767084375
30
0
0
VERTEX
8
0
10
40.765893750000004
20
1.7091562500000002
30
0
0
VERTEX
8
0
10
40.671853125000005
20
1.6578062500000001
30
0
0
VERTEX
8
0
10
40.574390625
20
1.613296875
30
0
0
VERTEX
8
0
10
40.474000000000004
20
1.575853125
30
0
0
VERTEX
8
0
10
40.371196875
20
1.5456687500000001
30
0
0
VERTEX
8
0
10
40.2665
20
1.522890625
30
0
0
VERTEX
8
0
10
40.16044375
20
1.5076437500000002
30
0
0
VERTEX
8
0
10
40.053571875
20
1.5
30
0
0
VERTEX
8
0
10
39.946428125000004
20
1.5
30
0
0
VERTEX
8
0
10
39.83955625
20
1.5076437500000002
30
0
0
VERTEX
8
0
10
39.7335
20
1.522890625
30
0
0
VERTEX
8
0
10
39.628803125000005
20
1.5456687500000001
30
0
0
VERTEX
8
0
10
39.526
20
1.575853125
30
0
0
VERTEX
8
0
10
39.425609375
20
1.613296875
30
0
0
VERTEX
8
0
10
39.328146875
20
1.6578062500000001
30
0
0
VERTEX
8
0
10
39.23410625
20
1.7091562500000002
30
0
0
VERTEX
8
0
10
39.143971875000005
20
1.767084375
30
0
0
VERTEX
8
0
10
39.058196875
20
1.8312937500000002
30
0
0
VERTEX
8
0
10
38.977221875000005
20
1.9014593750000002
30
0
0
VERTEX
8
0
10
38.901459375
20
1.9772218750000001
30
0
0
VERTEX
8
0
10
38.83129375
20
2.058196875
30
0
0
VERTEX
8
0
10
38.767084375
20
2.143971875
30
0
0
VERTEX
8
0
10
38.70915625
20
2.23410625
30
0
0
VERTEX
8
0
10
38.65780625
20
2.3281468750000003
30
0
0
VERTEX
8
0
10
38.613296875
20
2.425609375
30
0
0
VERTEX
8
0
10
38.575853125
20
2.5260000000000002
30
0
0
VERTEX
8
0
10
38.545668750000004
20
2.628803125
30
0
0
VERTEX
8
0
10
38.522890625
20
2.7335000000000003
30
0
0
VERTEX
8
0
10
38.50764375
20
2.8395562500000002
30
0
0
VERTEX
8
0
10
38.5
20
2.946428125
30
0
0
VERTEX
8
0
10
38.5
20
3.0535718750000003
30
0
0
VERTEX
8
0
10
38.50764375
20
3.16044375
30
0
0
VERTEX
8
0
10
38.522890625
20
3.2665
30
0
0
VERTEX
8
0
10
38.545668750000004
20
3.3711968750000003
30
0
0
VERTEX
8
0
10
38.575853125
20
3.474
30
0
0
VERTEX
8
0
10
38.613296875
20
3.5743906250000004
30
0
0
VERTEX
8
0
10
38.65780625
20
3.671853125
30
0
0
VERTEX
8
0
10
38.70915625
20
3.76589375
30
0
0
VERTEX
8
0
10
38.767084375
20
3.8560281250000004
30
0
0
VERTEX
8
0
10
38.83129375
20
3.9418031250000003
30
0
0
VERTEX
8
0
10
38.901459375
20
4.022778125
30
0
0
VERTEX
8
0
10
38.977221875000005
20
4.098540625
30
0
0
VERTEX
8
0
10
39.058196875
20
4.1687062500000005
30
0
0
VERTEX
8
0
10
39.143971875000005
20
4.232915625
30
0
0
VERTEX
8
0
10
39.23410625
20
4.2908437500000005
30
0
0
VERTEX
8
0
10
39.328146875
20
4.34219375
30
0
0
VERTEX
8
0
10
39.425609375
20
4.386703125
30
0
0
VERTEX
8
0
10
39.526
20
4.424146875
30
0
0
VERTEX
8
0
10
39.628803125000005
20
4.45433125
30
0
0
VERTEX
8
0
10
39.7335
20
4.477109375
30
0
0
VERTEX
8
0
10
39.83955625
20
4.49235625
30
0
0
VERTEX
8
0
10
39.946428125000004
20
4.5
30
0
0
VERTEX
8
0
10
40.053571875
20
4.5
30
0
0
VERTEX
8
0
10
40.16044375
20
4.49235625
30
0
0
VERTEX
8
0
10
40.2665
20
4.477109375
30
0
0
VERTEX
8
0
10
40.371196875
20
4.45433125
30
0
0
VERTEX
8
0
10
40.474000000000004
20
4.424146875
30
0
0
VERTEX
8
0
10
40.574390625
20
4.386703125
30
0
0
VERTEX
8
0
10
40.671853125000005
20
4.34219375
30
0
0
VERTEX
8
0
10
40.765893750000004
20
4.2908437500000005
30
0
0
VERTEX
8
0
10
40.856028125
20
4.232915625
30
0
0
VERTEX
8
0
10
40.941803125
20
4.1687062500000005
30
0
0
VERTEX
8
0
10
41.022778125
20
4.098540625
30
0
0
VERTEX
8
0
10
41.098540625000005
20
4.022778125
30
0
0
VERTEX
8
0
10
41.16870625
20
3.9418031250000003
30
0
0
VERTEX
8
0
10
41.232915625000004
20
3.8560281250000004
30
0
0
VERTEX
8
0
10
41.29084375
20
3.76589375
30
0
0
VERTEX
8
0
10
41.34219375
20
3.671853125
30
0
0
VERTEX
8
0
10
41.386703125000004
20
3.5743906250000004
30
0
0
VERTEX
8
0
10
41.424146875000005
20
3.474
30
0
0
VERTEX
8
0
10
41.45433125
20
3.3711968750000003
30
0
0
VERTEX
8
0
10
41.477109375000005
20
3.2665
30
0
0
VERTEX
8
0
10
41.49235625
20
3.16044375
30
0
0
VERTEX
8
0
10
41.5
20
3.0535718750000003
30
0
0
VERTEX
8
0
10
41.5
20
2.946428125
30
0
0
SEQEND
0
POLYLINE
66
1
8
holes
10
0.0
20
0.0
30
0.0
70
1
0
VERTEX
8
0
10
41.5
20
70.946428125
30
0
0
VERTEX
8
0
10
41.49235625
20
70.83955625
30
0
0
VERTEX
8
0
10
41.477109375000005
20
70.7335
30
0
0
VERTEX
8
0
10
41.45433125
20
70.628803125
30
0
0
VERTEX
8
0
10
41.424146875000005
20
70.52600000000001
30
0
0
VERTEX
8
0
10
41.386703125000004
20
70.42560937500001
30
0
0
VERTEX
8
0
10
41.34219375
20
70.328146875
30
0
0
VERTEX
8
0
10
41.29084375
20
70.23410625
30
0
0
VERTEX
8
0
10
41.232915625000004
20
70.143971875
30
0
0
VERTEX
8
0
10
41.16870625
20
70.05819687500001
30
0
0
VERTEX
8
0
10
41.098540625000005
20
69.977221875
30
0
0
VERTEX
8
0
10
41.022778125
20
69.901459375
30
0
0
VERTEX
8
0
10
40.941803125
20
69.83129375
30
0
0
VERTEX
8
0
10
40.856028125
20
69.76708437500001
30
0
0
VERTEX
8
0
10
40.765893750000004
20
69.70915625
30
0
0
VERTEX
8
0
10
40.671853125000005
20
69.65780625000001
30
0
0
VERTEX
8
0
10
40.574390625
20
69.613296875
30
0
0
VERTEX
8
0
10
40.474000000000004
20
69.57585312500001
30
0
0
VERTEX
8
0
10
40.371196875
20
69.54566875
30
0
0
VERTEX
8
0
10
40.2665
20
69.522890625
30
0
0
VERTEX
8
0
10
40.16044375
20
69.50764375
30
0
0
VERTEX
8
0
10
40.053571875
20
69.5
30
0
0
VERTEX
8
0
10
39.946428125000004
20
69.5
30
0
0
VERTEX
8
0
10
39.83955625
20
69.50764375
30
0
0
VERTEX
8
0
10
39.7335
20
69.522890625
30
0
0
VERTEX
8
0
10
39.628803125000005
20
69.54566875
30
0
0
VERTEX
8
0
10
39.526
20
69.57585312500001
30
0
0
VERTEX
8
0
10
39.425609375
20
69.613296875
30
0
0
VERTEX
8
0
10
39.328146875
20
69.65780625000001
30
0
0
VERTEX
8
0
10
39.23410625
20
69.70915625
30
0
0
VERTEX
8
0
10
39.143971875000005
20
69.76708437500001
30
0
0
VERTEX
8
0
10
39.058196875
20
69.83129375
30
0
0
VERTEX
8
0
10
38.977221875000005
20
69.901459375
30
0
0
VERTEX
8
0
10
38.901459375
20
69.977221875
30
0
0
VERTEX
8
0
10
38.83129375
20
70.05819687500001
30
0
0
VERTEX
8
0
10
38.767084375
20
70.143971875
30
0
0
VERTEX
8
0
10
38.70915625
20
70.23410625
30
0
0
VERTEX
8
0
10
38.65780625
20
70.328146875
30
0
0
VERTEX
8
0
10
38.613296875
20
70.42560937500001
30
0
0
VERTEX
8
0
10
38.575853125
20
70.52600000000001
30
0
0
VERTEX
8
0
10
38.545668750000004
20
70.628803125
30
0
0
VERTEX
8
0
10
38.522890625
20
70.7335
30
0
0
VERTEX
8
0
10
38.50764375
20
70.83955625
30
0
0
VERTEX
8
0
10
38.5
20
70.946428125
30
0
0
VERTEX
8
0
10
38.5
20
71.053571875
30
0
0
VERTEX
8
0
10
38.50764375
20
71.16044375
30
0
0
VERTEX
8
0
10
38.522890625
20
71.26650000000001
30
0
0
VERTEX
8
0
10
38.545668750000004
20
71.37119687500001
30
0
0
VERTEX
8
0
10
38.575853125
20
71.474
30
0
0
VERTEX
8
0
10
38.613296875
20
71.574390625
30
0
0
VERTEX
8
0
10
38.65780625
20
71.671853125
30
0
0
VERTEX
8
0
10
38.70915625
20
71.76589375
30
0
0
VERTEX
8
0
10
38.767084375
20
71.85602812500001
30
0
0
VERTEX
8
0
10
38.83129375
20
71.941803125
30
0
0
VERTEX
8
0
10
38.901459375
20
72.022778125
30
0
0
VERTEX
8
0
10
38.977221875000005
20
72.098540625
30
0
0
VERTEX
8
0
10
39.058196875
20
72.16870625
30
0
0
VERTEX
8
0
10
39.143971875000005
20
72.232915625
30
0
0
VERTEX
8
0
10
39.23410625
20
72.29084375000001
30
0
0
VERTEX
8
0
10
39.328146875
20
72.34219375
30
0
0
VERTEX
8
0
10
39.425609375
20
72.386703125
30
0
0
VERTEX
8
0
10
39.526
20
72.424146875
30
0
0
VERTEX
8
0
10
39.628803125000005
20
72.45433125000001
30
0
0
VERTEX
8
0
10
39.7335
20
72.477109375
30
0
0
VERTEX
8
0
10
39.83955625
20
72.49235625
30
0
0
VERTEX
8
0
10
39.946428125000004
20
72.5
30
0
0
VERTEX
8
0
10
40.053571875
20
72.5
30
0
0
VERTEX
8
0
10
40.16044375
20
72.49235625
30
0
0
VERTEX
8
0
10
40.2665
20
72.477109375
30
0
0
VERTEX
8
0
10
40.371196875
20
72.45433125000001
30
0
0
VERTEX
8
0
10
40.474000000000004
20
72.424146875
30
0
0
VERTEX
8
0
10
40.574390625
20
72.386703125
30
0
0
VERTEX
8
0
10
40.671853125000005
20
72.34219375
30
0
0
VERTEX
8
0
10
40.765893750000004
20
72.29084375000001
30
0
0
VERTEX
8
0
10
40.856028125
20
72.232915625
30
0
0
VERTEX
8
0
10
40.941803125
20
72.16870625
30
0
0
VERTEX
8
0
10
41.022778125
20
72.098540625
30
0
0
VERTEX
8
0
10
41.098540625000005
20
72.022778125
30
0
0
VERTEX
8
0
10
41.16870625
20
71.941803125
30
0
0
VERTEX
8
0
10
41.232915625000004
20
71.85602812500001
30
0
0
VERTEX
8
0
10
41.29084375
20
71.76589375
30
0
0
VERTEX
8
0
10
41.34219375
20
71.671853125
30
0
0
VERTEX
8
0
10
41.386703125000004
20
71.574390625
30
0
0
VERTEX
8
0
10
41.424146875000005
20
71.474
30
0
0
VERTEX
8
0
10
41.45433125
20
71.37119687500001
30
0
0
VERTEX
8
0
10
41.477109375000005
20
71.26650000000001
30
0
0
VERTEX
8
0
10
41.49235625
20
71.16044375
30
0
0
VERTEX
8
0
10
41.5
20
71.053571875
30
0
0
VERTEX
8
0
10
41.5
20
70.946428125
30
0
0
SEQEND
0
POLYLINE
66
1
8
holes
10
0.0
20
0.0
30
0.0
70
1
0
VERTEX
8
0
10
4.5
20
70.946428125
30
0
0
VERTEX
8
0
10
4.49235625
20
70.83955625
30
0
0
VERTEX
8
0
10
4.477109375
20
70.7335
30
0
0
VERTEX
8
0
10
4.45433125
20
70.628803125
30
0
0
VERTEX
8
0
10
4.424146875
20
70.52600000000001
30
0
0
VERTEX
8
0
10
4.386703125
20
70.42560937500001
30
0
0
VERTEX
8
0
10
4.34219375
20
70.328146875
30
0
0
VERTEX
8
0
10
4.2908437500000005
20
70.23410625
30
0
0
VERTEX
8
0
10
4.232915625
20
70.143971875
30
0
0
VERTEX
8
0
10
4.1687062500000005
20
70.05819687500001
30
0
0
VERTEX
8
0
10
4.098540625
20
69.977221875
30
0
0
VERTEX
8
0
10
4.022778125
20
69.901459375
30
0
0
VERTEX
8
0
10
3.9418031250000003
20
69.83129375
30
0
0
VERTEX
8
0
10
3.8560281250000004
20
69.76708437500001
30
0
0
VERTEX
8
0
10
3.76589375
20
69.70915625
30
0
0
VERTEX
8
0
10
3.671853125
20
69.65780625000001
30
0
0
VERTEX
8
0
10
3.5743906250000004
20
69.613296875
30
0
0
VERTEX
8
0
10
3.474
20
69.57585312500001
30
0
0
VERTEX
8
0
10
3.3711968750000003
20
69.54566875
30
0
0
VERTEX
8
0
10
3.2665
20
69.522890625
30
0
0
VERTEX
8
0
10
3.16044375
20
69.50764375
30
0
0
VERTEX
8
0
10
3.0535718750000003
20
69.5
30
0
0
VERTEX
8
0
10
2.946428125
20
69.5
30
0
0
VERTEX
8
0
10
2.8395562500000002
20
69.50764375
30
0
0
VERTEX
8
0
10
2.7335000000000003
20
69.522890625
30
0
0
VERTEX
8
0
10
2.628803125
20
69.54566875
30
0
0
VERTEX
8
0
10
2.5260000000000002
20
69.57585312500001
30
0
0
VERTEX
8
0
10
2.425609375
20
69.613296875
30
0
0
VERTEX
8
0
10
2.3281468750000003
20
69.65780625000001
30
0
0
VERTEX
8
0
10
2.23410625
20
69.70915625
30
0
0
VERTEX
8
0
10
2.143971875
20
69.76708437500001
30
0
0
VERTEX
8
0
10
2.058196875
20
69.83129375
30
0
0
VERTEX
8
0
10
1.9772218750000001
20
69.901459375
30
0
0
VERTEX
8
0
10
1.9014593750000002
20
69.977221875
30
0
0
VERTEX
8
0
10
1.8312937500000002
20
70.05819687500001
30
0
0
VERTEX
8
0
10
1.767084375
20
70.143971875
30
0
0
VERTEX
8
0
10
1.7091562500000002
20
70.23410625
30
0
0
VERTEX
8
0
10
1.6578062500000001
20
70.328146875
30
0
0
VERTEX
8
0
10
1.613296875
20
70.42560937500001
30
0
0
VERTEX
8
0
10
1.575853125
20
70.52600000000001
30
0
0
VERTEX
8
0
10
1.5456687500000001
20
70.628803125
30
0
0
VERTEX
8
0
10
1.522890625
20
70.7335
30
0
0
VERTEX
8
0
10
1.5076437500000002
20
70.83955625
30
0
0
VERTEX
8
0
10
1.5
20
70.946428125
30
0
0
VERTEX
8
0
10
1.5
20
71.053571875
30
0
0
VERTEX
8
0
10
1.5076437500000002
20
71.16044375
30
0
0
VERTEX
8
0
10
1.522890625
20
71.26650000000001
30
0
0
VERTEX
8
0
10
1.5456687500000001
20
71.37119687500001
30
0
0
VERTEX
8
0
10
1.575853125
20
71.474
30
0
0
VERTEX
8
0
10
1.613296875
20
71.574390625
30
0
0
VERTEX
8
0
10
1.6578062500000001
20
71.671853125
30
0
0
VERTEX
8
0
10
1.7091562500000002
20
71.76589375
30
0
0
VERTEX
8
0
10
1.767084375
20
71.85602812500001
30
0
0
VERTEX
8
0
10
1.8312937500000002
20
71.941803125
30
0
0
VERTEX
8
0
10
1.9014593750000002
20
72.022778125
30
0
0
VERTEX
8
0
10
1.9772218750000001
20
72.098540625
30
0
0
VERTEX
8
0
10
2.058196875
20
72.16870625
30
0
0
VERTEX
8
0
10
2.143971875
20
72.232915625
30
0
0
VERTEX
8
0
10
2.23410625
20
72.29084375000001
30
0
0
VERTEX
8
0
10
2.3281468750000003
20
72.34219375
30
0
0
VERTEX
8
0
10
2.425609375
20
72.386703125
30
0
0
VERTEX
8
0
10
2.5260000000000002
20
72.424146875
30
0
0
VERTEX
8
0
10
2.628803125
20
72.45433125000001
30
0
0
VERTEX
8
0
10
2.7335000000000003
20
72.477109375
30
0
0
VERTEX
8
0
10
2.8395562500000002
20
72.49235625
30
0
0
VERTEX
8
0
10
2.946428125
20
72.5
30
0
0
VERTEX
8
0
10
3.0535718750000003
20
72.5
30
0
0
VERTEX
8
0
10
3.16044375
20
72.49235625
30
0
0
VERTEX
8
0
10
3.2665
20
72.477109375
30
0
0
VERTEX
8
0
10
3.3711968750000003
20
72.45433125000001
30
0
0
VERTEX
8
0
10
3.474
20
72.424146875
30
0
0
VERTEX
8
0
10
3.5743906250000004
20
72.386703125
30
0
0
VERTEX
8
0
10
3.671853125
20
72.34219375
30
0
0
VERTEX
8
0
10
3.76589375
20
72.29084375000001
30
0
0
VERTEX
8
0
10
3.8560281250000004
20
72.232915625
30
0
0
VERTEX
8
0
10
3.9418031250000003
20
72.16870625
30
0
0
VERTEX
8
0
10
4.022778125
20
72.098540625
30
0
0
VERTEX
8
0
10
4.098540625
20
72.022778125
30
0
0
VERTEX
8
0
10
4.1687062500000005
20
71.941803125
30
0
0
VERTEX
8
0
10
4.232915625
20
71.85602812500001
30
0
0
VERTEX
8
0
10
4.2908437500000005
20
71.76589375
30
0
0
VERTEX
8
0
10
4.34219375
20
71.671853125
30
0
0
VERTEX
8
0
10
4.386703125
20
71.574390625
30
0
0
VERTEX
8
0
10
4.424146875
20
71.474
30
0
0
VERTEX
8
0
10
4.45433125
20
71.37119687500001
30
0
0
VERTEX
8
0
10
4.477109375
20
71.26650000000001
30
0
0
VERTEX
8
0
10
4.49235625
20
71.16044375
30
0
0
VERTEX
8
0
10
4.5
20
71.053571875
30
0
0
VERTEX
8
0
10
4.5
20
70.946428125
30
0
0
SEQEND
0
POLYLINE
66
1
8
holes
10
0.0
20
0.0
30
0.0
70
1
0
VERTEX
8
0
10
4.5
20
2.946428125
30
0
0
VERTEX
8
0
10
4.49235625
20
2.8395562500000002
30
0
0
VERTEX
8
0
10
4.477109375
20
2.7335000000000003
30
0
0
VERTEX
8
0
10
4.45433125
20
2.628803125
30
0
0
VERTEX
8
0
10
4.424146875
20
2.5260000000000002
30
0
0
VERTEX
8
0
10
4.386703125
20
2.425609375
30
0
0
VERTEX
8
0
10
4.34219375
20
2.3281468750000003
30
0
0
VERTEX
8
0
10
4.2908437500000005
20
2.23410625
30
0
0
VERTEX
8
0
10
4.232915625
20
2.143971875
30
0
0
VERTEX
8
0
10
4.1687062500000005
20
2.058196875
30
0
0
VERTEX
8
0
10
4.098540625
20
1.9772218750000001
30
0
0
VERTEX
8
0
10
4.022778125
20
1.9014593750000002
30
0
0
VERTEX
8
0
10
3.9418031250000003
20
1.8312937500000002
30
0
0
VERTEX
8
0
10
3.8560281250000004
20
1.767084375
30
0
0
VERTEX
8
0
10
3.76589375
20
1.7091562500000002
30
0
0
VERTEX
8
0
10
3.671853125
20
1.6578062500000001
30
0
0
VERTEX
8
0
10
3.5743906250000004
20
1.613296875
30
0
0
VERTEX
8
0
10
3.474
20
1.575853125
30
0
0
VERTEX
8
0
10
3.3711968750000003
20
1.5456687500000001
30
0
0
VERTEX
8
0
10
3.2665
20
1.522890625
30
0
0
VERTEX
8
0
10
3.16044375
20
1.5076437500000002
30
0
0
VERTEX
8
0
10
3.0535718750000003
20
1.5
30
0
0
VERTEX
8
0
10
2.946428125
20
1.5
30
0
0
VERTEX
8
0
10
2.8395562500000002
20
1.5076437500000002
30
0
0
VERTEX
8
0
10
2.7335000000000003
20
1.522890625
30
0
0
VERTEX
8
0
10
2.628803125
20
1.5456687500000001
30
0
0
VERTEX
8
0
10
2.5260000000000002
20
1.575853125
30
0
0
VERTEX
8
0
10
2.425609375
20
1.613296875
30
0
0
VERTEX
8
0
10
2.3281468750000003
20
1.6578062500000001
30
0
0
VERTEX
8
0
10
2.23410625
20
1.7091562500000002
30
0
0
VERTEX
8
0
10
2.143971875
20
1.767084375
30
0
0
VERTEX
8
0
10
2.058196875
20
1.8312937500000002
30
0
0
VERTEX
8
0
10
1.9772218750000001
20
1.9014593750000002
30
0
0
VERTEX
8
0
10
1.9014593750000002
20
1.9772218750000001
30
0
0
VERTEX
8
0
10
1.8312937500000002
20
2.058196875
30
0
0
VERTEX
8
0
10
1.767084375
20
2.143971875
30
0
0
VERTEX
8
0
10
1.7091562500000002
20
2.23410625
30
0
0
VERTEX
8
0
10
1.6578062500000001
20
2.3281468750000003
30
0
0
VERTEX
8
0
10
1.613296875
20
2.425609375
30
0
0
VERTEX
8
0
10
1.575853125
20
2.5260000000000002
30
0
0
VERTEX
8
0
10
1.5456687500000001
20
2.628803125
30
0
0
VERTEX
8
0
10
1.522890625
20
2.7335000000000003
30
0
0
VERTEX
8
0
10
1.5076437500000002
20
2.8395562500000002
30
0
0
VERTEX
8
0
10
1.5
20
2.946428125
30
0
0
VERTEX
8
0
10
1.5
20
3.0535718750000003
30
0
0
VERTEX
8
0
10
1.5076437500000002
20
3.16044375
30
0
0
VERTEX
8
0
10
1.522890625
20
3.2665
30
0
0
VERTEX
8
0
10
1.5456687500000001
20
3.3711968750000003
30
0
0
VERTEX
8
0
10
1.575853125
20
3.474
30
0
0
VERTEX
8
0
10
1.613296875
20
3.5743906250000004
30
0
0
VERTEX
8
0
10
1.6578062500000001
20
3.671853125
30
0
0
VERTEX
8
0
10
1.7091562500000002
20
3.76589375
30
0
0
VERTEX
8
0
10
1.767084375
20
3.8560281250000004
30
0
0
VERTEX
8
0
10
1.8312937500000002
20
3.9418031250000003
30
0
0
VERTEX
8
0
10
1.9014593750000002
20
4.022778125
30
0
0
VERTEX
8
0
10
1.9772218750000001
20
4.098540625
30
0
0
VERTEX
8
0
10
2.058196875
20
4.1687062500000005
30
0
0
VERTEX
8
0
10
2.143971875
20
4.232915625
30
0
0
VERTEX
8
0
10
2.23410625
20
4.2908437500000005
30
0
0
VERTEX
8
0
10
2.3281468750000003
20
4.34219375
30
0
0
VERTEX
8
0
10
2.425609375
20
4.386703125
30
0
0
VERTEX
8
0
10
2.5260000000000002
20
4.424146875
30
0
0
VERTEX
8
0
10
2.628803125
20
4.45433125
30
0
0
VERTEX
8
0
10
2.7335000000000003
20
4.477109375
30
0
0
VERTEX
8
0
10
2.8395562500000002
20
4.49235625
30
0
0
VERTEX
8
0
10
2.946428125
20
4.5
30
0
0
VERTEX
8
0
10
3.0535718750000003
20
4.5
30
0
0
VERTEX
8
0
10
3.16044375
20
4.49235625
30
0
0
VERTEX
8
0
10
3.2665
20
4.477109375
30
0
0
VERTEX
8
0
10
3.3711968750000003
20
4.45433125
30
0
0
VERTEX
8
0
10
3.474
20
4.424146875
30
0
0
VERTEX
8
0
10
3.5743906250000004
20
4.386703125
30
0
0
VERTEX
8
0
10
3.671853125
20
4.34219375
30
0
0
VERTEX
8
0
10
3.76589375
20
4.2908437500000005
30
0
0
VERTEX
8
0
10
3.8560281250000004
20
4.232915625
30
0
0
VERTEX
8
0
10
3.9418031250000003
20
4.1687062500000005
30
0
0
VERTEX
8
0
10
4.022778125
20
4.098540625
30
0
0
VERTEX
8
0
10
4.098540625
20
4.022778125
30
0
0
VERTEX
8
0
10
4.1687062500000005
20
3.9418031250000003
30
0
0
VERTEX
8
0
10
4.232915625
20
3.8560281250000004
30
0
0
VERTEX
8
0
10
4.2908437500000005
20
3.76589375
30
0
0
VERTEX
8
0
10
4.34219375
20
3.671853125
30
0
0
VERTEX
8
0
10
4.386703125
20
3.5743906250000004
30
0
0
VERTEX
8
0
10
4.424146875
20
3.474
30
0
0
VERTEX
8
0
10
4.45433125
20
3.3711968750000003
30
0
0
VERTEX
8
0
10
4.477109375
20
3.2665
30
0
0
VERTEX
8
0
10
4.49235625
20
3.16044375
30
0
0
VERTEX
8
0
10
4.5
20
3.0535718750000003
30
0
0
VERTEX
8
0
10
4.5
20
2.946428125
30
0
0
SEQEND
0
POLYLINE
66
1
8
holes
10
0.0
20
0.0
30
0.0
70
1
0
VERTEX
8
0
10
41.5
20
2.946428125
30
0
0
VERTEX
8
0
10
41.49235625
20
2.8395562500000002
30
0
0
VERTEX
8
0
10
41.477109375000005
20
2.7335000000000003
30
0
0
VERTEX
8
0
10
41.45433125
20
2.628803125
30
0
0
VERTEX
8
0
10
41.424146875000005
20
2.5260000000000002
30
0
0
VERTEX
8
0
10
41.386703125000004
20
2.425609375
30
0
0
VERTEX
8
0
10
41.34219375
20
2.3281468750000003
30
0
0
VERTEX
8
0
10
41.29084375
20
2.23410625
30
0
0
VERTEX
8
0
10
41.232915625000004
20
2.143971875
30
0
0
VERTEX
8
0
10
41.16870625
20
2.058196875
30
0
0
VERTEX
8
0
10
41.098540625000005
20
1.9772218750000001
30
0
0
VERTEX
8
0
10
41.022778125
20
1.9014593750000002
30
0
0
VERTEX
8
0
10
40.941803125
20
1.8312937500000002
30
0
0
VERTEX
8
0
10
40.856028125
20
1.767084375
30
0
0
VERTEX
8
0
10
40.765893750000004
20
1.7091562500000002
30
0
0
VERTEX
8
0
10
40.671853125000005
20
1.6578062500000001
30
0
0
VERTEX
8
0
10
40.574390625
20
1.613296875
30
0
0
VERTEX
8
0
10
40.474000000000004
20
1.575853125
30
0
0
VERTEX
8
0
10
40.371196875
20
1.5456687500000001
30
0
0
VERTEX
8
0
10
40.2665
20
1.522890625
30
0
0
VERTEX
8
0
10
40.16044375
20
1.5076437500000002
30
0
0
VERTEX
8
0
10
40.053571875
20
1.5
30
0
0
VERTEX
8
0
10
39.946428125000004
20
1.5
30
0
0
VERTEX
8
0
10
39.83955625
20
1.5076437500000002
30
0
0
VERTEX
8
0
10
39.7335
20
1.522890625
30
0
0
VERTEX
8
0
10
39.628803125000005
20
1.5456687500000001
30
0
0
VERTEX
8
0
10
39.526
20
1.575853125
30
0
0
VERTEX
8
0
10
39.425609375
20
1.613296875
30
0
0
VERTEX
8
0
10
39.328146875
20
1.6578062500000001
30
0
0
VERTEX
8
0
10
39.23410625
20
1.7091562500000002
30
0
0
VERTEX
8
0
10
39.143971875000005
20
1.767084375
30
0
0
VERTEX
8
0
10
39.058196875
20
1.8312937500000002
30
0
0
VERTEX
8
0
10
38.977221875000005
20
1.9014593750000002
30
0
0
VERTEX
8
0
10
38.901459375
20
1.9772218750000001
30
0
0
VERTEX
8
0
10
38.83129375
20
2.058196875
30
0
0
VERTEX
8
0
10
38.767084375
20
2.143971875
30
0
0
VERTEX
8
0
10
38.70915625
20
2.23410625
30
0
0
VERTEX
8
0
10
38.65780625
20
2.3281468750000003
30
0
0
VERTEX
8
0
10
38.613296875
20
2.425609375
30
0
0
VERTEX
8
0
10
38.575853125
20
2.5260000000000002
30
0
0
VERTEX
8
0
10
38.545668750000004
20
2.628803125
30
0
0
VERTEX
8
0
10
38.522890625
20
2.7335000000000003
30
0
0
VERTEX
8
0
10
38.50764375
20
2.8395562500000002
30
0
0
VERTEX
8
0
10
38.5
20
2.946428125
30
0
0
VERTEX
8
0
10
38.5
20
3.0535718750000003
30
0
0
VERTEX
8
0
10
38.50764375
20
3.16044375
30
0
0
VERTEX
8
0
10
38.522890625
20
3.2665
30
0
0
VERTEX
8
0
10
38.545668750000004
20
3.3711968750000003
30
0
0
VERTEX
8
0
10
38.575853125
20
3.474
30
0
0
VERTEX
8
0
10
38.613296875
20
3.5743906250000004
30
0
0
VERTEX
8
0
10
38.65780625
20
3.671853125
30
0
0
VERTEX
8
0
10
38.70915625
20
3.76589375
30
0
0
VERTEX
8
0
10
38.767084375
20
3.8560281250000004
30
0
0
VERTEX
8
0
10
38.83129375
20
3.9418031250000003
30
0
0
VERTEX
8
0
10
38.901459375
20
4.022778125
30
0
0
VERTEX
8
0
10
38.977221875000005
20
4.098540625
30
0
0
VERTEX
8
0
10
39.058196875
20
4.1687062500000005
30
0
0
VERTEX
8
0
10
39.143971875000005
20
4.232915625
30
0
0
VERTEX
8
0
10
39.23410625
20
4.2908437500000005
30
0
0
VERTEX
8
0
10
39.328146875
20
4.34219375
30
0
0
VERTEX
8
0
10
39.425609375
20
4.386703125
30
0
0
VERTEX
8
0
10
39.526
20
4.424146875
30
0
0
VERTEX
8
0
10
39.628803125000005
20
4.45433125
30
0
0
VERTEX
8
0
10
39.7335
20
4.477109375
30
0
0
VERTEX
8
0
10
39.83955625
20
4.49235625
30
0
0
VERTEX
8
0
10
39.946428125000004
20
4.5
30
0
0
VERTEX
8
0
10
40.053571875
20
4.5
30
0
0
VERTEX
8
0
10
40.16044375
20
4.49235625
30
0
0
VERTEX
8
0
10
40.2665
20
4.477109375
30
0
0
VERTEX
8
0
10
40.371196875
20
4.45433125
30
0
0
VERTEX
8
0
10
40.474000000000004
20
4.424146875
30
0
0
VERTEX
8
0
10
40.574390625
20
4.386703125
30
0
0
VERTEX
8
0
10
40.671853125000005
20
4.34219375
30
0
0
VERTEX
8
0
10
40.765893750000004
20
4.2908437500000005
30
0
0
VERTEX
8
0
10
40.856028125
20
4.232915625
30
0
0
VERTEX
8
0
10
40.941803125
20
4.1687062500000005
30
0
0
VERTEX
8
0
10
41.022778125
20
4.098540625
30
0
0
VERTEX
8
0
10
41.098540625000005
20
4.022778125
30
0
0
VERTEX
8
0
10
41.16870625
20
3.9418031250000003
30
0
0
VERTEX
8
0
10
41.232915625000004
20
3.8560281250000004
30
0
0
VERTEX
8
0
10
41.29084375
20
3.76589375
30
0
0
VERTEX
8
0
10
41.34219375
20
3.671853125
30
0
0
VERTEX
8
0
10
41.386703125000004
20
3.5743906250000004
30
0
0
VERTEX
8
0
10
41.424146875000005
20
3.474
30
0
0
VERTEX
8
0
10
41.45433125
20
3.3711968750000003
30
0
0
VERTEX
8
0
10
41.477109375000005
20
3.2665
30
0
0
VERTEX
8
0
10
41.49235625
20
3.16044375
30
0
0
VERTEX
8
0
10
41.5
20
3.0535718750000003
30
0
0
VERTEX
8
0
10
41.5
20
2.946428125
30
0
0
SEQEND
0
POLYLINE
66
1
8
holes
10
0.0
20
0.0
30
0.0
70
1
0
VERTEX
8
0
10
41.5
20
70.946428125
30
0
0
VERTEX
8
0
10
41.49235625
20
70.83955625
30
0
0
VERTEX
8
0
10
41.477109375000005
20
70.7335
30
0
0
VERTEX
8
0
10
41.45433125
20
70.628803125
30
0
0
VERTEX
8
0
10
41.424146875000005
20
70.52600000000001
30
0
0
VERTEX
8
0
10
41.386703125000004
20
70.42560937500001
30
0
0
VERTEX
8
0
10
41.34219375
20
70.328146875
30
0
0
VERTEX
8
0
10
41.29084375
20
70.23410625
30
0
0
VERTEX
8
0
10
41.232915625000004
20
70.143971875
30
0
0
VERTEX
8
0
10
41.16870625
20
70.05819687500001
30
0
0
VERTEX
8
0
10
41.098540625000005
20
69.977221875
30
0
0
VERTEX
8
0
10
41.022778125
20
69.901459375
30
0
0
VERTEX
8
0
10
40.941803125
20
69.83129375
30
0
0
VERTEX
8
0
10
40.856028125
20
69.76708437500001
30
0
0
VERTEX
8
0
10
40.765893750000004
20
69.70915625
30
0
0
VERTEX
8
0
10
40.671853125000005
20
69.65780625000001
30
0
0
VERTEX
8
0
10
40.574390625
20
69.613296875
30
0
0
VERTEX
8
0
10
40.474000000000004
20
69.57585312500001
30
0
0
VERTEX
8
0
10
40.371196875
20
69.54566875
30
0
0
VERTEX
8
0
10
40.2665
20
69.522890625
30
0
0
VERTEX
8
0
10
40.16044375
20
69.50764375
30
0
0
VERTEX
8
0
10
40.053571875
20
69.5
30
0
0
VERTEX
8
0
10
39.946428125000004
20
69.5
30
0
0
VERTEX
8
0
10
39.83955625
20
69.50764375
30
0
0
VERTEX
8
0
10
39.7335
20
69.522890625
30
0
0
VERTEX
8
0
10
39.628803125000005
20
69.54566875
30
0
0
VERTEX
8
0
10
39.526
20
69.57585312500001
30
0
0
VERTEX
8
0
10
39.425609375
20
69.613296875
30
0
0
VERTEX
8
0
10
39.328146875
20
69.65780625000001
30
0
0
VERTEX
8
0
10
39.23410625
20
69.70915625
30
0
0
VERTEX
8
0
10
39.143971875000005
20
69.76708437500001
30
0
0
VERTEX
8
0
10
39.058196875
20
69.83129375
30
0
0
VERTEX
8
0
10
38.977221875000005
20
69.901459375
30
0
0
VERTEX
8
0
10
38.901459375
20
69.977221875
30
0
0
VERTEX
8
0
10
38.83129375
20
70.05819687500001
30
0
0
VERTEX
8
0
10
38.767084375
20
70.143971875
30
0
0
VERTEX
8
0
10
38.70915625
20
70.23410625
30
0
0
VERTEX
8
0
10
38.65780625
20
70.328146875
30
0
0
VERTEX
8
0
10
38.613296875
20
70.42560937500001
30
0
0
VERTEX
8
0
10
38.575853125
20
70.52600000000001
30
0
0
VERTEX
8
0
10
38.545668750000004
20
70.628803125
30
0
0
VERTEX
8
0
10
38.522890625
20
70.7335
30
0
0
VERTEX
8
0
10
38.50764375
20
70.83955625
30
0
0
VERTEX
8
0
10
38.5
20
70.946428125
30
0
0
VERTEX
8
0
10
38.5
20
71.053571875
30
0
0
VERTEX
8
0
10
38.50764375
20
71.16044375
30
0
0
VERTEX
8
0
10
38.522890625
20
71.26650000000001
30
0
0
VERTEX
8
0
10
38.545668750000004
20
71.37119687500001
30
0
0
VERTEX
8
0
10
38.575853125
20
71.474
30
0
0
VERTEX
8
0
10
38.613296875
20
71.574390625
30
0
0
VERTEX
8
0
10
38.65780625
20
71.671853125
30
0
0
VERTEX
8
0
10
38.70915625
20
71.76589375
30
0
0
VERTEX
8
0
10
38.767084375
20
71.85602812500001
30
0
0
VERTEX
8
0
10
38.83129375
20
71.941803125
30
0
0
VERTEX
8
0
10
38.901459375
20
72.022778125
30
0
0
VERTEX
8
0
10
38.977221875000005
20
72.098540625
30
0
0
VERTEX
8
0
10
39.058196875
20
72.16870625
30
0
0
VERTEX
8
0
10
39.143971875000005
20
72.232915625
30
0
0
VERTEX
8
0
10
39.23410625
20
72.29084375000001
30
0
0
VERTEX
8
0
10
39.328146875
20
72.34219375
30
0
0
VERTEX
8
0
10
39.425609375
20
72.386703125
30
0
0
VERTEX
8
0
10
39.526
20
72.424146875
30
0
0
VERTEX
8
0
10
39.628803125000005
20
72.45433125000001
30
0
0
VERTEX
8
0
10
39.7335
20
72.477109375
30
0
0
VERTEX
8
0
10
39.83955625
20
72.49235625
30
0
0
VERTEX
8
0
10
39.946428125000004
20
72.5
30
0
0
VERTEX
8
0
10
40.053571875
20
72.5
30
0
0
VERTEX
8
0
10
40.16044375
20
72.49235625
30
0
0
VERTEX
8
0
10
40.2665
20
72.477109375
30
0
0
VERTEX
8
0
10
40.371196875
20
72.45433125000001
30
0
0
VERTEX
8
0
10
40.474000000000004
20
72.424146875
30
0
0
VERTEX
8
0
10
40.574390625
20
72.386703125
30
0
0
VERTEX
8
0
10
40.671853125000005
20
72.34219375
30
0
0
VERTEX
8
0
10
40.765893750000004
20
72.29084375000001
30
0
0
VERTEX
8
0
10
40.856028125
20
72.232915625
30
0
0
VERTEX
8
0
10
40.941803125
20
72.16870625
30
0
0
VERTEX
8
0
10
41.022778125
20
72.098540625
30
0
0
VERTEX
8
0
10
41.098540625000005
20
72.022778125
30
0
0
VERTEX
8
0
10
41.16870625
20
71.941803125
30
0
0
VERTEX
8
0
10
41.232915625000004
20
71.85602812500001
30
0
0
VERTEX
8
0
10
41.29084375
20
71.76589375
30
0
0
VERTEX
8
0
10
41.34219375
20
71.671853125
30
0
0
VERTEX
8
0
10
41.386703125000004
20
71.574390625
30
0
0
VERTEX
8
0
10
41.424146875000005
20
71.474
30
0
0
VERTEX
8
0
10
41.45433125
20
71.37119687500001
30
0
0
VERTEX
8
0
10
41.477109375000005
20
71.26650000000001
30
0
0
VERTEX
8
0
10
41.49235625
20
71.16044375
30
0
0
VERTEX
8
0
10
41.5
20
71.053571875
30
0
0
VERTEX
8
0
10
41.5
20
70.946428125
30
0
0
SEQEND
0
POLYLINE
66
1
8
holes
10
0.0
20
0.0
30
0.0
70
1
0
VERTEX
8
0
10
4.5
20
70.946428125
30
0
0
VERTEX
8
0
10
4.49235625
20
70.83955625
30
0
0
VERTEX
8
0
10
4.477109375
20
70.7335
30
0
0
VERTEX
8
0
10
4.45433125
20
70.628803125
30
0
0
VERTEX
8
0
10
4.424146875
20
70.52600000000001
30
0
0
VERTEX
8
0
10
4.386703125
20
70.42560937500001
30
0
0
VERTEX
8
0
10
4.34219375
20
70.328146875
30
0
0
VERTEX
8
0
10
4.2908437500000005
20
70.23410625
30
0
0
VERTEX
8
0
10
4.232915625
20
70.143971875
30
0
0
VERTEX
8
0
10
4.1687062500000005
20
70.05819687500001
30
0
0
VERTEX
8
0
10
4.098540625
20
69.977221875
30
0
0
VERTEX
8
0
10
4.022778125
20
69.901459375
30
0
0
VERTEX
8
0
10
3.9418031250000003
20
69.83129375
30
0
0
VERTEX
8
0
10
3.8560281250000004
20
69.76708437500001
30
0
0
VERTEX
8
0
10
3.76589375
20
69.70915625
30
0
0
VERTEX
8
0
10
3.671853125
20
69.65780625000001
30
0
0
VERTEX
8
0
10
3.5743906250000004
20
69.613296875
30
0
0
VERTEX
8
0
10
3.474
20
69.57585312500001
30
0
0
VERTEX
8
0
10
3.3711968750000003
20
69.54566875
30
0
0
VERTEX
8
0
10
3.2665
20
69.522890625
30
0
0
VERTEX
8
0
10
3.16044375
20
69.50764375
30
0
0
VERTEX
8
0
10
3.0535718750000003
20
69.5
30
0
0
VERTEX
8
0
10
2.946428125
20
69.5
30
0
0
VERTEX
8
0
10
2.8395562500000002
20
69.50764375
30
0
0
VERTEX
8
0
10
2.7335000000000003
20
69.522890625
30
0
0
VERTEX
8
0
10
2.628803125
20
69.54566875
30
0
0
VERTEX
8
0
10
2.5260000000000002
20
69.57585312500001
30
0
0
VERTEX
8
0
10
2.425609375
20
69.613296875
30
0
0
VERTEX
8
0
10
2.3281468750000003
20
69.65780625000001
30
0
0
VERTEX
8
0
10
2.23410625
20
69.70915625
30
0
0
VERTEX
8
0
10
2.143971875
20
69.76708437500001
30
0
0
VERTEX
8
0
10
2.058196875
20
69.83129375
30
0
0
VERTEX
8
0
10
1.9772218750000001
20
69.901459375
30
0
0
VERTEX
8
0
10
1.9014593750000002
20
69.977221875
30
0
0
VERTEX
8
0
10
1.8312937500000002
20
70.05819687500001
30
0
0
VERTEX
8
0
10
1.767084375
20
70.143971875
30
0
0
VERTEX
8
0
10
1.7091562500000002
20
70.23410625
30
0
0
VERTEX
8
0
10
1.6578062500000001
20
70.328146875
30
0
0
VERTEX
8
0
10
1.613296875
20
70.42560937500001
30
0
0
VERTEX
8
0
10
1.575853125
20
70.52600000000001
30
0
0
VERTEX
8
0
10
1.5456687500000001
20
70.628803125
30
0
0
VERTEX
8
0
10
1.522890625
20
70.7335
30
0
0
VERTEX
8
0
10
1.5076437500000002
20
70.83955625
30
0
0
VERTEX
8
0
10
1.5
20
70.946428125
30
0
0
VERTEX
8
0
10
1.5
20
71.053571875
30
0
0
VERTEX
8
0
10
1.5076437500000002
20
71.16044375
30
0
0
VERTEX
8
0
10
1.522890625
20
71.26650000000001
30
0
0
VERTEX
8
0
10
1.5456687500000001
20
71.37119687500001
30
0
0
VERTEX
8
0
10
1.575853125
20
71.474
30
0
0
VERTEX
8
0
10
1.613296875
20
71.574390625
30
0
0
VERTEX
8
0
10
1.6578062500000001
20
71.671853125
30
0
0
VERTEX
8
0
10
1.7091562500000002
20
71.76589375
30
0
0
VERTEX
8
0
10
1.767084375
20
71.85602812500001
30
0
0
VERTEX
8
0
10
1.8312937500000002
20
71.941803125
30
0
0
VERTEX
8
0
10
1.9014593750000002
20
72.022778125
30
0
0
VERTEX
8
0
10
1.9772218750000001
20
72.098540625
30
0
0
VERTEX
8
0
10
2.058196875
20
72.16870625
30
0
0
VERTEX
8
0
10
2.143971875
20
72.232915625
30
0
0
VERTEX
8
0
10
2.23410625
20
72.29084375000001
30
0
0
VERTEX
8
0
10
2.3281468750000003
20
72.34219375
30
0
0
VERTEX
8
0
10
2.425609375
20
72.386703125
30
0
0
VERTEX
8
0
10
2.5260000000000002
20
72.424146875
30
0
0
VERTEX
8
0
10
2.628803125
20
72.45433125000001
30
0
0
VERTEX
8
0
10
2.7335000000000003
20
72.477109375
30
0
0
VERTEX
8
0
10
2.8395562500000002
20
72.49235625
30
0
0
VERTEX
8
0
10
2.946428125
20
72.5
30
0
0
VERTEX
8
0
10
3.0535718750000003
20
72.5
30
0
0
VERTEX
8
0
10
3.16044375
20
72.49235625
30
0
0
VERTEX
8
0
10
3.2665
20
72.477109375
30
0
0
VERTEX
8
0
10
3.3711968750000003
20
72.45433125000001
30
0
0
VERTEX
8
0
10
3.474
20
72.424146875
30
0
0
VERTEX
8
0
10
3.5743906250000004
20
72.386703125
30
0
0
VERTEX
8
0
10
3.671853125
20
72.34219375
30
0
0
VERTEX
8
0
10
3.76589375
20
72.29084375000001
30
0
0
VERTEX
8
0
10
3.8560281250000004
20
72.232915625
30
0
0
VERTEX
8
0
10
3.9418031250000003
20
72.16870625
30
0
0
VERTEX
8
0
10
4.022778125
20
72.098540625
30
0
0
VERTEX
8
0
10
4.098540625
20
72.022778125
30
0
0
VERTEX
8
0
10
4.1687062500000005
20
71.941803125
30
0
0
VERTEX
8
0
10
4.232915625
20
71.85602812500001
30
0
0
VERTEX
8
0
10
4.2908437500000005
20
71.76589375
30
0
0
VERTEX
8
0
10
4.34219375
20
71.671853125
30
0
0
VERTEX
8
0
10
4.386703125
20
71.574390625
30
0
0
VERTEX
8
0
10
4.424146875
20
71.474
30
0
0
VERTEX
8
0
10
4.45433125
20
71.37119687500001
30
0
0
VERTEX
8
0
10
4.477109375
20
71.26650000000001
30
0
0
VERTEX
8
0
10
4.49235625
20
71.16044375
30
0
0
VERTEX
8
0
10
4.5
20
71.053571875
30
0
0
VERTEX
8
0
10
4.5
20
70.946428125
30
0
0
SEQEND
0
POLYLINE
66
1
8
holes
10
0.0
20
0.0
30
0.0
70
1
0
VERTEX
8
0
10
4.5
20
2.946428125
30
0
0
VERTEX
8
0
10
4.49235625
20
2.8395562500000002
30
0
0
VERTEX
8
0
10
4.477109375
20
2.7335000000000003
30
0
0
VERTEX
8
0
10
4.45433125
20
2.628803125
30
0
0
VERTEX
8
0
10
4.424146875
20
2.5260000000000002
30
0
0
VERTEX
8
0
10
4.386703125
20
2.425609375
30
0
0
VERTEX
8
0
10
4.34219375
20
2.3281468750000003
30
0
0
VERTEX
8
0
10
4.2908437500000005
20
2.23410625
30
0
0
VERTEX
8
0
10
4.232915625
20
2.143971875
30
0
0
VERTEX
8
0
10
4.1687062500000005
20
2.058196875
30
0
0
VERTEX
8
0
10
4.098540625
20
1.9772218750000001
30
0
0
VERTEX
8
0
10
4.022778125
20
1.9014593750000002
30
0
0
VERTEX
8
0
10
3.9418031250000003
20
1.8312937500000002
30
0
0
VERTEX
8
0
10
3.8560281250000004
20
1.767084375
30
0
0
VERTEX
8
0
10
3.76589375
20
1.7091562500000002
30
0
0
VERTEX
8
0
10
3.671853125
20
1.6578062500000001
30
0
0
VERTEX
8
0
10
3.5743906250000004
20
1.613296875
30
0
0
VERTEX
8
0
10
3.474
20
1.575853125
30
0
0
VERTEX
8
0
10
3.3711968750000003
20
1.5456687500000001
30
0
0
VERTEX
8
0
10
3.2665
20
1.522890625
30
0
0
VERTEX
8
0
10
3.16044375
20
1.5076437500000002
30
0
0
VERTEX
8
0
10
3.0535718750000003
20
1.5
30
0
0
VERTEX
8
0
10
2.946428125
20
1.5
30
0
0
VERTEX
8
0
10
2.8395562500000002
20
1.5076437500000002
30
0
0
VERTEX
8
0
10
2.7335000000000003
20
1.522890625
30
0
0
VERTEX
8
0
10
2.628803125
20
1.5456687500000001
30
0
0
VERTEX
8
0
10
2.5260000000000002
20
1.575853125
30
0
0
VERTEX
8
0
10
2.425609375
20
1.613296875
30
0
0
VERTEX
8
0
10
2.3281468750000003
20
1.6578062500000001
30
0
0
VERTEX
8
0
10
2.23410625
20
1.7091562500000002
30
0
0
VERTEX
8
0
10
2.143971875
20
1.767084375
30
0
0
VERTEX
8
0
10
2.058196875
20
1.8312937500000002
30
0
0
VERTEX
8
0
10
1.9772218750000001
20
1.9014593750000002
30
0
0
VERTEX
8
0
10
1.9014593750000002
20
1.9772218750000001
30
0
0
VERTEX
8
0
10
1.8312937500000002
20
2.058196875
30
0
0
VERTEX
8
0
10
1.767084375
20
2.143971875
30
0
0
VERTEX
8
0
10
1.7091562500000002
20
2.23410625
30
0
0
VERTEX
8
0
10
1.6578062500000001
20
2.3281468750000003
30
0
0
VERTEX
8
0
10
1.613296875
20
2.425609375
30
0
0
VERTEX
8
0
10
1.575853125
20
2.5260000000000002
30
0
0
VERTEX
8
0
10
1.5456687500000001
20
2.628803125
30
0
0
VERTEX
8
0
10
1.522890625
20
2.7335000000000003
30
0
0
VERTEX
8
0
10
1.5076437500000002
20
2.8395562500000002
30
0
0
VERTEX
8
0
10
1.5
20
2.946428125
30
0
0
VERTEX
8
0
10
1.5
20
3.0535718750000003
30
0
0
VERTEX
8
0
10
1.5076437500000002
20
3.16044375
30
0
0
VERTEX
8
0
10
1.522890625
20
3.2665
30
0
0
VERTEX
8
0
10
1.5456687500000001
20
3.3711968750000003
30
0
0
VERTEX
8
0
10
1.575853125
20
3.474
30
0
0
VERTEX
8
0
10
1.613296875
20
3.5743906250000004
30
0
0
VERTEX
8
0
10
1.6578062500000001
20
3.671853125
30
0
0
VERTEX
8
0
10
1.7091562500000002
20
3.76589375
30
0
0
VERTEX
8
0
10
1.767084375
20
3.8560281250000004
30
0
0
VERTEX
8
0
10
1.8312937500000002
20
3.9418031250000003
30
0
0
VERTEX
8
0
10
1.9014593750000002
20
4.022778125
30
0
0
VERTEX
8
0
10
1.9772218750000001
20
4.098540625
30
0
0
VERTEX
8
0
10
2.058196875
20
4.1687062500000005
30
0
0
VERTEX
8
0
10
2.143971875
20
4.232915625
30
0
0
VERTEX
8
0
10
2.23410625
20
4.2908437500000005
30
0
0
VERTEX
8
0
10
2.3281468750000003
20
4.34219375
30
0
0
VERTEX
8
0
10
2.425609375
20
4.386703125
30
0
0
VERTEX
8
0
10
2.5260000000000002
20
4.424146875
30
0
0
VERTEX
8
0
10
2.628803125
20
4.45433125
30
0
0
VERTEX
8
0
10
2.7335000000000003
20
4.477109375
30
0
0
VERTEX
8
0
10
2.8395562500000002
20
4.49235625
30
0
0
VERTEX
8
0
10
2.946428125
20
4.5
30
0
0
VERTEX
8
0
10
3.0535718750000003
20
4.5
30
0
0
VERTEX
8
0
10
3.16044375
20
4.49235625
30
0
0
VERTEX
8
0
10
3.2665
20
4.477109375
30
0
0
VERTEX
8
0
10
3.3711968750000003
20
4.45433125
30
0
0
VERTEX
8
0
10
3.474
20
4.424146875
30
0
0
VERTEX
8
0
10
3.5743906250000004
20
4.386703125
30
0
0
VERTEX
8
0
10
3.671853125
20
4.34219375
30
0
0
VERTEX
8
0
10
3.76589375
20
4.2908437500000005
30
0
0
VERTEX
8
0
10
3.8560281250000004
20
4.232915625
30
0
0
VERTEX
8
0
10
3.9418031250000003
20
4.1687062500000005
30
0
0
VERTEX
8
0
10
4.022778125
20
4.098540625
30
0
0
VERTEX
8
0
10
4.098540625
20
4.022778125
30
0
0
VERTEX
8
0
10
4.1687062500000005
20
3.9418031250000003
30
0
0
VERTEX
8
0
10
4.232915625
20
3.8560281250000004
30
0
0
VERTEX
8
0
10
4.2908437500000005
20
3.76589375
30
0
0
VERTEX
8
0
10
4.34219375
20
3.671853125
30
0
0
VERTEX
8
0
10
4.386703125
20
3.5743906250000004
30
0
0
VERTEX
8
0
10
4.424146875
20
3.474
30
0
0
VERTEX
8
0
10
4.45433125
20
3.3711968750000003
30
0
0
VERTEX
8
0
10
4.477109375
20
3.2665
30
0
0
VERTEX
8
0
10
4.49235625
20
3.16044375
30
0
0
VERTEX
8
0
10
4.5
20
3.0535718750000003
30
0
0
VERTEX
8
0
10
4.5
20
2.946428125
30
0
0
SEQEND
0
POLYLINE
66
1
8
1_copper
10
0.0
20
0.0
30
0.0
70
1
0
VERTEX
8
0
10
32.4652
20
2.600203125
30
0
0
VERTEX
8
0
10
32.4652
20
3.3997968750000003
30
0
0
VERTEX
8
0
10
31.899796875
20
3.9652000000000003
30
0
0
VERTEX
8
0
10
31.100203125
20
3.9652000000000003
30
0
0
VERTEX
8
0
10
30.5348
20
3.3997968750000003
30
0
0
VERTEX
8
0
10
30.5348
20
2.600203125
30
0
0
VERTEX
8
0
10
31.100203125
20
2.0348
30
0
0
VERTEX
8
0
10
31.899796875
20
2.0348
30
0
0
SEQEND
0
POLYLINE
66
1
8
16_copper
10
0.0
20
0.0
30
0.0
70
1
0
VERTEX
8
0
10
32.4652
20
2.600203125
30
0
0
VERTEX
8
0
10
32.4652
20
3.3997968750000003
30
0
0
VERTEX
8
0
10
31.899796875
20
3.9652000000000003
30
0
0
VERTEX
8
0
10
31.100203125
20
3.9652000000000003
30
0
0
VERTEX
8
0
10
30.5348
20
3.3997968750000003
30
0
0
VERTEX
8
0
10
30.5348
20
2.600203125
30
0
0
VERTEX
8
0
10
31.100203125
20
2.0348
30
0
0
VERTEX
8
0
10
31.899796875
20
2.0348
30
0
0
SEQEND
0
POLYLINE
66
1
8
1_copper
10
0.0
20
0.0
30
0.0
70
1
0
VERTEX
8
0
10
34.9652
20
10.600203125
30
0
0
VERTEX
8
0
10
34.9652
20
11.399796875
30
0
0
VERTEX
8
0
10
34.399796875
20
11.965200000000001
30
0
0
VERTEX
8
0
10
33.600203125
20
11.965200000000001
30
0
0
VERTEX
8
0
10
33.034800000000004
20
11.399796875
30
0
0
VERTEX
8
0
10
33.034800000000004
20
10.600203125
30
0
0
VERTEX
8
0
10
33.600203125
20
10.0348
30
0
0
VERTEX
8
0
10
34.399796875
20
10.0348
30
0
0
SEQEND
0
POLYLINE
66
1
8
1_copper
10
0.0
20
0.0
30
0.0
70
1
0
VERTEX
8
0
10
28.965200000000003
20
2.600203125
30
0
0
VERTEX
8
0
10
28.965200000000003
20
3.3997968750000003
30
0
0
VERTEX
8
0
10
28.399796875
20
3.9652000000000003
30
0
0
VERTEX
8
0
10
27.600203125
20
3.9652000000000003
30
0
0
VERTEX
8
0
10
27.0348
20
3.3997968750000003
30
0
0
VERTEX
8
0
10
27.0348
20
2.600203125
30
0
0
VERTEX
8
0
10
27.600203125
20
2.0348
30
0
0
VERTEX
8
0
10
28.399796875
20
2.0348
30
0
0
SEQEND
0
POLYLINE
66
1
8
16_copper
10
0.0
20
0.0
30
0.0
70
1
0
VERTEX
8
0
10
28.965200000000003
20
2.600203125
30
0
0
VERTEX
8
0
10
28.965200000000003
20
3.3997968750000003
30
0
0
VERTEX
8
0
10
28.4064
20
3.958596875
30
0
0
VERTEX
8
0
10
28.4064
20
4.8316625
30
0
0
VERTEX
8
0
10
33.6095375
20
10.0348
30
0
0
VERTEX
8
0
10
34.399796875
20
10.0348
30
0
0
VERTEX
8
0
10
34.9652
20
10.600203125
30
0
0
VERTEX
8
0
10
34.9652
20
11.399796875
30
0
0
VERTEX
8
0
10
34.399796875
20
11.965200000000001
30
0
0
VERTEX
8
0
10
33.600203125
20
11.965200000000001
30
0
0
VERTEX
8
0
10
33.034800000000004
20
11.399796875
30
0
0
VERTEX
8
0
10
33.034800000000004
20
10.6095375
30
0
0
VERTEX
8
0
10
27.71263125
20
5.287368750000001
30
0
42
0.198912367379658
0
VERTEX
8
0
10
27.593600000000002
20
5
30
0
0
VERTEX
8
0
10
27.593600000000002
20
3.958596875
30
0
0
VERTEX
8
0
10
27.0348
20
3.3997968750000003
30
0
0
VERTEX
8
0
10
27.0348
20
2.600203125
30
0
0
VERTEX
8
0
10
27.600203125
20
2.0348
30
0
0
VERTEX
8
0
10
28.399796875
20
2.0348
30
0
0
SEQEND
0
POLYLINE
66
1
8
1_copper
10
0.0
20
0.0
30
0.0
70
1
0
VERTEX
8
0
10
39.4652
20
10.600203125
30
0
0
VERTEX
8
0
10
39.4652
20
11.399796875
30
0
0
VERTEX
8
0
10
38.899796875
20
11.965200000000001
30
0
0
VERTEX
8
0
10
38.100203125
20
11.965200000000001
30
0
0
VERTEX
8
0
10
37.534800000000004
20
11.399796875
30
0
0
VERTEX
8
0
10
37.534800000000004
20
10.600203125
30
0
0
VERTEX
8
0
10
38.100203125
20
10.0348
30
0
0
VERTEX
8
0
10
38.899796875
20
10.0348
30
0
0
SEQEND
0
POLYLINE
66
1
8
1_copper
10
0.0
20
0.0
30
0.0
70
1
0
VERTEX
8
0
10
35.9652
20
2.600203125
30
0
0
VERTEX
8
0
10
35.9652
20
3.3997968750000003
30
0
0
VERTEX
8
0
10
35.399796875
20
3.9652000000000003
30
0
0
VERTEX
8
0
10
34.600203125
20
3.9652000000000003
30
0
0
VERTEX
8
0
10
34.034800000000004
20
3.3997968750000003
30
0
0
VERTEX
8
0
10
34.034800000000004
20
2.600203125
30
0
0
VERTEX
8
0
10
34.600203125
20
2.0348
30
0
0
VERTEX
8
0
10
35.399796875
20
2.0348
30
0
0
SEQEND
0
POLYLINE
66
1
8
16_copper
10
0.0
20
0.0
30
0.0
70
1
0
VERTEX
8
0
10
35.9652
20
2.600203125
30
0
0
VERTEX
8
0
10
35.9652
20
3.3997968750000003
30
0
0
VERTEX
8
0
10
35.406400000000005
20
3.958596875
30
0
0
VERTEX
8
0
10
35.406400000000005
20
7.3316625
30
0
0
VERTEX
8
0
10
38.1095375
20
10.0348
30
0
0
VERTEX
8
0
10
38.899796875
20
10.0348
30
0
0
VERTEX
8
0
10
39.4652
20
10.600203125
30
0
0
VERTEX
8
0
10
39.4652
20
11.399796875
30
0
0
VERTEX
8
0
10
38.899796875
20
11.965200000000001
30
0
0
VERTEX
8
0
10
38.100203125
20
11.965200000000001
30
0
0
VERTEX
8
0
10
37.534800000000004
20
11.399796875
30
0
0
VERTEX
8
0
10
37.534800000000004
20
10.6095375
30
0
0
VERTEX
8
0
10
34.71263125
20
7.787368750000001
30
0
42
0.198912367379658
0
VERTEX
8
0
10
34.5936
20
7.5
30
0
0
VERTEX
8
0
10
34.5936
20
3.958596875
30
0
0
VERTEX
8
0
10
34.034800000000004
20
3.3997968750000003
30
0
0
VERTEX
8
0
10
34.034800000000004
20
2.600203125
30
0
0
VERTEX
8
0
10
34.600203125
20
2.0348
30
0
0
VERTEX
8
0
10
35.399796875
20
2.0348
30
0
0
SEQEND
0
POLYLINE
66
1
8
1_copper
10
0.0
20
0.0
30
0.0
70
1
0
VERTEX
8
0
10
8.6104
20
4.60645625
30
0
0
VERTEX
8
0
10
8.6104
20
5.15354375
30
0
0
VERTEX
8
0
10
8.223543750000001
20
5.5404
30
0
0
VERTEX
8
0
10
7.67645625
20
5.5404
30
0
0
VERTEX
8
0
10
7.2896
20
5.15354375
30
0
0
VERTEX
8
0
10
7.2896
20
4.60645625
30
0
0
VERTEX
8
0
10
7.67645625
20
4.2196
30
0
0
VERTEX
8
0
10
8.223543750000001
20
4.2196
30
0
0
SEQEND
0
POLYLINE
66
1
8
16_copper
10
0.0
20
0.0
30
0.0
70
1
0
VERTEX
8
0
10
29.433084375
20
44.28645
30
0
42
0.34360450700313255
0
VERTEX
8
0
10
29.448800000000002
20
44.194565625
30
0
0
VERTEX
8
0
10
29.448800000000002
20
42.556562500000005
30
0
0
VERTEX
8
0
10
21.94611875
20
35.05388125
30
0
42
0.198912367379658
0
VERTEX
8
0
10
21.9238
20
35
30
0
0
VERTEX
8
0
10
21.9238
20
24.0315625
30
0
0
VERTEX
8
0
10
9.038809375
20
11.146571875000001
30
0
42
0.4922261837628793
0
VERTEX
8
0
10
8.8476
20
11
30
0
0
VERTEX
8
0
10
8.8476
20
5.993125
30
0
0
VERTEX
8
0
10
8.309209375
20
5.454734375
30
0
0
VERTEX
8
0
10
8.223543750000001
20
5.5404
30
0
0
VERTEX
8
0
10
7.67645625
20
5.5404
30
0
0
VERTEX
8
0
10
7.2896
20
5.15354375
30
0
0
VERTEX
8
0
10
7.2896
20
4.60645625
30
0
0
VERTEX
8
0
10
7.67645625
20
4.2196
30
0
0
VERTEX
8
0
10
8.223543750000001
20
4.2196
30
0
0
VERTEX
8
0
10
8.6104
20
4.60645625
30
0
0
VERTEX
8
0
10
8.6104
20
5.15354375
30
0
0
VERTEX
8
0
10
8.524734375
20
5.239209375000001
30
0
0
VERTEX
8
0
10
9.1077625
20
5.8222375
30
0
42
0.198912367379658
0
VERTEX
8
0
10
9.1524
20
5.930000000000001
30
0
0
VERTEX
8
0
10
9.1524
20
11
30
0
42
0.06494024184458828
0
VERTEX
8
0
10
9.146690625
20
11.038928125
30
0
0
VERTEX
8
0
10
22.05388125
20
23.94611875
30
0
42
0.198912367379658
0
VERTEX
8
0
10
22.0762
20
24
30
0
0
VERTEX
8
0
10
22.0762
20
34.9684375
30
0
0
VERTEX
8
0
10
29.578881250000002
20
42.47111875
30
0
42
0.198912367379658
0
VERTEX
8
0
10
29.601200000000002
20
42.525
30
0
0
VERTEX
8
0
10
29.601200000000002
20
44.2434375
30
0
0
VERTEX
8
0
10
31.05388125
20
45.696118750000004
30
0
42
0.198912367379658
0
VERTEX
8
0
10
31.0762
20
45.75
30
0
0
VERTEX
8
0
10
31.0762
20
46.964312500000005
30
0
0
VERTEX
8
0
10
31.12378125
20
47.0039625
30
0
42
0.9999999999999999
0
VERTEX
8
0
10
31.02621875
20
47.1210375
30
0
0
VERTEX
8
0
10
30.951218750000002
20
47.0585375
30
0
42
0.22258488188780506
0
VERTEX
8
0
10
30.9238
20
47
30
0
0
VERTEX
8
0
10
30.9238
20
45.7815625
30
0
0
VERTEX
8
0
10
29.44611875
20
44.30388125
30
0
0
SEQEND
0
POLYLINE
66
1
8
1_copper
10
0.0
20
0.0
30
0.0
70
1
0
VERTEX
8
0
10
36.809000000000005
20
47.7165
30
0
0
VERTEX
8
0
10
35.501000000000005
20
47.7165
30
0
0
VERTEX
8
0
10
35.501000000000005
20
46.408500000000004
30
0
0
VERTEX
8
0
10
36.809000000000005
20
46.408500000000004
30
0
0
SEQEND
0
POLYLINE
66
1
8
16_copper
10
0.0
20
0.0
30
0.0
70
1
0
VERTEX
8
0
10
36.809000000000005
20
47.7165
30
0
0
VERTEX
8
0
10
35.501000000000005
20
47.7165
30
0
0
VERTEX
8
0
10
35.501000000000005
20
47.2012
30
0
0
VERTEX
8
0
10
35.4065625
20
47.2012
30
0
0
VERTEX
8
0
10
28.80388125
20
53.80388125
30
0
42
0.198912367379658
0
VERTEX
8
0
10
28.75
20
53.8262
30
0
0
VERTEX
8
0
10
18.7815625
20
53.8262
30
0
0
VERTEX
8
0
10
18.2012
20
54.4065625
30
0
0
VERTEX
8
0
10
18.2012
20
56.2184375
30
0
0
VERTEX
8
0
10
19.17888125
20
57.196118750000004
30
0
42
0.16678712609177013
0
VERTEX
8
0
10
19.200612500000002
20
57.240550000000006
30
0
0
VERTEX
8
0
10
19.215612500000002
20
57.36055
30
0
42
0.9999999999999999
0
VERTEX
8
0
10
19.064387500000002
20
57.379450000000006
30
0
0
VERTEX
8
0
10
19.05263125
20
57.285393750000004
30
0
0
VERTEX
8
0
10
18.07111875
20
56.30388125
30
0
42
0.198912367379658
0
VERTEX
8
0
10
18.0488
20
56.25
30
0
0
VERTEX
8
0
10
18.0488
20
54.375
30
0
42
0.198912367379658
0
VERTEX
8
0
10
18.07111875
20
54.321118750000004
30
0
0
VERTEX
8
0
10
18.69611875
20
53.696118750000004
30
0
42
0.198912367379658
0
VERTEX
8
0
10
18.75
20
53.6738
30
0
0
VERTEX
8
0
10
28.7184375
20
53.6738
30
0
0
VERTEX
8
0
10
35.321118750000004
20
47.071118750000004
30
0
42
0.198912367379658
0
VERTEX
8
0
10
35.375
20
47.0488
30
0
0
VERTEX
8
0
10
35.501000000000005
20
47.0488
30
0
0
VERTEX
8
0
10
35.501000000000005
20
46.408500000000004
30
0
0
VERTEX
8
0
10
36.809000000000005
20
46.408500000000004
30
0
0
SEQEND
0
POLYLINE
66
1
8
16_copper
10
0.0
20
0.0
30
0.0
70
1
0
VERTEX
8
0
10
3.912965625
20
59.8349125
30
0
42
0.14139101949191668
0
VERTEX
8
0
10
3.950975
20
59.8533625
30
0
0
VERTEX
8
0
10
4.050975
20
59.943362500000006
30
0
42
0.21261169312209477
0
VERTEX
8
0
10
4.0762
20
60
30
0
0
VERTEX
8
0
10
4.0762
20
65.6184375
30
0
0
VERTEX
8
0
10
10.05388125
20
71.59611875
30
0
42
0.198912367379658
0
VERTEX
8
0
10
10.0762
20
71.65
30
0
0
VERTEX
8
0
10
10.0762
20
74.92469375
30
0
42
0.959748353184829
0
VERTEX
8
0
10
10.07
20
75.0762
30
0
0
VERTEX
8
0
10
10
20
75.0762
30
0
42
0.41421356237309503
0
VERTEX
8
0
10
9.9238
20
75
30
0
0
VERTEX
8
0
10
9.9238
20
71.6815625
30
0
0
VERTEX
8
0
10
3.94611875
20
65.70388125000001
30
0
42
0.198912367379658
0
VERTEX
8
0
10
3.9238000000000004
20
65.65
30
0
0
VERTEX
8
0
10
3.9238000000000004
20
60.033934375
30
0
0
VERTEX
8
0
10
3.849025
20
59.966637500000004
30
0
0
VERTEX
8
0
10
3.8350906250000003
20
59.949915625
30
0
0
VERTEX
8
0
10
3.826453125
20
59.929934375
30
0
0
VERTEX
8
0
10
3.82381875
20
59.908328125000004
30
0
0
VERTEX
8
0
10
3.8274000000000004
20
59.886859375
30
0
0
VERTEX
8
0
10
3.836903125
20
59.867275
30
0
0
VERTEX
8
0
10
3.8515562500000002
20
59.85118125
30
0
0
VERTEX
8
0
10
3.8701656250000003
20
59.839884375000004
30
0
0
VERTEX
8
0
10
3.89120625
20
59.834309375000004
30
0
0
SEQEND
0
POLYLINE
66
1
8
16_copper
10
0.0
20
0.0
30
0.0
70
1
0
VERTEX
8
0
10
19.170409375000002
20
59.840131250000006
30
0
0
VERTEX
8
0
10
19.188253125
20
59.851025
30
0
0
VERTEX
8
0
10
19.2772
20
59.9238
30
0
0
VERTEX
8
0
10
19.625
20
59.9238
30
0
42
0.198912367379658
0
VERTEX
8
0
10
19.67888125
20
59.946118750000004
30
0
0
VERTEX
8
0
10
34.17888125
20
74.44611875
30
0
42
0.198912367379658
0
VERTEX
8
0
10
34.2012
20
74.5
30
0
0
VERTEX
8
0
10
34.2012
20
75.5
30
0
42
0.198912367379658
0
VERTEX
8
0
10
34.17888125
20
75.55388125
30
0
0
VERTEX
8
0
10
33.17888125
20
76.55388125
30
0
42
0.198912367379658
0
VERTEX
8
0
10
33.125
20
76.5762
30
0
0
VERTEX
8
0
10
25.125
20
76.5762
30
0
42
0.198912367379658
0
VERTEX
8
0
10
25.07111875
20
76.55388125
30
0
0
VERTEX
8
0
10
23.94611875
20
75.42888125
30
0
42
0.198912367379658
0
VERTEX
8
0
10
23.9238
20
75.375
30
0
0
VERTEX
8
0
10
23.9238
20
74.651453125
30
0
0
VERTEX
8
0
10
23.213071875
20
73.7512
30
0
0
VERTEX
8
0
10
22.286228125
20
73.7512
30
0
0
VERTEX
8
0
10
21.4512
20
74.777090625
30
0
0
VERTEX
8
0
10
21.4512
20
75.5
30
0
42
0.198912367379658
0
VERTEX
8
0
10
21.42888125
20
75.55388125
30
0
0
VERTEX
8
0
10
20.80388125
20
76.17888125
30
0
42
0.198912367379658
0
VERTEX
8
0
10
20.75
20
76.2012
30
0
0
VERTEX
8
0
10
16.375
20
76.2012
30
0
42
0.198912367379658
0
VERTEX
8
0
10
16.32111875
20
76.17888125
30
0
0
VERTEX
8
0
10
15.2184375
20
75.0762
30
0
0
VERTEX
8
0
10
15.15
20
75.0762
30
0
42
0.8710665068920351
0
VERTEX
8
0
10
15.12929375
20
74.92666875
30
0
0
VERTEX
8
0
10
15.15
20
74.9238
30
0
0
VERTEX
8
0
10
15.25
20
74.9238
30
0
42
0.198912367379658
0
VERTEX
8
0
10
15.30388125
20
74.94611875
30
0
0
VERTEX
8
0
10
16.4065625
20
76.0488
30
0
0
VERTEX
8
0
10
20.7184375
20
76.0488
30
0
0
VERTEX
8
0
10
21.2988
20
75.46843750000001
30
0
0
VERTEX
8
0
10
21.2988
20
74.75
30
0
42
0.1724809719222344
0
VERTEX
8
0
10
21.315903125000002
20
74.701896875
30
0
0
VERTEX
8
0
10
22.190903125000002
20
73.626896875
30
0
42
0.22561384446309662
0
VERTEX
8
0
10
22.25
20
73.5988
30
0
0
VERTEX
8
0
10
23.25
20
73.5988
30
0
42
0.2295412641712697
0
VERTEX
8
0
10
23.309809375
20
73.627784375
30
0
0
VERTEX
8
0
10
24.059809375
20
74.57778437500001
30
0
42
0.16863831790945907
0
VERTEX
8
0
10
24.0762
20
74.625
30
0
0
VERTEX
8
0
10
24.0762
20
75.34343750000001
30
0
0
VERTEX
8
0
10
25.1565625
20
76.4238
30
0
0
VERTEX
8
0
10
33.0934375
20
76.4238
30
0
0
VERTEX
8
0
10
34.0488
20
75.46843750000001
30
0
0
VERTEX
8
0
10
34.0488
20
74.5315625
30
0
0
VERTEX
8
0
10
19.5934375
20
60.0762
30
0
0
VERTEX
8
0
10
19.25
20
60.0762
30
0
42
0.17313399908712984
0
VERTEX
8
0
10
19.201746875
20
60.058975000000004
30
0
0
VERTEX
8
0
10
19.091746875000002
20
59.968975
30
0
0
VERTEX
8
0
10
19.077040625000002
20
59.952928125
30
0
0
VERTEX
8
0
10
19.067475
20
59.933375000000005
30
0
0
VERTEX
8
0
10
19.063825
20
59.911915625000006
30
0
0
VERTEX
8
0
10
19.066390625
20
59.8903
30
0
0
VERTEX
8
0
10
19.0749625
20
59.87029375
30
0
0
VERTEX
8
0
10
19.088843750000002
20
59.853525000000005
30
0
0
VERTEX
8
0
10
19.106896875
20
59.841365625
30
0
0
VERTEX
8
0
10
19.127653125000002
20
59.83480625
30
0
0
VERTEX
8
0
10
19.149415625
20
59.834384375000006
30
0
0
SEQEND
0
POLYLINE
66
1
8
16_copper
10
0.0
20
0.0
30
0.0
70
1
0
VERTEX
8
0
10
4.00193125
20
57.2988
30
0
0
VERTEX
8
0
10
5.375
20
57.2988
30
0
42
0.198912367379658
0
VERTEX
8
0
10
5.42888125
20
57.321118750000004
30
0
0
VERTEX
8
0
10
7.928881250000001
20
59.821118750000004
30
0
42
0.198912367379658
0
VERTEX
8
0
10
7.9512
20
59.875
30
0
0
VERTEX
8
0
10
7.9512
20
65.21843750000001
30
0
0
VERTEX
8
0
10
17.6565625
20
74.9238
30
0
0
VERTEX
8
0
10
17.69
20
74.9238
30
0
0
VERTEX
8
0
10
17.71154375
20
74.92690937500001
30
0
42
0.7522484879196556
0
VERTEX
8
0
10
17.71070625
20
75.07333125000001
30
0
0
VERTEX
8
0
10
17.69
20
75.0762
30
0
42
0.39121528745440093
0
VERTEX
8
0
10
17.57111875
20
75.05388125
30
0
0
VERTEX
8
0
10
7.82111875
20
65.30388125
30
0
42
0.198912367379658
0
VERTEX
8
0
10
7.7988
20
65.25
30
0
0
VERTEX
8
0
10
7.7988
20
59.9065625
30
0
0
VERTEX
8
0
10
5.3434375
20
57.4512
30
0
0
VERTEX
8
0
10
4
20
57.4512
30
0
42
0.012493320762835198
0
VERTEX
8
0
10
3.99619375
20
57.45110625
30
0
0
VERTEX
8
0
10
3.89619375
20
57.44610625
30
0
0
VERTEX
8
0
10
3.8748343750000003
20
57.441925000000005
30
0
0
VERTEX
8
0
10
3.855525
20
57.431875000000005
30
0
0
VERTEX
8
0
10
3.839846875
20
57.416775
30
0
0
VERTEX
8
0
10
3.829075
20
57.397859375
30
0
0
VERTEX
8
0
10
3.8240937500000003
20
57.37666875
30
0
0
VERTEX
8
0
10
3.825303125
20
57.354937500000005
30
0
0
VERTEX
8
0
10
3.832609375
20
57.33443125
30
0
0
VERTEX
8
0
10
3.8454156250000002
20
57.31683125
30
0
0
VERTEX
8
0
10
3.8626750000000003
20
57.303568750000004
30
0
0
VERTEX
8
0
10
3.8829812500000003
20
57.295725000000004
30
0
0
VERTEX
8
0
10
3.90380625
20
57.29389375
30
0
0
SEQEND
0
POLYLINE
66
1
8
16_copper
10
0.0
20
0.0
30
0.0
70
1
0
VERTEX
8
0
10
3.9317156250000003
20
52.220715625000004
30
0
0
VERTEX
8
0
10
3.9493500000000004
20
52.231940625
30
0
0
VERTEX
8
0
10
4.028009375
20
52.2988
30
0
0
VERTEX
8
0
10
5.375
20
52.2988
30
0
42
0.198912367379658
0
VERTEX
8
0
10
5.42888125
20
52.321118750000004
30
0
0
VERTEX
8
0
10
15.653881250000001
20
62.546118750000005
30
0
42
0.198912367379658
0
VERTEX
8
0
10
15.676200000000001
20
62.6
30
0
0
VERTEX
8
0
10
15.676200000000001
20
70.4434375
30
0
0
VERTEX
8
0
10
20.1565625
20
74.9238
30
0
0
VERTEX
8
0
10
20.23
20
74.9238
30
0
42
0.9999999999999999
0
VERTEX
8
0
10
20.23
20
75.0762
30
0
0
VERTEX
8
0
10
20.125
20
75.0762
30
0
42
0.198912367379658
0
VERTEX
8
0
10
20.07111875
20
75.05388125
30
0
0
VERTEX
8
0
10
15.546118750000002
20
70.52888125
30
0
42
0.198912367379658
0
VERTEX
8
0
10
15.523800000000001
20
70.47500000000001
30
0
0
VERTEX
8
0
10
15.523800000000001
20
62.6315625
30
0
0
VERTEX
8
0
10
5.3434375
20
52.4512
30
0
0
VERTEX
8
0
10
4
20
52.4512
30
0
42
0.17796627753339003
0
VERTEX
8
0
10
3.95065
20
52.433059375
30
0
0
VERTEX
8
0
10
3.8506500000000004
20
52.348059375000005
30
0
0
VERTEX
8
0
10
3.836246875
20
52.3317375
30
0
0
VERTEX
8
0
10
3.827046875
20
52.312009375
30
0
0
VERTEX
8
0
10
3.8238000000000003
20
52.290487500000005
30
0
0
VERTEX
8
0
10
3.8267718750000004
20
52.268921875000004
30
0
0
VERTEX
8
0
10
3.8357187500000003
20
52.24908125
30
0
0
VERTEX
8
0
10
3.8499125000000003
20
52.232575000000004
30
0
0
VERTEX
8
0
10
3.868190625
20
52.22075625
30
0
0
VERTEX
8
0
10
3.889065625
20
52.2145875
30
0
0
VERTEX
8
0
10
3.9108343750000003
20
52.214575
30
0
0
SEQEND
0
POLYLINE
66
1
8
16_copper
10
0.0
20
0.0
30
0.0
70
1
0
VERTEX
8
0
10
4.758428125
20
51.175015625
30
0
42
0.16997656369761122
0
VERTEX
8
0
10
4.80388125
20
51.196118750000004
30
0
0
VERTEX
8
0
10
16.02888125
20
62.421118750000005
30
0
42
0.198912367379658
0
VERTEX
8
0
10
16.0512
20
62.475
30
0
0
VERTEX
8
0
10
16.0512
20
65.6934375
30
0
0
VERTEX
8
0
10
25.2815625
20
74.9238
30
0
0
VERTEX
8
0
10
25.310000000000002
20
74.9238
30
0
0
VERTEX
8
0
10
25.33154375
20
74.92690937500001
30
0
42
0.7522484879196556
0
VERTEX
8
0
10
25.330706250000002
20
75.07333125000001
30
0
0
VERTEX
8
0
10
25.310000000000002
20
75.0762
30
0
42
0.37994900387133623
0
VERTEX
8
0
10
25.19611875
20
75.05388125
30
0
0
VERTEX
8
0
10
15.921118750000002
20
65.77888125
30
0
42
0.198912367379658
0
VERTEX
8
0
10
15.898800000000001
20
65.72500000000001
30
0
0
VERTEX
8
0
10
15.898800000000001
20
62.5065625
30
0
0
VERTEX
8
0
10
4.7184375
20
51.3262
30
0
0
VERTEX
8
0
10
3.5315625
20
51.3262
30
0
0
VERTEX
8
0
10
2.9512
20
51.9065625
30
0
0
VERTEX
8
0
10
2.9512
20
52.7184375
30
0
0
VERTEX
8
0
10
3.9288812500000003
20
53.696118750000004
30
0
42
0.198912367379658
0
VERTEX
8
0
10
3.9512
20
53.75
30
0
0
VERTEX
8
0
10
3.9512
20
54.738371875000006
30
0
0
VERTEX
8
0
10
3.9727312500000003
20
54.807271875000005
30
0
42
0.9999999999999999
0
VERTEX
8
0
10
3.82726875
20
54.852728125000006
30
0
0
VERTEX
8
0
10
3.80226875
20
54.772728125
30
0
42
0.07586504047834744
0
VERTEX
8
0
10
3.7988000000000004
20
54.75
30
0
0
VERTEX
8
0
10
3.7988000000000004
20
53.7815625
30
0
0
VERTEX
8
0
10
2.82111875
20
52.80388125
30
0
42
0.198912367379658
0
VERTEX
8
0
10
2.7988
20
52.75
30
0
0
VERTEX
8
0
10
2.7988
20
51.875
30
0
42
0.198912367379658
0
VERTEX
8
0
10
2.82111875
20
51.821118750000004
30
0
0
VERTEX
8
0
10
3.44611875
20
51.196118750000004
30
0
42
0.198912367379658
0
VERTEX
8
0
10
3.5
20
51.1738
30
0
0
VERTEX
8
0
10
4.75
20
51.1738
30
0
0
SEQEND
0
POLYLINE
66
1
8
16_copper
10
0.0
20
0.0
30
0.0
70
1
0
VERTEX
8
0
10
19.16500625
20
44.598021875
30
0
42
0.3712141267633864
0
VERTEX
8
0
10
19.21489375
20
44.68404375
30
0
0
VERTEX
8
0
10
19.2012
20
44.757078125
30
0
0
VERTEX
8
0
10
19.2012
20
45.625
30
0
42
0.198912367379658
0
VERTEX
8
0
10
19.17888125
20
45.67888125
30
0
0
VERTEX
8
0
10
17.4512
20
47.4065625
30
0
0
VERTEX
8
0
10
17.4512
20
64.59343750000001
30
0
0
VERTEX
8
0
10
27.7815625
20
74.9238
30
0
0
VERTEX
8
0
10
27.85
20
74.9238
30
0
42
0.9999999999999999
0
VERTEX
8
0
10
27.85
20
75.0762
30
0
0
VERTEX
8
0
10
27.75
20
75.0762
30
0
42
0.198912367379658
0
VERTEX
8
0
10
27.69611875
20
75.05388125
30
0
0
VERTEX
8
0
10
17.32111875
20
64.67888125
30
0
42
0.198912367379658
0
VERTEX
8
0
10
17.2988
20
64.625
30
0
0
VERTEX
8
0
10
17.2988
20
47.375
30
0
42
0.198912367379658
0
VERTEX
8
0
10
17.32111875
20
47.321118750000004
30
0
0
VERTEX
8
0
10
19.0488
20
45.5934375
30
0
0
VERTEX
8
0
10
19.0488
20
44.75
30
0
42
0.04637396669537732
0
VERTEX
8
0
10
19.050106250000002
20
44.73595625
30
0
0
VERTEX
8
0
10
19.06510625
20
44.65595625
30
0
0
VERTEX
8
0
10
19.07213125
20
44.63535625
30
0
0
VERTEX
8
0
10
19.084696875000002
20
44.61758125
30
0
0
VERTEX
8
0
10
19.101771875
20
44.60408125
30
0
0
VERTEX
8
0
10
19.12196875
20
44.595965625000005
30
0
0
VERTEX
8
0
10
19.1436375
20
44.5938875
30
0
0
SEQEND
0
POLYLINE
66
1
8
16_copper
10
0.0
20
0.0
30
0.0
70
1
0
VERTEX
8
0
10
19.508428125000002
20
43.550015625
30
0
42
0.16997656369761122
0
VERTEX
8
0
10
19.55388125
20
43.571118750000004
30
0
0
VERTEX
8
0
10
20.17888125
20
44.196118750000004
30
0
42
0.198912367379658
0
VERTEX
8
0
10
20.2012
20
44.25
30
0
0
VERTEX
8
0
10
20.2012
20
45.125
30
0
42
0.198912367379658
0
VERTEX
8
0
10
20.17888125
20
45.17888125
30
0
0
VERTEX
8
0
10
19.3262
20
46.0315625
30
0
0
VERTEX
8
0
10
19.3262
20
47.125
30
0
42
0.23227191848739792
0
VERTEX
8
0
10
19.29659375
20
47.185296875
30
0
0
VERTEX
8
0
10
19.18659375
20
47.270296875
30
0
42
0.9999999999999999
0
VERTEX
8
0
10
19.09340625
20
47.149703125
30
0
0
VERTEX
8
0
10
19.1738
20
47.08758125
30
0
0
VERTEX
8
0
10
19.1738
20
46
30
0
42
0.198912367379658
0
VERTEX
8
0
10
19.19611875
20
45.946118750000004
30
0
0
VERTEX
8
0
10
20.0488
20
45.0934375
30
0
0
VERTEX
8
0
10
20.0488
20
44.2815625
30
0
0
VERTEX
8
0
10
19.4684375
20
43.7012
30
0
0
VERTEX
8
0
10
18.783934375
20
43.7012
30
0
0
VERTEX
8
0
10
17.0262
20
45.6542375
30
0
0
VERTEX
8
0
10
17.0262
20
64.718890625
30
0
0
VERTEX
8
0
10
26.67943125
20
74.571671875
30
0
42
0.19625331708614407
0
VERTEX
8
0
10
26.7012
20
74.625
30
0
0
VERTEX
8
0
10
26.7012
20
75.34343750000001
30
0
0
VERTEX
8
0
10
27.4065625
20
76.0488
30
0
0
VERTEX
8
0
10
29.2184375
20
76.0488
30
0
0
VERTEX
8
0
10
30.32111875
20
74.94611875
30
0
42
0.9156586675496556
0
VERTEX
8
0
10
30.447171875000002
20
75.05037812500001
30
0
0
VERTEX
8
0
10
30.430596875000003
20
75.0644875
30
0
42
0.06908528676628728
0
VERTEX
8
0
10
30.409225000000003
20
75.0735375
30
0
0
VERTEX
8
0
10
29.30388125
20
76.17888125
30
0
42
0.198912367379658
0
VERTEX
8
0
10
29.25
20
76.2012
30
0
0
VERTEX
8
0
10
27.375
20
76.2012
30
0
42
0.198912367379658
0
VERTEX
8
0
10
27.32111875
20
76.17888125
30
0
0
VERTEX
8
0
10
26.57111875
20
75.42888125
30
0
42
0.198912367379658
0
VERTEX
8
0
10
26.5488
20
75.375
30
0
0
VERTEX
8
0
10
26.5488
20
74.656109375
30
0
0
VERTEX
8
0
10
16.895568750000002
20
64.80332812500001
30
0
42
0.19625331708614407
0
VERTEX
8
0
10
16.8738
20
64.75
30
0
0
VERTEX
8
0
10
16.8738
20
45.625
30
0
42
0.18528448587410176
0
VERTEX
8
0
10
16.893362500000002
20
45.574025
30
0
0
VERTEX
8
0
10
18.6933625
20
43.574025
30
0
42
0.21261169312209477
0
VERTEX
8
0
10
18.75
20
43.5488
30
0
0
VERTEX
8
0
10
19.5
20
43.5488
30
0
0
SEQEND
0
POLYLINE
66
1
8
16_copper
10
0.0
20
0.0
30
0.0
70
1
0
VERTEX
8
0
10
19.16154375
20
49.676909375
30
0
42
0.43253507988533924
0
VERTEX
8
0
10
19.2012
20
49.794215625
30
0
0
VERTEX
8
0
10
19.2012
20
50.875
30
0
42
0.198912367379658
0
VERTEX
8
0
10
19.17888125
20
50.92888125
30
0
0
VERTEX
8
0
10
17.8262
20
52.2815625
30
0
0
VERTEX
8
0
10
17.8262
20
59.9684375
30
0
0
VERTEX
8
0
10
32.7815625
20
74.9238
30
0
0
VERTEX
8
0
10
32.93
20
74.9238
30
0
42
0.9999999999999999
0
VERTEX
8
0
10
32.93
20
75.0762
30
0
0
VERTEX
8
0
10
32.75
20
75.0762
30
0
42
0.198912367379658
0
VERTEX
8
0
10
32.696118750000004
20
75.05388125
30
0
0
VERTEX
8
0
10
17.69611875
20
60.05388125
30
0
42
0.198912367379658
0
VERTEX
8
0
10
17.6738
20
60
30
0
0
VERTEX
8
0
10
17.6738
20
52.25
30
0
42
0.198912367379658
0
VERTEX
8
0
10
17.69611875
20
52.196118750000004
30
0
0
VERTEX
8
0
10
19.0488
20
50.8434375
30
0
0
VERTEX
8
0
10
19.0488
20
49.75
30
0
0
VERTEX
8
0
10
19.049612500000002
20
49.74438125
30
0
0
VERTEX
8
0
10
19.04964375
20
49.738684375000005
30
0
0
VERTEX
8
0
10
19.051159375
20
49.733646875000005
30
0
0
VERTEX
8
0
10
19.051909375
20
49.72845625
30
0
0
VERTEX
8
0
10
19.054278125
20
49.723287500000005
30
0
0
VERTEX
8
0
10
19.05591875
20
49.717840625
30
0
0
VERTEX
8
0
10
19.058790625
20
49.713446875
30
0
0
VERTEX
8
0
10
19.06098125
20
49.70866875
30
0
0
VERTEX
8
0
10
19.06471875
20
49.704378125000005
30
0
0
VERTEX
8
0
10
19.067828125000002
20
49.699621875000005
30
0
0
VERTEX
8
0
10
19.071828125
20
49.69621875
30
0
0
VERTEX
8
0
10
19.075278125
20
49.69225625
30
0
0
VERTEX
8
0
10
19.080065625
20
49.689206250000005
30
0
0
VERTEX
8
0
10
19.084403125
20
49.6855125
30
0
0
VERTEX
8
0
10
19.089215625
20
49.683371875
30
0
0
VERTEX
8
0
10
19.093634375
20
49.68055625
30
0
0
VERTEX
8
0
10
19.099096875
20
49.678978125
30
0
0
VERTEX
8
0
10
19.10429375
20
49.676668750000005
30
0
0
VERTEX
8
0
10
19.1096875
20
49.675921875
30
0
0
VERTEX
8
0
10
19.114546875000002
20
49.674518750000004
30
0
0
VERTEX
8
0
10
19.119603125
20
49.674546875000004
30
0
0
VERTEX
8
0
10
19.125
20
49.6738
30
0
0
VERTEX
8
0
10
19.14
20
49.6738
30
0
0
SEQEND
0
POLYLINE
66
1
8
16_copper
10
0.0
20
0.0
30
0.0
70
1
0
VERTEX
8
0
10
36.883428125
20
46.050015625
30
0
42
0.16997656369761122
0
VERTEX
8
0
10
36.92888125
20
46.071118750000004
30
0
0
VERTEX
8
0
10
37.42888125
20
46.571118750000004
30
0
42
0.198912367379658
0
VERTEX
8
0
10
37.4512
20
46.625
30
0
0
VERTEX
8
0
10
37.4512
20
72.71843750000001
30
0
0
VERTEX
8
0
10
39.30388125
20
74.57111875
30
0
42
0.198912367379658
0
VERTEX
8
0
10
39.3262
20
74.625
30
0
0
VERTEX
8
0
10
39.3262
20
75.375
30
0
42
0.198912367379658
0
VERTEX
8
0
10
39.30388125
20
75.42888125
30
0
0
VERTEX
8
0
10
38.55388125
20
76.17888125
30
0
42
0.198912367379658
0
VERTEX
8
0
10
38.5
20
76.2012
30
0
0
VERTEX
8
0
10
36.625
20
76.2012
30
0
42
0.198912367379658
0
VERTEX
8
0
10
36.571118750000004
20
76.17888125
30
0
0
VERTEX
8
0
10
35.468175
20
75.07593750000001
30
0
42
0.16609909411595927
0
VERTEX
8
0
10
35.41225625
20
75.049721875
30
0
0
VERTEX
8
0
10
35.40055625
20
75.031365625
30
0
42
0.2183580728176565
0
VERTEX
8
0
10
35.40091875
20
74.96784062500001
30
0
0
VERTEX
8
0
10
35.412828125000004
20
74.949621875
30
0
42
0.4930133170860604
0
VERTEX
8
0
10
35.55388125
20
74.94611875
30
0
0
VERTEX
8
0
10
36.6565625
20
76.0488
30
0
0
VERTEX
8
0
10
38.4684375
20
76.0488
30
0
0
VERTEX
8
0
10
39.1738
20
75.34343750000001
30
0
0
VERTEX
8
0
10
39.1738
20
74.6565625
30
0
0
VERTEX
8
0
10
37.321118750000004
20
72.80388125
30
0
42
0.198912367379658
0
VERTEX
8
0
10
37.2988
20
72.75
30
0
0
VERTEX
8
0
10
37.2988
20
46.6565625
30
0
0
VERTEX
8
0
10
36.8434375
20
46.2012
30
0
0
VERTEX
8
0
10
35.4065625
20
46.2012
30
0
0
VERTEX
8
0
10
35.3262
20
46.2815625
30
0
0
VERTEX
8
0
10
35.3262
20
46.75
30
0
42
0.198912367379658
0
VERTEX
8
0
10
35.30388125
20
46.80388125
30
0
0
VERTEX
8
0
10
29.80388125
20
52.30388125
30
0
42
0.198912367379658
0
VERTEX
8
0
10
29.75
20
52.3262
30
0
0
VERTEX
8
0
10
19.263425
20
52.3262
30
0
0
VERTEX
8
0
10
19.166040625
20
52.3616125
30
0
42
0.9999999999999999
0
VERTEX
8
0
10
19.113959375
20
52.218387500000006
30
0
0
VERTEX
8
0
10
19.223959375
20
52.1783875
30
0
42
0.08741350545981154
0
VERTEX
8
0
10
19.25
20
52.1738
30
0
0
VERTEX
8
0
10
29.7184375
20
52.1738
30
0
0
VERTEX
8
0
10
35.1738
20
46.7184375
30
0
0
VERTEX
8
0
10
35.1738
20
46.25
30
0
42
0.198912367379658
0
VERTEX
8
0
10
35.196118750000004
20
46.196118750000004
30
0
0
VERTEX
8
0
10
35.321118750000004
20
46.071118750000004
30
0
42
0.198912367379658
0
VERTEX
8
0
10
35.375
20
46.0488
30
0
0
VERTEX
8
0
10
36.875
20
46.0488
30
0
0
SEQEND
0
POLYLINE
66
1
8
16_copper
10
0.0
20
0.0
30
0.0
70
1
0
VERTEX
8
0
10
19.168853125000002
20
54.759471875
30
0
0
VERTEX
8
0
10
19.278853125
20
54.804471875000004
30
0
42
0.3045405851333444
0
VERTEX
8
0
10
19.3262
20
54.875
30
0
0
VERTEX
8
0
10
19.3262
20
55.9684375
30
0
0
VERTEX
8
0
10
38.05388125
20
74.69611875
30
0
42
0.198912367379658
0
VERTEX
8
0
10
38.0762
20
74.75
30
0
0
VERTEX
8
0
10
38.0762
20
74.96354375
30
0
42
0.976955178689596
0
VERTEX
8
0
10
37.933371875
20
75.035784375
30
0
0
VERTEX
8
0
10
37.93055625
20
75.031365625
30
0
42
0.1064598389289247
0
VERTEX
8
0
10
37.9238
20
75
30
0
0
VERTEX
8
0
10
37.9238
20
74.7815625
30
0
0
VERTEX
8
0
10
19.19611875
20
56.05388125
30
0
42
0.198912367379658
0
VERTEX
8
0
10
19.1738
20
56
30
0
0
VERTEX
8
0
10
19.1738
20
54.926159375000005
30
0
0
VERTEX
8
0
10
19.111146875
20
54.900528125
30
0
0
VERTEX
8
0
10
19.092384375
20
54.889490625
30
0
0
VERTEX
8
0
10
19.077509375
20
54.873603125
30
0
0
VERTEX
8
0
10
19.06773125
20
54.85415625
30
0
0
VERTEX
8
0
10
19.063850000000002
20
54.8327375
30
0
0
VERTEX
8
0
10
19.06618125
20
54.811093750000005
30
0
0
VERTEX
8
0
10
19.074540625
20
54.790996875000005
30
0
0
VERTEX
8
0
10
19.0882375
20
54.774078125
30
0
0
VERTEX
8
0
10
19.106159375
20
54.761725000000006
30
0
0
VERTEX
8
0
10
19.126843750000003
20
54.75494375
30
0
0
VERTEX
8
0
10
19.148600000000002
20
54.754287500000004
30
0
0
SEQEND
0
POLYLINE
66
1
8
1_copper
10
0.0
20
0.0
30
0.0
70
1
0
VERTEX
8
0
10
35.4652
20
37.600203125
30
0
0
VERTEX
8
0
10
35.4652
20
38.399796875
30
0
0
VERTEX
8
0
10
34.899796875
20
38.9652
30
0
0
VERTEX
8
0
10
34.100203125
20
38.9652
30
0
0
VERTEX
8
0
10
33.534800000000004
20
38.399796875
30
0
0
VERTEX
8
0
10
33.534800000000004
20
37.600203125
30
0
0
VERTEX
8
0
10
34.100203125
20
37.034800000000004
30
0
0
VERTEX
8
0
10
34.899796875
20
37.034800000000004
30
0
0
SEQEND
0
POLYLINE
66
1
8
1_copper
10
0.0
20
0.0
30
0.0
70
1
0
VERTEX
8
0
10
13.6904
20
4.60645625
30
0
0
VERTEX
8
0
10
13.6904
20
5.15354375
30
0
0
VERTEX
8
0
10
13.303543750000001
20
5.5404
30
0
0
VERTEX
8
0
10
12.756456250000001
20
5.5404
30
0
0
VERTEX
8
0
10
12.3696
20
5.15354375
30
0
0
VERTEX
8
0
10
12.3696
20
4.60645625
30
0
0
VERTEX
8
0
10
12.756456250000001
20
4.2196
30
0
0
VERTEX
8
0
10
13.303543750000001
20
4.2196
30
0
0
SEQEND
0
POLYLINE
66
1
8
16_copper
10
0.0
20
0.0
30
0.0
70
1
0
VERTEX
8
0
10
34.3476
20
41.036875
30
0
0
VERTEX
8
0
10
34.3476
20
38.9652
30
0
0
VERTEX
8
0
10
34.100203125
20
38.9652
30
0
0
VERTEX
8
0
10
33.534800000000004
20
38.399796875
30
0
0
VERTEX
8
0
10
33.534800000000004
20
37.600203125
30
0
0
VERTEX
8
0
10
34.100203125
20
37.034800000000004
30
0
0
VERTEX
8
0
10
34.3476
20
37.034800000000004
30
0
0
VERTEX
8
0
10
34.3476
20
19.963125
30
0
0
VERTEX
8
0
10
17.536875000000002
20
3.1524
30
0
0
VERTEX
8
0
10
7.2631250000000005
20
3.1524
30
0
0
VERTEX
8
0
10
2.5524
20
7.863125
30
0
0
VERTEX
8
0
10
2.5524
20
39.4476
30
0
0
VERTEX
8
0
10
3.82069375
20
39.4476
30
0
42
0.5057240070985465
0
VERTEX
8
0
10
3.9635562500000003
20
39.451484375
30
0
0
VERTEX
8
0
10
3.990128125
20
39.46710625
30
0
42
0.719923402285643
0
VERTEX
8
0
10
3.89
20
39.7524
30
0
0
VERTEX
8
0
10
2.4631250000000002
20
39.7524
30
0
0
VERTEX
8
0
10
1.7524000000000002
20
40.463125000000005
30
0
0
VERTEX
8
0
10
1.7524000000000002
20
65.7631875
30
0
0
VERTEX
8
0
10
5.7761625
20
69.78695
30
0
42
0.198912367379658
0
VERTEX
8
0
10
5.8208
20
69.8947125
30
0
0
VERTEX
8
0
10
5.8208
20
72.1052875
30
0
42
0.198912367379658
0
VERTEX
8
0
10
5.7761625
20
72.21305000000001
30
0
0
VERTEX
8
0
10
5.247496875
20
72.741715625
30
0
0
VERTEX
8
0
10
5.247496875
20
74.64281875
30
0
0
VERTEX
8
0
10
5.32146875
20
74.57076875
30
0
0
VERTEX
8
0
10
5.57111875
20
74.32111875
30
0
42
0.9999999999999999
0
VERTEX
8
0
10
5.67888125
20
74.42888125
30
0
0
VERTEX
8
0
10
5.247496875
20
74.860265625
30
0
42
0.25222161909418195
0
VERTEX
8
0
10
5.20634375
20
75.00081875000001
30
0
0
VERTEX
8
0
10
6.653125
20
76.44760000000001
30
0
0
VERTEX
8
0
10
12.462946875
20
76.44760000000001
30
0
42
0.06266349274121959
0
VERTEX
8
0
10
12.457600000000001
20
76.41
30
0
0
VERTEX
8
0
10
12.457600000000001
20
75
30
0
42
0.9499505787532484
0
VERTEX
8
0
10
12.761596875
20
74.984384375
30
0
0
VERTEX
8
0
10
12.762400000000001
20
75
30
0
0
VERTEX
8
0
10
12.762400000000001
20
76.346875
30
0
0
VERTEX
8
0
10
12.863125
20
76.44760000000001
30
0
0
VERTEX
8
0
10
21.106875000000002
20
76.44760000000001
30
0
0
VERTEX
8
0
10
22.478275
20
75.0762
30
0
0
VERTEX
8
0
10
22.375
20
75.0762
30
0
42
0.8710665068920351
0
VERTEX
8
0
10
22.35429375
20
74.92666875
30
0
0
VERTEX
8
0
10
22.375
20
74.9238
30
0
0
VERTEX
8
0
10
22.630675
20
74.9238
30
0
42
0.989894502335645
0
VERTEX
8
0
10
22.905165625000002
20
75.070396875
30
0
0
VERTEX
8
0
10
22.888237500000002
20
75.09615625
30
0
0
VERTEX
8
0
10
22.8777625
20
75.1077625
30
0
0
VERTEX
8
0
10
21.2777625
20
76.7077625
30
0
42
0.198912367379658
0
VERTEX
8
0
10
21.17
20
76.75240000000001
30
0
0
VERTEX
8
0
10
6.590000000000001
20
76.75240000000001
30
0
42
0.198912367379658
0
VERTEX
8
0
10
6.4822375
20
76.7077625
30
0
0
VERTEX
8
0
10
4.8822375000000005
20
75.1077625
30
0
42
0.5594084114521246
0
VERTEX
8
0
10
4.942696875
20
74.85534375
30
0
0
VERTEX
8
0
10
4.942696875
20
72.678590625
30
0
42
0.198912367379658
0
VERTEX
8
0
10
4.9873343750000005
20
72.570828125
30
0
0
VERTEX
8
0
10
5.516
20
72.0421625
30
0
0
VERTEX
8
0
10
5.516
20
69.9578375
30
0
0
VERTEX
8
0
10
1.4922375
20
65.934075
30
0
42
0.198912367379658
0
VERTEX
8
0
10
1.4476
20
65.8263125
30
0
0
VERTEX
8
0
10
1.4476
20
40.4
30
0
42
0.198912367379658
0
VERTEX
8
0
10
1.4922375
20
40.2922375
30
0
0
VERTEX
8
0
10
2.2476000000000003
20
39.536875
30
0
0
VERTEX
8
0
10
2.2476000000000003
20
7.800000000000001
30
0
42
0.198912367379658
0
VERTEX
8
0
10
2.2922375
20
7.6922375
30
0
0
VERTEX
8
0
10
7.0922375
20
2.8922375000000002
30
0
42
0.198912367379658
0
VERTEX
8
0
10
7.2
20
2.8476000000000004
30
0
0
VERTEX
8
0
10
17.6
20
2.8476000000000004
30
0
42
0.198912367379658
0
VERTEX
8
0
10
17.7077625
20
2.8922375000000002
30
0
0
VERTEX
8
0
10
34.6077625
20
19.792237500000002
30
0
42
0.198912367379658
0
VERTEX
8
0
10
34.6524
20
19.900000000000002
30
0
0
VERTEX
8
0
10
34.6524
20
37.034800000000004
30
0
0
VERTEX
8
0
10
34.899796875
20
37.034800000000004
30
0
0
VERTEX
8
0
10
35.4652
20
37.600203125
30
0
0
VERTEX
8
0
10
35.4652
20
38.399796875
30
0
0
VERTEX
8
0
10
34.899796875
20
38.9652
30
0
0
VERTEX
8
0
10
34.6524
20
38.9652
30
0
0
VERTEX
8
0
10
34.6524
20
41.1
30
0
42
0.198912367379658
0
VERTEX
8
0
10
34.6077625
20
41.2077625
30
0
0
VERTEX
8
0
10
34.440525
20
41.375
30
0
0
VERTEX
8
0
10
36.2327625
20
43.1672375
30
0
42
0.198912367379658
0
VERTEX
8
0
10
36.2774
20
43.275
30
0
0
VERTEX
8
0
10
36.2774
20
44.5
30
0
42
0.9999999999999999
0
VERTEX
8
0
10
35.9726
20
44.5
30
0
0
VERTEX
8
0
10
35.9726
20
43.338125000000005
30
0
0
VERTEX
8
0
10
34.161875
20
41.5274
30
0
0
VERTEX
8
0
10
31.263125000000002
20
41.5274
30
0
0
VERTEX
8
0
10
31.227400000000003
20
41.563125
30
0
0
VERTEX
8
0
10
31.227400000000003
20
44.5225
30
0
42
0.9999999999999999
0
VERTEX
8
0
10
30.922600000000003
20
44.5225
30
0
0
VERTEX
8
0
10
30.922600000000003
20
41.5274
30
0
0
VERTEX
8
0
10
29.575000000000003
20
41.5274
30
0
42
0.198912367379658
0
VERTEX
8
0
10
29.467237500000003
20
41.4827625
30
0
0
VERTEX
8
0
10
23.292237500000002
20
35.3077625
30
0
42
0.198912367379658
0
VERTEX
8
0
10
23.247600000000002
20
35.2
30
0
0
VERTEX
8
0
10
23.247600000000002
20
23.663125
30
0
0
VERTEX
8
0
10
11.5172375
20
11.9327625
30
0
42
0.198912367379658
0
VERTEX
8
0
10
11.4726
20
11.825000000000001
30
0
0
VERTEX
8
0
10
11.4726
20
11.034571875000001
30
0
42
0.44229726771357347
0
VERTEX
8
0
10
11.503612500000001
20
10.908637500000001
30
0
0
VERTEX
8
0
10
11.5067625
20
10.90384375
30
0
0
VERTEX
8
0
10
11.5172375
20
10.8922375
30
0
0
VERTEX
8
0
10
12.877600000000001
20
9.531875000000001
30
0
0
VERTEX
8
0
10
12.877600000000001
20
5.5404
30
0
0
VERTEX
8
0
10
12.756456250000001
20
5.5404
30
0
0
VERTEX
8
0
10
12.3696
20
5.15354375
30
0
0
VERTEX
8
0
10
12.3696
20
4.60645625
30
0
0
VERTEX
8
0
10
12.496646875000001
20
4.479409375
30
0
0
VERTEX
8
0
10
11.9684375
20
3.9512
30
0
0
VERTEX
8
0
10
7.656562500000001
20
3.9512
30
0
0
VERTEX
8
0
10
7.0762
20
4.531562500000001
30
0
0
VERTEX
8
0
10
7.0762
20
5.2184375
30
0
0
VERTEX
8
0
10
7.553881250000001
20
5.69611875
30
0
42
0.198912367379658
0
VERTEX
8
0
10
7.5762
20
5.75
30
0
0
VERTEX
8
0
10
7.5762
20
10.9684375
30
0
0
VERTEX
8
0
10
10.30388125
20
13.69611875
30
0
42
0.198912367379658
0
VERTEX
8
0
10
10.3262
20
13.75
30
0
0
VERTEX
8
0
10
10.3262
20
29.43
30
0
42
0.9999999999999999
0
VERTEX
8
0
10
10.1738
20
29.43
30
0
0
VERTEX
8
0
10
10.1738
20
13.781562500000001
30
0
0
VERTEX
8
0
10
7.44611875
20
11.05388125
30
0
42
0.198912367379658
0
VERTEX
8
0
10
7.4238
20
11
30
0
0
VERTEX
8
0
10
7.4238
20
5.781562500000001
30
0
0
VERTEX
8
0
10
6.94611875
20
5.30388125
30
0
42
0.198912367379658
0
VERTEX
8
0
10
6.9238
20
5.25
30
0
0
VERTEX
8
0
10
6.9238
20
4.5
30
0
42
0.198912367379658
0
VERTEX
8
0
10
6.94611875
20
4.44611875
30
0
0
VERTEX
8
0
10
7.57111875
20
3.82111875
30
0
42
0.198912367379658
0
VERTEX
8
0
10
7.625
20
3.7988000000000004
30
0
0
VERTEX
8
0
10
12
20
3.7988000000000004
30
0
42
0.198912367379658
0
VERTEX
8
0
10
12.05388125
20
3.82111875
30
0
0
VERTEX
8
0
10
12.604409375000001
20
4.371646875000001
30
0
0
VERTEX
8
0
10
12.756456250000001
20
4.2196
30
0
0
VERTEX
8
0
10
13.303543750000001
20
4.2196
30
0
0
VERTEX
8
0
10
13.6904
20
4.60645625
30
0
0
VERTEX
8
0
10
13.6904
20
5.15354375
30
0
0
VERTEX
8
0
10
13.303543750000001
20
5.5404
30
0
0
VERTEX
8
0
10
13.182400000000001
20
5.5404
30
0
0
VERTEX
8
0
10
13.182400000000001
20
9.595
30
0
42
0.198912367379658
0
VERTEX
8
0
10
13.137762500000001
20
9.7027625
30
0
0
VERTEX
8
0
10
11.7774
20
11.063125000000001
30
0
0
VERTEX
8
0
10
11.7774
20
11.761875
30
0
0
VERTEX
8
0
10
23.507762500000002
20
23.4922375
30
0
42
0.198912367379658
0
VERTEX
8
0
10
23.552400000000002
20
23.6
30
0
0
VERTEX
8
0
10
23.552400000000002
20
35.136875
30
0
0
VERTEX
8
0
10
29.638125000000002
20
41.2226
30
0
0
VERTEX
8
0
10
34.161875
20
41.2226
30
0
0
SEQEND
0
POLYLINE
66
1
8
1_copper
10
0.0
20
0.0
30
0.0
70
1
0
VERTEX
8
0
10
29.189
20
47.7165
30
0
0
VERTEX
8
0
10
27.881
20
47.7165
30
0
0
VERTEX
8
0
10
27.881
20
46.408500000000004
30
0
0
VERTEX
8
0
10
29.189
20
46.408500000000004
30
0
0
SEQEND
0
POLYLINE
66
1
8
1_copper
10
0.0
20
0.0
30
0.0
70
1
0
VERTEX
8
0
10
29.965200000000003
20
37.600203125
30
0
0
VERTEX
8
0
10
29.965200000000003
20
38.399796875
30
0
0
VERTEX
8
0
10
29.399796875
20
38.9652
30
0
0
VERTEX
8
0
10
28.600203125
20
38.9652
30
0
0
VERTEX
8
0
10
28.0348
20
38.399796875
30
0
0
VERTEX
8
0
10
28.0348
20
37.600203125
30
0
0
VERTEX
8
0
10
28.600203125
20
37.034800000000004
30
0
0
VERTEX
8
0
10
29.399796875
20
37.034800000000004
30
0
0
SEQEND
0
POLYLINE
66
1
8
16_copper
10
0.0
20
0.0
30
0.0
70
1
0
VERTEX
8
0
10
1.1779
20
72.790159375
30
0
42
0.1827255711104525
0
VERTEX
8
0
10
1.276159375
20
72.83431875000001
30
0
0
VERTEX
8
0
10
1.4551375
20
73.0133
30
0
0
VERTEX
8
0
10
2.028859375
20
73.3445375
30
0
0
VERTEX
8
0
10
2.66875625
20
73.515996875
30
0
0
VERTEX
8
0
10
3.331240625
20
73.515996875
30
0
0
VERTEX
8
0
10
3.9711375
20
73.3445375
30
0
0
VERTEX
8
0
10
4.414096875
20
73.08879375000001
30
0
42
0.5773513863628242
0
VERTEX
8
0
10
4.642696875
20
73.220775
30
0
0
VERTEX
8
0
10
4.642696875
20
73.75506250000001
30
0
42
0.30334568164182046
0
VERTEX
8
0
10
4.54861875
20
73.8958625
30
0
0
VERTEX
8
0
10
4.31648125
20
73.99201562500001
30
0
0
VERTEX
8
0
10
3.9820156250000003
20
74.32648125
30
0
0
VERTEX
8
0
10
3.801
20
74.763490625
30
0
0
VERTEX
8
0
10
3.801
20
75.23650625
30
0
0
VERTEX
8
0
10
3.9820156250000003
20
75.67351562500001
30
0
0
VERTEX
8
0
10
4.31648125
20
76.00798125
30
0
0
VERTEX
8
0
10
4.753490625
20
76.188996875
30
0
0
VERTEX
8
0
10
5.226503125000001
20
76.188996875
30
0
0
VERTEX
8
0
10
5.353540625
20
76.136375
30
0
42
0.3033476855734221
0
VERTEX
8
0
10
5.5196250000000004
20
76.1694125
30
0
0
VERTEX
8
0
10
6.074050000000001
20
76.7238375
30
0
42
0.6681786379192989
0
VERTEX
8
0
10
5.9662875
20
76.98400000000001
30
0
0
VERTEX
8
0
10
1.168396875
20
76.98400000000001
30
0
42
0.41421356237309503
0
VERTEX
8
0
10
1.0159968750000001
20
76.83160000000001
30
0
0
VERTEX
8
0
10
1.0159968750000001
20
72.94208125
30
0
0
VERTEX
8
0
10
1.0161906250000001
20
72.94018125000001
30
0
0
VERTEX
8
0
10
1.0160437500000001
20
72.938271875
30
0
0
VERTEX
8
0
10
1.01774375
20
72.924896875
30
0
0
VERTEX
8
0
10
1.0191125
20
72.911415625
30
0
0
VERTEX
8
0
10
1.0196875
20
72.90957812500001
30
0
0
VERTEX
8
0
10
1.019928125
20
72.90769375
30
0
0
VERTEX
8
0
10
1.0242843750000001
20
72.89492187500001
30
0
0
VERTEX
8
0
10
1.0283375000000001
20
72.88200625
30
0
0
VERTEX
8
0
10
1.0292625
20
72.880340625
30
0
0
VERTEX
8
0
10
1.02988125
20
72.87852500000001
30
0
0
VERTEX
8
0
10
1.0367593750000001
20
72.866825
30
0
0
VERTEX
8
0
10
1.043290625
20
72.855053125
30
0
0
VERTEX
8
0
10
1.0445312500000001
20
72.853609375
30
0
0
VERTEX
8
0
10
1.045503125
20
72.85195312500001
30
0
0
VERTEX
8
0
10
1.054565625
20
72.841909375
30
0
0
VERTEX
8
0
10
1.063359375
20
72.831659375
30
0
0
VERTEX
8
0
10
1.064875
20
72.830484375
30
0
0
VERTEX
8
0
10
1.066153125
20
72.82906875
30
0
0
VERTEX
8
0
10
1.077021875
20
72.82107500000001
30
0
0
VERTEX
8
0
10
1.0877281250000002
20
72.81278125
30
0
0
VERTEX
8
0
10
1.0894468750000001
20
72.8119375
30
0
0
VERTEX
8
0
10
1.0909843750000001
20
72.81080625
30
0
0
VERTEX
8
0
10
1.103221875
20
72.805171875
30
0
0
VERTEX
8
0
10
1.11539375
20
72.79919375
30
0
0
VERTEX
8
0
10
1.117253125
20
72.79871250000001
30
0
0
VERTEX
8
0
10
1.11898125
20
72.797915625
30
0
0
VERTEX
8
0
10
1.1321
20
72.794859375
30
0
0
VERTEX
8
0
10
1.145228125
20
72.791453125
30
0
0
VERTEX
8
0
10
1.147140625
20
72.79135625
30
0
0
VERTEX
8
0
10
1.149
20
72.79092187500001
30
0
0
VERTEX
8
0
10
1.1625
20
72.790565625
30
0
0
VERTEX
8
0
10
1.176009375
20
72.789871875
30
0
0
SEQEND
0
POLYLINE
66
1
8
16_copper
10
0.0
20
0.0
30
0.0
70
1
0
VERTEX
8
0
10
23.77985625
20
75.74291562500001
30
0
42
0.20083374518108596
0
VERTEX
8
0
10
23.888806250000002
20
75.795834375
30
0
0
VERTEX
8
0
10
24.8168125
20
76.7238375
30
0
42
0.6681786379192989
0
VERTEX
8
0
10
24.70905
20
76.98400000000001
30
0
0
VERTEX
8
0
10
21.793709375000002
20
76.98400000000001
30
0
42
0.6681786379192989
0
VERTEX
8
0
10
21.685946875000003
20
76.7238375
30
0
0
VERTEX
8
0
10
22.240371875
20
76.1694125
30
0
42
0.3033476855734221
0
VERTEX
8
0
10
22.40645625
20
76.136375
30
0
0
VERTEX
8
0
10
22.53349375
20
76.188996875
30
0
0
VERTEX
8
0
10
23.00650625
20
76.188996875
30
0
0
VERTEX
8
0
10
23.443515625
20
76.00798125
30
0
0
VERTEX
8
0
10
23.664471875
20
75.78702187500001
30
0
0
VERTEX
8
0
10
23.667434375000003
20
75.78460625000001
30
0
0
VERTEX
8
0
10
23.670009375000003
20
75.78175312500001
30
0
0
VERTEX
8
0
10
23.679393750000003
20
75.77485625
30
0
0
VERTEX
8
0
10
23.688359375
20
75.76754375
30
0
0
VERTEX
8
0
10
23.691746875
20
75.765775
30
0
0
VERTEX
8
0
10
23.69484375
20
75.763496875
30
0
0
VERTEX
8
0
10
23.705403125
20
75.7586375
30
0
0
VERTEX
8
0
10
23.715675
20
75.75326875
30
0
0
VERTEX
8
0
10
23.71935625
20
75.752215625
30
0
0
VERTEX
8
0
10
23.722843750000003
20
75.75060937500001
30
0
0
VERTEX
8
0
10
23.734146875
20
75.747978125
30
0
0
VERTEX
8
0
10
23.745309375
20
75.74478125
30
0
0
VERTEX
8
0
10
23.749140625000003
20
75.7444875
30
0
0
VERTEX
8
0
10
23.752862500000003
20
75.743621875
30
0
0
VERTEX
8
0
10
23.764428125000002
20
75.74331875
30
0
0
VERTEX
8
0
10
23.776040625
20
75.74243125000001
30
0
0
SEQEND
0
POLYLINE
66
1
8
16_copper
10
0.0
20
0.0
30
0.0
70
1
0
VERTEX
8
0
10
41.837309375000004
20
72.78996875
30
0
42
0.4032675002309144
0
VERTEX
8
0
10
41.984
20
72.94208125
30
0
0
VERTEX
8
0
10
41.984
20
76.83160000000001
30
0
42
0.41421356237309503
0
VERTEX
8
0
10
41.8316
20
76.98400000000001
30
0
0
VERTEX
8
0
10
33.540946875
20
76.98400000000001
30
0
42
0.668183881094477
0
VERTEX
8
0
10
33.433184375
20
76.72383437500001
30
0
0
VERTEX
8
0
10
33.545834375
20
76.6111875
30
0
0
VERTEX
8
0
10
33.54585
20
76.611175
30
0
0
VERTEX
8
0
10
34.365
20
75.792021875
30
0
42
0.41421356237309503
0
VERTEX
8
0
10
34.580525
20
75.792021875
30
0
0
VERTEX
8
0
10
34.79648125
20
76.00798125
30
0
0
VERTEX
8
0
10
35.233490625
20
76.188996875
30
0
0
VERTEX
8
0
10
35.706503125000005
20
76.188996875
30
0
0
VERTEX
8
0
10
35.930953125
20
76.096025
30
0
42
0.3033476855734221
0
VERTEX
8
0
10
36.0970375
20
76.1290625
30
0
0
VERTEX
8
0
10
36.46916875
20
76.501196875
30
0
0
VERTEX
8
0
10
38.655828125
20
76.501196875
30
0
0
VERTEX
8
0
10
39.626196875000005
20
75.530828125
30
0
0
VERTEX
8
0
10
39.626196875000005
20
74.46916875000001
30
0
0
VERTEX
8
0
10
39.361190625
20
74.20416250000001
30
0
0
VERTEX
8
0
10
38.599796875
20
73.442771875
30
0
42
0.876977945276166
0
VERTEX
8
0
10
38.783759375
20
73.203028125
30
0
0
VERTEX
8
0
10
39.028859375
20
73.3445375
30
0
0
VERTEX
8
0
10
39.66875625
20
73.515996875
30
0
0
VERTEX
8
0
10
40.331240625
20
73.515996875
30
0
0
VERTEX
8
0
10
40.971137500000005
20
73.3445375
30
0
0
VERTEX
8
0
10
41.544859375
20
73.0133
30
0
0
VERTEX
8
0
10
41.7238375
20
72.83431875000001
30
0
0
VERTEX
8
0
10
41.725315625
20
72.833115625
30
0
0
VERTEX
8
0
10
41.7265625
20
72.831659375
30
0
0
VERTEX
8
0
10
41.737265625
20
72.82336562500001
30
0
0
VERTEX
8
0
10
41.747721875
20
72.814840625
30
0
0
VERTEX
8
0
10
41.749415625000005
20
72.81395625
30
0
0
VERTEX
8
0
10
41.75093125
20
72.81278125
30
0
0
VERTEX
8
0
10
41.76310625
20
72.80680000000001
30
0
0
VERTEX
8
0
10
41.775040625
20
72.800565625
30
0
0
VERTEX
8
0
10
41.776871875000005
20
72.80004062500001
30
0
0
VERTEX
8
0
10
41.778596875000005
20
72.79919375
30
0
0
VERTEX
8
0
10
41.791706250000004
20
72.79579375
30
0
0
VERTEX
8
0
10
41.804675
20
72.792078125
30
0
0
VERTEX
8
0
10
41.806584375
20
72.79193125
30
0
0
VERTEX
8
0
10
41.808431250000005
20
72.791453125
30
0
0
VERTEX
8
0
10
41.8218875
20
72.7907625
30
0
0
VERTEX
8
0
10
41.835406250000005
20
72.78972812500001
30
0
0
SEQEND
0
POLYLINE
66
1
8
16_copper
10
0.0
20
0.0
30
0.0
70
1
0
VERTEX
8
0
10
11.347603125000001
20
75.287159375
30
0
42
0.2897489690879395
0
VERTEX
8
0
10
11.480796875000001
20
75.380865625
30
0
0
VERTEX
8
0
10
11.602015625
20
75.67351562500001
30
0
0
VERTEX
8
0
10
11.815940625000001
20
75.8874375
30
0
42
0.6681786379192989
0
VERTEX
8
0
10
11.708178125
20
76.1476
30
0
0
VERTEX
8
0
10
10.97181875
20
76.1476
30
0
42
0.6681786379192989
0
VERTEX
8
0
10
10.86405625
20
75.8874375
30
0
0
VERTEX
8
0
10
11.07798125
20
75.67351562500001
30
0
0
VERTEX
8
0
10
11.199196875
20
75.38086875
30
0
0
VERTEX
8
0
10
11.200106250000001
20
75.37918125
30
0
0
VERTEX
8
0
10
11.200700000000001
20
75.37736562500001
30
0
0
VERTEX
8
0
10
11.207393750000001
20
75.36564687500001
30
0
0
VERTEX
8
0
10
11.213812500000001
20
75.353728125
30
0
0
VERTEX
8
0
10
11.215040625
20
75.352259375
30
0
0
VERTEX
8
0
10
11.2159875
20
75.350603125
30
0
0
VERTEX
8
0
10
11.224903125
20
75.340471875
30
0
0
VERTEX
8
0
10
11.2335875
20
75.3300875
30
0
0
VERTEX
8
0
10
11.235084375000001
20
75.328896875
30
0
0
VERTEX
8
0
10
11.236346875
20
75.32746250000001
30
0
0
VERTEX
8
0
10
11.2471
20
75.31934687500001
30
0
0
VERTEX
8
0
10
11.257715625000001
20
75.31090625
30
0
0
VERTEX
8
0
10
11.25943125
20
75.3100375
30
0
0
VERTEX
8
0
10
11.260950000000001
20
75.308890625
30
0
0
VERTEX
8
0
10
11.273128125000001
20
75.30309687500001
30
0
0
VERTEX
8
0
10
11.2852125
20
75.296975
30
0
0
VERTEX
8
0
10
11.287056250000001
20
75.29647187500001
30
0
0
VERTEX
8
0
10
11.288784375
20
75.29565000000001
30
0
0
VERTEX
8
0
10
11.301884375
20
75.29242500000001
30
0
0
VERTEX
8
0
10
11.314946875
20
75.288859375
30
0
0
VERTEX
8
0
10
11.316862500000001
20
75.28873750000001
30
0
0
VERTEX
8
0
10
11.3187125
20
75.28828125
30
0
0
VERTEX
8
0
10
11.3321875
20
75.28775625
30
0
0
VERTEX
8
0
10
11.345706250000001
20
75.28689375
30
0
0
SEQEND
0
POLYLINE
66
1
8
16_copper
10
0.0
20
0.0
30
0.0
70
1
0
VERTEX
8
0
10
13.887603125
20
75.287159375
30
0
42
0.2897489690879395
0
VERTEX
8
0
10
14.020796875
20
75.380865625
30
0
0
VERTEX
8
0
10
14.142015625
20
75.67351562500001
30
0
0
VERTEX
8
0
10
14.355940625
20
75.8874375
30
0
42
0.6681786379192989
0
VERTEX
8
0
10
14.248178125
20
76.1476
30
0
0
VERTEX
8
0
10
13.51181875
20
76.1476
30
0
42
0.6681786379192989
0
VERTEX
8
0
10
13.40405625
20
75.8874375
30
0
0
VERTEX
8
0
10
13.617981250000001
20
75.67351562500001
30
0
0
VERTEX
8
0
10
13.739196875000001
20
75.38086875
30
0
0
VERTEX
8
0
10
13.74010625
20
75.37918125
30
0
0
VERTEX
8
0
10
13.7407
20
75.37736562500001
30
0
0
VERTEX
8
0
10
13.74739375
20
75.36564687500001
30
0
0
VERTEX
8
0
10
13.7538125
20
75.353728125
30
0
0
VERTEX
8
0
10
13.755040625000001
20
75.352259375
30
0
0
VERTEX
8
0
10
13.7559875
20
75.350603125
30
0
0
VERTEX
8
0
10
13.764903125
20
75.340471875
30
0
0
VERTEX
8
0
10
13.773587500000001
20
75.3300875
30
0
0
VERTEX
8
0
10
13.775084375
20
75.328896875
30
0
0
VERTEX
8
0
10
13.776346875000002
20
75.32746250000001
30
0
0
VERTEX
8
0
10
13.7871
20
75.31934687500001
30
0
0
VERTEX
8
0
10
13.797715625
20
75.31090625
30
0
0
VERTEX
8
0
10
13.799431250000001
20
75.3100375
30
0
0
VERTEX
8
0
10
13.80095
20
75.308890625
30
0
0
VERTEX
8
0
10
13.813128125
20
75.30309687500001
30
0
0
VERTEX
8
0
10
13.825212500000001
20
75.296975
30
0
0
VERTEX
8
0
10
13.82705625
20
75.29647187500001
30
0
0
VERTEX
8
0
10
13.828784375000001
20
75.29565000000001
30
0
0
VERTEX
8
0
10
13.841884375000001
20
75.29242500000001
30
0
0
VERTEX
8
0
10
13.854946875000001
20
75.288859375
30
0
0
VERTEX
8
0
10
13.8568625
20
75.28873750000001
30
0
0
VERTEX
8
0
10
13.858712500000001
20
75.28828125
30
0
0
VERTEX
8
0
10
13.8721875
20
75.28775625
30
0
0
VERTEX
8
0
10
13.88570625
20
75.28689375
30
0
0
SEQEND
0
POLYLINE
66
1
8
16_copper
10
0.0
20
0.0
30
0.0
70
1
0
VERTEX
8
0
10
8.77324375
20
75.218878125
30
0
42
0.3004256160484537
0
VERTEX
8
0
10
8.91241875
20
75.312353125
30
0
0
VERTEX
8
0
10
9.062015625
20
75.67351562500001
30
0
0
VERTEX
8
0
10
9.275940625
20
75.8874375
30
0
42
0.6681786379192989
0
VERTEX
8
0
10
9.168178125
20
76.1476
30
0
0
VERTEX
8
0
10
8.364078125
20
76.1476
30
0
42
0.6744391342379366
0
VERTEX
8
0
10
8.27463125
20
75.871809375
30
0
0
VERTEX
8
0
10
8.401828125
20
75.7446125
30
0
0
VERTEX
8
0
10
8.507571875
20
75.59906875
30
0
0
VERTEX
8
0
10
8.589259375000001
20
75.43875
30
0
0
VERTEX
8
0
10
8.626678125
20
75.32358125
30
0
0
VERTEX
8
0
10
8.629865625
20
75.31635625
30
0
0
VERTEX
8
0
10
8.632321875
20
75.308853125
30
0
0
VERTEX
8
0
10
8.636071875
20
75.302290625
30
0
0
VERTEX
8
0
10
8.63911875
20
75.29538125
30
0
0
VERTEX
8
0
10
8.64369375
20
75.28894687500001
30
0
0
VERTEX
8
0
10
8.647609375
20
75.28209062500001
30
0
0
VERTEX
8
0
10
8.6526
20
75.27641875
30
0
0
VERTEX
8
0
10
8.656978125
20
75.27025937500001
30
0
0
VERTEX
8
0
10
8.662753125
20
75.26487812500001
30
0
0
VERTEX
8
0
10
8.66796875
20
75.25895
30
0
0
VERTEX
8
0
10
8.674003125
20
75.25439375
30
0
0
VERTEX
8
0
10
8.679528125000001
20
75.249246875
30
0
0
VERTEX
8
0
10
8.686265625
20
75.2451375
30
0
0
VERTEX
8
0
10
8.692571875
20
75.240378125
30
0
0
VERTEX
8
0
10
8.69939375
20
75.23713125
30
0
0
VERTEX
8
0
10
8.70584375
20
75.2332
30
0
0
VERTEX
8
0
10
8.713271875
20
75.23053125
30
0
0
VERTEX
8
0
10
8.72040625
20
75.2271375
30
0
0
VERTEX
8
0
10
8.727746875000001
20
75.22533125000001
30
0
0
VERTEX
8
0
10
8.73485
20
75.222778125
30
0
0
VERTEX
8
0
10
8.742659375
20
75.221659375
30
0
0
VERTEX
8
0
10
8.750334375
20
75.21976875
30
0
0
VERTEX
8
0
10
8.757884375
20
75.219475
30
0
0
VERTEX
8
0
10
8.7653625
20
75.21840312500001
30
0
0
SEQEND
0
POLYLINE
66
1
8
16_copper
10
0.0
20
0.0
30
0.0
70
1
0
VERTEX
8
0
10
31.667603125000003
20
75.28716250000001
30
0
42
0.2897489690879395
0
VERTEX
8
0
10
31.800796875000003
20
75.38086875
30
0
0
VERTEX
8
0
10
31.922015625
20
75.67351562500001
30
0
0
VERTEX
8
0
10
32.112140625
20
75.86363750000001
30
0
42
0.6681786379192989
0
VERTEX
8
0
10
32.004378125
20
76.1238
30
0
0
VERTEX
8
0
10
31.315618750000002
20
76.1238
30
0
42
0.6681786379192989
0
VERTEX
8
0
10
31.207856250000003
20
75.86363750000001
30
0
0
VERTEX
8
0
10
31.39798125
20
75.67351562500001
30
0
0
VERTEX
8
0
10
31.519196875000002
20
75.380871875
30
0
0
VERTEX
8
0
10
31.52010625
20
75.37918437500001
30
0
0
VERTEX
8
0
10
31.5207
20
75.37736875
30
0
0
VERTEX
8
0
10
31.52739375
20
75.36565
30
0
0
VERTEX
8
0
10
31.5338125
20
75.35373125000001
30
0
0
VERTEX
8
0
10
31.535040625
20
75.35226250000001
30
0
0
VERTEX
8
0
10
31.5359875
20
75.35060625
30
0
0
VERTEX
8
0
10
31.544903125
20
75.340475
30
0
0
VERTEX
8
0
10
31.553587500000003
20
75.330090625
30
0
0
VERTEX
8
0
10
31.555084375
20
75.3289
30
0
0
VERTEX
8
0
10
31.556346875000003
20
75.327465625
30
0
0
VERTEX
8
0
10
31.567125
20
75.319328125
30
0
0
VERTEX
8
0
10
31.577715625000003
20
75.31090937500001
30
0
0
VERTEX
8
0
10
31.579421875
20
75.31004375
30
0
0
VERTEX
8
0
10
31.580946875000002
20
75.30889375000001
30
0
0
VERTEX
8
0
10
31.593175000000002
20
75.303078125
30
0
0
VERTEX
8
0
10
31.6052125
20
75.29697812500001
30
0
0
VERTEX
8
0
10
31.60705
20
75.296475
30
0
0
VERTEX
8
0
10
31.60878125
20
75.295653125
30
0
0
VERTEX
8
0
10
31.621903125000003
20
75.292421875
30
0
0
VERTEX
8
0
10
31.634946875
20
75.28886250000001
30
0
0
VERTEX
8
0
10
31.636862500000003
20
75.288740625
30
0
0
VERTEX
8
0
10
31.6387125
20
75.288284375
30
0
0
VERTEX
8
0
10
31.6521875
20
75.28775937500001
30
0
0
VERTEX
8
0
10
31.665706250000003
20
75.28689687500001
30
0
0
SEQEND
0
POLYLINE
66
1
8
16_copper
10
0.0
20
0.0
30
0.0
70
1
0
VERTEX
8
0
10
26.362337500000002
20
75.7004125
30
0
42
0.1859439160234634
0
VERTEX
8
0
10
26.462496875000003
20
75.744521875
30
0
0
VERTEX
8
0
10
26.581612500000002
20
75.86363750000001
30
0
42
0.6681786379192989
0
VERTEX
8
0
10
26.473850000000002
20
76.1238
30
0
0
VERTEX
8
0
10
26.23561875
20
76.1238
30
0
42
0.6681786379192989
0
VERTEX
8
0
10
26.12785625
20
75.86363750000001
30
0
0
VERTEX
8
0
10
26.246971875
20
75.744521875
30
0
0
VERTEX
8
0
10
26.24993125
20
75.742109375
30
0
0
VERTEX
8
0
10
26.252490625
20
75.739271875
30
0
0
VERTEX
8
0
10
26.261846875
20
75.73239062500001
30
0
0
VERTEX
8
0
10
26.270859375
20
75.725040625
30
0
0
VERTEX
8
0
10
26.274246875000003
20
75.72327187500001
30
0
0
VERTEX
8
0
10
26.277321875000002
20
75.72100937500001
30
0
0
VERTEX
8
0
10
26.287890625000003
20
75.71614375
30
0
0
VERTEX
8
0
10
26.298178125
20
75.71076875
30
0
0
VERTEX
8
0
10
26.30184375
20
75.70971875000001
30
0
0
VERTEX
8
0
10
26.30531875
20
75.70811875
30
0
0
VERTEX
8
0
10
26.316628125
20
75.705484375
30
0
0
VERTEX
8
0
10
26.327809375
20
75.70228125
30
0
0
VERTEX
8
0
10
26.331628125
20
75.70199062500001
30
0
0
VERTEX
8
0
10
26.3353375
20
75.701125
30
0
0
VERTEX
8
0
10
26.346928125
20
75.70081875000001
30
0
0
VERTEX
8
0
10
26.358543750000003
20
75.69993125
30
0
0
SEQEND
0
POLYLINE
66
1
8
16_copper
10
0.0
20
0.0
30
0.0
70
1
0
VERTEX
8
0
10
18.967603125
20
75.28716250000001
30
0
42
0.28974170889636724
0
VERTEX
8
0
10
19.10079375
20
75.380865625
30
0
0
VERTEX
8
0
10
19.165915625
20
75.538075
30
0
42
0.5345209271564204
0
VERTEX
8
0
10
19.02511875
20
75.7488
30
0
0
VERTEX
8
0
10
18.894878125
20
75.7488
30
0
42
0.534512315628043
0
VERTEX
8
0
10
18.754078125
20
75.538078125
30
0
0
VERTEX
8
0
10
18.819196875
20
75.38086875
30
0
0
VERTEX
8
0
10
18.820103125
20
75.3791875
30
0
0
VERTEX
8
0
10
18.820696875
20
75.37737187500001
30
0
0
VERTEX
8
0
10
18.827415625
20
75.36560625
30
0
0
VERTEX
8
0
10
18.8338125
20
75.35373125000001
30
0
0
VERTEX
8
0
10
18.83503125
20
75.352271875
30
0
0
VERTEX
8
0
10
18.835984375000002
20
75.35060625
30
0
0
VERTEX
8
0
10
18.8449375
20
75.340434375
30
0
0
VERTEX
8
0
10
18.8535875
20
75.330090625
30
0
0
VERTEX
8
0
10
18.855084375
20
75.328903125
30
0
0
VERTEX
8
0
10
18.856346875
20
75.327465625
30
0
0
VERTEX
8
0
10
18.867125
20
75.319328125
30
0
0
VERTEX
8
0
10
18.87771875
20
75.31090937500001
30
0
0
VERTEX
8
0
10
18.879428125
20
75.31004375
30
0
0
VERTEX
8
0
10
18.880946875
20
75.308896875
30
0
0
VERTEX
8
0
10
18.893140625
20
75.30309375
30
0
0
VERTEX
8
0
10
18.9052125
20
75.29697812500001
30
0
0
VERTEX
8
0
10
18.90705
20
75.296475
30
0
0
VERTEX
8
0
10
18.90878125
20
75.295653125
30
0
0
VERTEX
8
0
10
18.921915625
20
75.29241875000001
30
0
0
VERTEX
8
0
10
18.934946875
20
75.28886250000001
30
0
0
VERTEX
8
0
10
18.93685625
20
75.288740625
30
0
0
VERTEX
8
0
10
18.938709375000002
20
75.288284375
30
0
0
VERTEX
8
0
10
18.952196875000002
20
75.28775937500001
30
0
0
VERTEX
8
0
10
18.965709375
20
75.28689687500001
30
0
0
SEQEND
0
POLYLINE
66
1
8
16_copper
10
0.0
20
0.0
30
0.0
70
1
0
VERTEX
8
0
10
29.127603125
20
75.28716250000001
30
0
42
0.4670057598529178
0
VERTEX
8
0
10
29.291434375
20
75.47875625
30
0
0
VERTEX
8
0
10
29.292378125000003
20
75.48935625
30
0
42
0.19568167646803547
0
VERTEX
8
0
10
29.24775
20
75.59522187500001
30
0
0
VERTEX
8
0
10
29.179490625
20
75.663478125
30
0
42
0.8206681938536434
0
VERTEX
8
0
10
28.93093125
20
75.49739062500001
30
0
0
VERTEX
8
0
10
28.979196875000003
20
75.38086875
30
0
0
VERTEX
8
0
10
28.980103125000003
20
75.3791875
30
0
0
VERTEX
8
0
10
28.980696875000003
20
75.37737187500001
30
0
0
VERTEX
8
0
10
28.987403125
20
75.36563125
30
0
0
VERTEX
8
0
10
28.9938125
20
75.35373125000001
30
0
0
VERTEX
8
0
10
28.995037500000002
20
75.352265625
30
0
0
VERTEX
8
0
10
28.995984375000003
20
75.350609375
30
0
0
VERTEX
8
0
10
29.004915625000002
20
75.34045937500001
30
0
0
VERTEX
8
0
10
29.013590625000003
20
75.3300875
30
0
0
VERTEX
8
0
10
29.015084375
20
75.3289
30
0
0
VERTEX
8
0
10
29.01634375
20
75.32746875000001
30
0
0
VERTEX
8
0
10
29.027109375000002
20
75.31934375
30
0
0
VERTEX
8
0
10
29.03771875
20
75.31090937500001
30
0
0
VERTEX
8
0
10
29.039428125
20
75.31004375
30
0
0
VERTEX
8
0
10
29.040946875000003
20
75.308896875
30
0
0
VERTEX
8
0
10
29.053118750000003
20
75.30310625
30
0
0
VERTEX
8
0
10
29.0652125
20
75.29697812500001
30
0
0
VERTEX
8
0
10
29.067059375000003
20
75.296475
30
0
0
VERTEX
8
0
10
29.068778125
20
75.29565625000001
30
0
0
VERTEX
8
0
10
29.081884375
20
75.292428125
30
0
0
VERTEX
8
0
10
29.09495
20
75.28886250000001
30
0
0
VERTEX
8
0
10
29.096856250000002
20
75.288740625
30
0
0
VERTEX
8
0
10
29.098709375000002
20
75.288284375
30
0
0
VERTEX
8
0
10
29.1122
20
75.28775937500001
30
0
0
VERTEX
8
0
10
29.125709375000003
20
75.28689687500001
30
0
0
SEQEND
0
POLYLINE
66
1
8
16_copper
10
0.0
20
0.0
30
0.0
70
1
0
VERTEX
8
0
10
36.7476
20
75.28716250000001
30
0
42
0.2897545254745779
0
VERTEX
8
0
10
36.880796875
20
75.38086875
30
0
0
VERTEX
8
0
10
36.91845625
20
75.471784375
30
0
42
0.773604404319773
0
VERTEX
8
0
10
36.6829875
20
75.64953750000001
30
0
0
VERTEX
8
0
10
36.682300000000005
20
75.64886875
30
0
42
0.2965604450093773
0
VERTEX
8
0
10
36.574396875000005
20
75.50376875
30
0
0
VERTEX
8
0
10
36.574034375000004
20
75.4990125
30
0
0
VERTEX
8
0
10
36.573009375000005
20
75.49435625000001
30
0
0
VERTEX
8
0
10
36.5728625
20
75.48368437500001
30
0
0
VERTEX
8
0
10
36.572046875000005
20
75.473034375
30
0
0
VERTEX
8
0
10
36.572646875000004
20
75.46830625
30
0
0
VERTEX
8
0
10
36.57258125
20
75.4635375
30
0
0
VERTEX
8
0
10
36.5745875
20
75.453040625
30
0
0
VERTEX
8
0
10
36.575931250000004
20
75.44245625
30
0
0
VERTEX
8
0
10
36.577471875
20
75.43794687500001
30
0
0
VERTEX
8
0
10
36.578365625
20
75.4332625
30
0
0
VERTEX
8
0
10
36.583600000000004
20
75.41852812500001
30
0
0
VERTEX
8
0
10
36.599196875000004
20
75.380871875
30
0
0
VERTEX
8
0
10
36.600100000000005
20
75.37919375
30
0
0
VERTEX
8
0
10
36.600696875000004
20
75.37737187500001
30
0
0
VERTEX
8
0
10
36.60739375
20
75.36565312500001
30
0
0
VERTEX
8
0
10
36.613809375
20
75.353734375
30
0
0
VERTEX
8
0
10
36.615043750000005
20
75.352259375
30
0
0
VERTEX
8
0
10
36.6159875
20
75.35060625
30
0
0
VERTEX
8
0
10
36.624896875000005
20
75.340478125
30
0
0
VERTEX
8
0
10
36.633587500000004
20
75.330090625
30
0
0
VERTEX
8
0
10
36.635084375000005
20
75.3289
30
0
0
VERTEX
8
0
10
36.636346875
20
75.327465625
30
0
0
VERTEX
8
0
10
36.64716875
20
75.31929375
30
0
0
VERTEX
8
0
10
36.657715625
20
75.3109125
30
0
0
VERTEX
8
0
10
36.6594125
20
75.31005312500001
30
0
0
VERTEX
8
0
10
36.660946875
20
75.30889375000001
30
0
0
VERTEX
8
0
10
36.673190625000004
20
75.30306875000001
30
0
0
VERTEX
8
0
10
36.685209375
20
75.29697812500001
30
0
0
VERTEX
8
0
10
36.687053125
20
75.296475
30
0
0
VERTEX
8
0
10
36.688781250000005
20
75.295653125
30
0
0
VERTEX
8
0
10
36.70188125
20
75.292428125
30
0
0
VERTEX
8
0
10
36.71494375
20
75.28886250000001
30
0
0
VERTEX
8
0
10
36.716859375
20
75.288740625
30
0
0
VERTEX
8
0
10
36.718709375
20
75.288284375
30
0
0
VERTEX
8
0
10
36.732190625
20
75.28775937500001
30
0
0
VERTEX
8
0
10
36.745706250000005
20
75.28689687500001
30
0
0
SEQEND
0
POLYLINE
66
1
8
16_copper
10
0.0
20
0.0
30
0.0
70
1
0
VERTEX
8
0
10
6.301909375
20
75.219475
30
0
42
0.30042439147460875
0
VERTEX
8
0
10
6.433318750000001
20
75.32358125
30
0
0
VERTEX
8
0
10
6.468159375
20
75.4308125
30
0
42
0.7475479389221327
0
VERTEX
8
0
10
6.227062500000001
20
75.59614375000001
30
0
0
VERTEX
8
0
10
6.221159375
20
75.590815625
30
0
42
0.35404308915292165
0
VERTEX
8
0
10
6.115421875
20
75.413325
30
0
0
VERTEX
8
0
10
6.1153562500000005
20
75.408546875
30
0
0
VERTEX
8
0
10
6.117365625000001
20
75.39802812500001
30
0
0
VERTEX
8
0
10
6.118706250000001
20
75.387478125
30
0
0
VERTEX
8
0
10
6.120240625
20
75.38297812500001
30
0
0
VERTEX
8
0
10
6.121140625000001
20
75.37827187500001
30
0
0
VERTEX
8
0
10
6.126375
20
75.363540625
30
0
0
VERTEX
8
0
10
6.147578125
20
75.312353125
30
0
0
VERTEX
8
0
10
6.151321875000001
20
75.3054
30
0
0
VERTEX
8
0
10
6.154359375
20
75.29811562500001
30
0
0
VERTEX
8
0
10
6.158609375
20
75.291871875
30
0
0
VERTEX
8
0
10
6.16219375
20
75.285215625
30
0
0
VERTEX
8
0
10
6.1672625000000005
20
75.27915625
30
0
0
VERTEX
8
0
10
6.1717031250000005
20
75.27263125
30
0
0
VERTEX
8
0
10
6.177121875
20
75.26736875
30
0
0
VERTEX
8
0
10
6.181971875
20
75.261571875
30
0
0
VERTEX
8
0
10
6.188146875
20
75.2566625
30
0
0
VERTEX
8
0
10
6.193815625
20
75.251159375
30
0
0
VERTEX
8
0
10
6.200190625
20
75.247090625
30
0
0
VERTEX
8
0
10
6.2061
20
75.24239375
30
0
0
VERTEX
8
0
10
6.213140625
20
75.238825
30
0
0
VERTEX
8
0
10
6.219796875
20
75.234578125
30
0
0
VERTEX
8
0
10
6.226853125
20
75.23187812500001
30
0
0
VERTEX
8
0
10
6.233593750000001
20
75.2284625
30
0
0
VERTEX
8
0
10
6.2412125000000005
20
75.22638437500001
30
0
0
VERTEX
8
0
10
6.248584375
20
75.2235625
30
0
0
VERTEX
8
0
10
6.256037500000001
20
75.22233750000001
30
0
0
VERTEX
8
0
10
6.26333125
20
75.220346875
30
0
0
VERTEX
8
0
10
6.2712062500000005
20
75.21984375000001
30
0
0
VERTEX
8
0
10
6.279
20
75.2185625
30
0
0
VERTEX
8
0
10
6.286553125
20
75.2188625
30
0
0
VERTEX
8
0
10
6.294090625
20
75.21838125000001
30
0
0
SEQEND
0
POLYLINE
66
1
8
16_copper
10
0.0
20
0.0
30
0.0
70
1
0
VERTEX
8
0
10
13.008428125
20
3.4250156250000003
30
0
42
0.19996933026468092
0
VERTEX
8
0
10
13.060159375000001
20
3.4523968750000003
30
0
0
VERTEX
8
0
10
17.34948125
20
3.4523968750000003
30
0
42
0.198912367379658
0
VERTEX
8
0
10
17.45724375
20
3.497034375
30
0
0
VERTEX
8
0
10
34.0029625
20
20.042753125
30
0
42
0.198912367379658
0
VERTEX
8
0
10
34.0476
20
20.150515625
30
0
0
VERTEX
8
0
10
34.0476
20
36.600009375
30
0
42
0.198912367379658
0
VERTEX
8
0
10
34.0029625
20
36.707771875
30
0
0
VERTEX
8
0
10
33.2348
20
37.475934375
30
0
0
VERTEX
8
0
10
33.2348
20
38.5240625
30
0
0
VERTEX
8
0
10
34.0029625
20
39.292225
30
0
42
0.198912367379658
0
VERTEX
8
0
10
34.0476
20
39.3999875
30
0
0
VERTEX
8
0
10
34.0476
20
40.7702
30
0
42
0.41421356237309503
0
VERTEX
8
0
10
33.8952
20
40.9226
30
0
0
VERTEX
8
0
10
29.825515625
20
40.9226
30
0
42
0.198912367379658
0
VERTEX
8
0
10
29.717753125
20
40.8779625
30
0
0
VERTEX
8
0
10
23.897034375
20
35.057243750000005
30
0
42
0.198912367379658
0
VERTEX
8
0
10
23.852396875
20
34.949481250000005
30
0
0
VERTEX
8
0
10
23.852396875
20
23.41260625
30
0
0
VERTEX
8
0
10
12.348600000000001
20
11.9088125
30
0
42
0.4142178091166836
0
VERTEX
8
0
10
12.348600000000001
20
11.693284375000001
30
0
0
VERTEX
8
0
10
12.440315625
20
11.60156875
30
0
0
VERTEX
8
0
10
12.601996875000001
20
11.211243750000001
30
0
0
VERTEX
8
0
10
12.601996875000001
20
10.787665625
30
0
42
0.26311334124965297
0
VERTEX
8
0
10
12.63710625
20
10.627678125000001
30
0
0
VERTEX
8
0
10
13.482396875000001
20
9.782390625
30
0
0
VERTEX
8
0
10
13.482396875000001
20
5.848934375000001
30
0
42
0.198912367379658
0
VERTEX
8
0
10
13.527034375000001
20
5.741171875
30
0
0
VERTEX
8
0
10
13.990396875
20
5.277809375
30
0
0
VERTEX
8
0
10
13.990396875
20
4.598159375
30
0
0
VERTEX
8
0
10
13.311837500000001
20
3.9196
30
0
0
VERTEX
8
0
10
12.639750000000001
20
3.9196
30
0
42
0.198912367379658
0
VERTEX
8
0
10
12.531987500000001
20
3.8749625
30
0
0
VERTEX
8
0
10
12.369584375
20
3.712559375
30
0
42
0.2486327455617987
0
VERTEX
8
0
10
12.32814375
20
3.5762
30
0
0
VERTEX
8
0
10
7.531562500000001
20
3.5762
30
0
0
VERTEX
8
0
10
6.602078125
20
4.505684375
30
0
42
0.13567223959906954
0
VERTEX
8
0
10
6.6238
20
4.583909375
30
0
0
VERTEX
8
0
10
6.6238
20
5.405828125
30
0
0
VERTEX
8
0
10
7.079162500000001
20
5.861190625
30
0
42
0.198912367379658
0
VERTEX
8
0
10
7.1238
20
5.9689531250000005
30
0
0
VERTEX
8
0
10
7.1238
20
9.949246875
30
0
42
0.4902810885494414
0
VERTEX
8
0
10
6.9333156250000005
20
10.0968125
30
0
0
VERTEX
8
0
10
6.925009375
20
10.09374375
30
0
42
0.1220927391796779
0
VERTEX
8
0
10
6.849996875
20
10.05843125
30
0
0
VERTEX
8
0
10
6.714
20
10.01424375
30
0
0
VERTEX
8
0
10
6.714
20
10.898378125
30
0
42
0.13370496259037631
0
VERTEX
8
0
10
6.6923312500000005
20
10.97526875
30
0
0
VERTEX
8
0
10
6.68670625
20
10.98540625
30
0
42
0.18935569120738502
0
VERTEX
8
0
10
6.714
20
11.10161875
30
0
0
VERTEX
8
0
10
6.714
20
11.985753125
30
0
0
VERTEX
8
0
10
6.850009375
20
11.9415625
30
0
0
VERTEX
8
0
10
6.9924968750000005
20
11.868959375000001
30
0
0
VERTEX
8
0
10
7.121878125
20
11.774959375
30
0
0
VERTEX
8
0
10
7.234946875
20
11.661890625
30
0
0
VERTEX
8
0
10
7.2962468750000005
20
11.577515625
30
0
42
0.46101001269003566
0
VERTEX
8
0
10
7.5273062500000005
20
11.559331250000001
30
0
0
VERTEX
8
0
10
9.8291625
20
13.861190625
30
0
42
0.198912367379658
0
VERTEX
8
0
10
9.873800000000001
20
13.968953125
30
0
0
VERTEX
8
0
10
9.873800000000001
20
28.34315625
30
0
42
0.30335085355011276
0
VERTEX
8
0
10
9.77971875
20
28.483956250000002
30
0
0
VERTEX
8
0
10
9.652953125
20
28.536462500000003
30
0
0
VERTEX
8
0
10
9.356462500000001
20
28.832953125000003
30
0
0
VERTEX
8
0
10
9.196
20
29.22034375
30
0
0
VERTEX
8
0
10
9.196
20
29.639653125000002
30
0
0
VERTEX
8
0
10
9.356462500000001
20
30.02704375
30
0
0
VERTEX
8
0
10
9.652953125
20
30.323534375
30
0
0
VERTEX
8
0
10
10.04034375
20
30.483996875000003
30
0
0
VERTEX
8
0
10
10.459653125
20
30.483996875000003
30
0
0
VERTEX
8
0
10
10.847043750000001
20
30.323534375
30
0
0
VERTEX
8
0
10
11.143534375
20
30.02704375
30
0
0
VERTEX
8
0
10
11.303996875000001
20
29.639653125000002
30
0
0
VERTEX
8
0
10
11.303996875000001
20
29.22034375
30
0
0
VERTEX
8
0
10
11.143534375
20
28.832953125000003
30
0
0
VERTEX
8
0
10
10.847043750000001
20
28.536462500000003
30
0
0
VERTEX
8
0
10
10.720278125
20
28.483956250000002
30
0
42
0.30335085355011276
0
VERTEX
8
0
10
10.626196875
20
28.34315625
30
0
0
VERTEX
8
0
10
10.626196875
20
13.594168750000001
30
0
0
VERTEX
8
0
10
9.289634375
20
12.257609375000001
30
0
42
0.9954172469550584
0
VERTEX
8
0
10
9.508621875000001
20
12.040646875
30
0
0
VERTEX
8
0
10
21.579162500000002
20
24.111190625000003
30
0
42
0.198912367379658
0
VERTEX
8
0
10
21.623800000000003
20
24.218953125000002
30
0
0
VERTEX
8
0
10
21.623800000000003
20
35.155828125
30
0
0
VERTEX
8
0
10
29.1041625
20
42.636190625000005
30
0
42
0.198912367379658
0
VERTEX
8
0
10
29.1488
20
42.743953125000004
30
0
0
VERTEX
8
0
10
29.1488
20
43.516062500000004
30
0
42
0.534512315628043
0
VERTEX
8
0
10
28.938078125
20
43.6568625
30
0
0
VERTEX
8
0
10
28.724756250000002
20
43.5685
30
0
0
VERTEX
8
0
10
28.345234375
20
43.5685
30
0
0
VERTEX
8
0
10
27.994596875000003
20
43.7137375
30
0
0
VERTEX
8
0
10
27.7262375
20
43.982096875
30
0
42
0.39485649299446446
0
VERTEX
8
0
10
27.5657125
20
44.1238
30
0
0
VERTEX
8
0
10
21.718953125000002
20
44.1238
30
0
42
0.198912367379658
0
VERTEX
8
0
10
21.611190625000003
20
44.0791625
30
0
0
VERTEX
8
0
10
20.171596875000002
20
42.639571875
30
0
42
0.3033476855734221
0
VERTEX
8
0
10
20.138559375
20
42.473487500000005
30
0
0
VERTEX
8
0
10
20.193996875
20
42.33965
30
0
0
VERTEX
8
0
10
20.193996875
20
41.92034375
30
0
0
VERTEX
8
0
10
20.033534375000002
20
41.532953125
30
0
0
VERTEX
8
0
10
19.73704375
20
41.2364625
30
0
0
VERTEX
8
0
10
19.349653125
20
41.076
30
0
0
VERTEX
8
0
10
18.930343750000002
20
41.076
30
0
0
VERTEX
8
0
10
18.542953125
20
41.2364625
30
0
0
VERTEX
8
0
10
18.2464625
20
41.532953125
30
0
0
VERTEX
8
0
10
18.2012
20
41.642225
30
0
0
VERTEX
8
0
10
18.2012
20
42.5934375
30
0
0
VERTEX
8
0
10
18.6565625
20
43.0488
30
0
0
VERTEX
8
0
10
19.5
20
43.0488
30
0
42
0.198912367379658
0
VERTEX
8
0
10
19.55388125
20
43.071118750000004
30
0
0
VERTEX
8
0
10
21.358959375
20
44.876196875000005
30
0
0
VERTEX
8
0
10
27.547075000000003
20
44.876196875000005
30
0
42
0.30335085355011276
0
VERTEX
8
0
10
27.687875000000002
20
44.970278125
30
0
0
VERTEX
8
0
10
27.7262375
20
45.0629
30
0
0
VERTEX
8
0
10
27.994596875000003
20
45.331259375
30
0
0
VERTEX
8
0
10
28.345234375
20
45.476496875
30
0
0
VERTEX
8
0
10
28.7247625
20
45.476496875
30
0
0
VERTEX
8
0
10
29.075400000000002
20
45.331259375
30
0
0
VERTEX
8
0
10
29.343759375
20
45.0629
30
0
0
VERTEX
8
0
10
29.384503125000002
20
44.964534375
30
0
42
0.5345160454881743
0
VERTEX
8
0
10
29.633065625
20
44.915090625000005
30
0
0
VERTEX
8
0
10
30.579162500000002
20
45.861190625
30
0
42
0.198912367379658
0
VERTEX
8
0
10
30.623800000000003
20
45.968953125
30
0
0
VERTEX
8
0
10
30.623800000000003
20
46.114959375000005
30
0
42
0.2636669102704576
0
VERTEX
8
0
10
30.535165625
20
46.25316875
30
0
0
VERTEX
8
0
10
30.266237500000003
20
46.522096875
30
0
0
VERTEX
8
0
10
30.121000000000002
20
46.872734375
30
0
0
VERTEX
8
0
10
30.121000000000002
20
47.2522625
30
0
0
VERTEX
8
0
10
30.266237500000003
20
47.602900000000005
30
0
0
VERTEX
8
0
10
30.534596875000002
20
47.871259375
30
0
0
VERTEX
8
0
10
30.885234375000003
20
48.016496875
30
0
0
VERTEX
8
0
10
31.2647625
20
48.016496875
30
0
0
VERTEX
8
0
10
31.6154
20
47.871259375
30
0
0
VERTEX
8
0
10
31.883759375
20
47.602900000000005
30
0
0
VERTEX
8
0
10
32.028996875000004
20
47.2522625
30
0
0
VERTEX
8
0
10
32.028996875000004
20
46.872734375
30
0
0
VERTEX
8
0
10
31.883759375
20
46.522096875
30
0
0
VERTEX
8
0
10
31.6154
20
46.2537375
30
0
0
VERTEX
8
0
10
31.470278125
20
46.193628125000004
30
0
42
0.30335085355011276
0
VERTEX
8
0
10
31.376196875
20
46.052828125000005
30
0
0
VERTEX
8
0
10
31.376196875
20
45.532168750000004
30
0
42
0.30335085355011276
0
VERTEX
8
0
10
31.470278125
20
45.391368750000005
30
0
0
VERTEX
8
0
10
31.6154
20
45.331259375
30
0
0
VERTEX
8
0
10
31.883759375
20
45.0629
30
0
0
VERTEX
8
0
10
32.028996875000004
20
44.7122625
30
0
0
VERTEX
8
0
10
32.028996875000004
20
44.332734375
30
0
0
VERTEX
8
0
10
31.883759375
20
43.982096875
30
0
0
VERTEX
8
0
10
31.614709375
20
43.713046875
30
0
42
0.2627158218822938
0
VERTEX
8
0
10
31.527396875
20
43.57545625
30
0
0
VERTEX
8
0
10
31.527396875
20
41.979796875000005
30
0
42
0.41421356237309503
0
VERTEX
8
0
10
31.679796875
20
41.827396875000005
30
0
0
VERTEX
8
0
10
33.974481250000004
20
41.827396875000005
30
0
42
0.198912367379658
0
VERTEX
8
0
10
34.08224375
20
41.872034375000005
30
0
0
VERTEX
8
0
10
35.6279625
20
43.417753125000004
30
0
42
0.1368501183172131
0
VERTEX
8
0
10
35.667528125000004
20
43.489246875
30
0
0
VERTEX
8
0
10
35.670203125
20
43.498590625000006
30
0
42
0.3496046860769152
0
VERTEX
8
0
10
35.6279625
20
43.700375
30
0
0
VERTEX
8
0
10
35.3462375
20
43.982096875
30
0
0
VERTEX
8
0
10
35.201
20
44.332734375
30
0
0
VERTEX
8
0
10
35.201
20
44.7122625
30
0
0
VERTEX
8
0
10
35.3462375
20
45.0629
30
0
0
VERTEX
8
0
10
35.614596875000004
20
45.331259375
30
0
0
VERTEX
8
0
10
35.914790625
20
45.455600000000004
30
0
42
0.8206851812565762
0
VERTEX
8
0
10
35.856471875000004
20
45.7488
30
0
0
VERTEX
8
0
10
35.21916875
20
45.7488
30
0
0
VERTEX
8
0
10
34.8738
20
46.09416875
30
0
0
VERTEX
8
0
10
34.8738
20
46.53104375
30
0
42
0.198912367379658
0
VERTEX
8
0
10
34.8291625
20
46.63880625
30
0
0
VERTEX
8
0
10
34.737959375
20
46.730009375
30
0
42
0.5345160454881743
0
VERTEX
8
0
10
34.489396875000004
20
46.680565625
30
0
0
VERTEX
8
0
10
34.423759375
20
46.522096875
30
0
0
VERTEX
8
0
10
34.1554
20
46.2537375
30
0
0
VERTEX
8
0
10
33.8047625
20
46.1085
30
0
0
VERTEX
8
0
10
33.425234375
20
46.1085
30
0
0
VERTEX
8
0
10
33.074596875000005
20
46.2537375
30
0
0
VERTEX
8
0
10
32.8062375
20
46.522096875
30
0
0
VERTEX
8
0
10
32.661
20
46.872734375
30
0
0
VERTEX
8
0
10
32.661
20
47.2522625
30
0
0
VERTEX
8
0
10
32.8062375
20
47.602900000000005
30
0
0
VERTEX
8
0
10
33.074596875000005
20
47.871259375
30
0
0
VERTEX
8
0
10
33.233065625
20
47.936896875
30
0
42
0.5345160454881743
0
VERTEX
8
0
10
33.282509375000004
20
48.185459375
30
0
0
VERTEX
8
0
10
29.638806250000002
20
51.8291625
30
0
42
0.198912367379658
0
VERTEX
8
0
10
29.531043750000002
20
51.8738
30
0
0
VERTEX
8
0
10
20.210271875
20
51.8738
30
0
42
0.30335085355011276
0
VERTEX
8
0
10
20.069471875
20
51.77971875
30
0
0
VERTEX
8
0
10
20.033534375000002
20
51.692953125
30
0
0
VERTEX
8
0
10
19.73704375
20
51.396462500000005
30
0
0
VERTEX
8
0
10
19.522453125000002
20
51.307578125
30
0
42
0.5345160454881743
0
VERTEX
8
0
10
19.473009375
20
51.059015625
30
0
0
VERTEX
8
0
10
19.501196875
20
51.030828125
30
0
0
VERTEX
8
0
10
19.501196875
20
50.843056250000004
30
0
42
0.30334568164182046
0
VERTEX
8
0
10
19.595275
20
50.702256250000005
30
0
0
VERTEX
8
0
10
19.73704375
20
50.643534375
30
0
0
VERTEX
8
0
10
20.033534375000002
20
50.347043750000005
30
0
0
VERTEX
8
0
10
20.193996875
20
49.959653125
30
0
0
VERTEX
8
0
10
20.193996875
20
49.540343750000005
30
0
0
VERTEX
8
0
10
20.033534375000002
20
49.152953125
30
0
0
VERTEX
8
0
10
19.73704375
20
48.8564625
30
0
0
VERTEX
8
0
10
19.349653125
20
48.696000000000005
30
0
0
VERTEX
8
0
10
18.930343750000002
20
48.696000000000005
30
0
0
VERTEX
8
0
10
18.542953125
20
48.8564625
30
0
0
VERTEX
8
0
10
18.2464625
20
49.152953125
30
0
0
VERTEX
8
0
10
18.086000000000002
20
49.540343750000005
30
0
0
VERTEX
8
0
10
18.086000000000002
20
49.959653125
30
0
0
VERTEX
8
0
10
18.2464625
20
50.347043750000005
30
0
0
VERTEX
8
0
10
18.54594375
20
50.646525000000004
30
0
42
0.4998694433272773
0
VERTEX
8
0
10
18.580715625
20
50.88725625
30
0
0
VERTEX
8
0
10
18.011359375
20
51.456612500000006
30
0
42
0.6681786379192989
0
VERTEX
8
0
10
17.751196875
20
51.348850000000006
30
0
0
VERTEX
8
0
10
17.751196875
20
47.593953125
30
0
42
0.1723613911979274
0
VERTEX
8
0
10
17.78535625
20
47.497800000000005
30
0
0
VERTEX
8
0
10
17.79583125
20
47.486193750000005
30
0
42
0.7196762656629933
0
VERTEX
8
0
10
18.107784375
20
47.472240625000005
30
0
0
VERTEX
8
0
10
18.2464625
20
47.807043750000005
30
0
0
VERTEX
8
0
10
18.542953125
20
48.103534375
30
0
0
VERTEX
8
0
10
18.930343750000002
20
48.263996875000004
30
0
0
VERTEX
8
0
10
19.349653125
20
48.263996875000004
30
0
0
VERTEX
8
0
10
19.73704375
20
48.103534375
30
0
0
VERTEX
8
0
10
20.033534375000002
20
47.807043750000005
30
0
0
VERTEX
8
0
10
20.193996875
20
47.419653125
30
0
0
VERTEX
8
0
10
20.193996875
20
47.00034375
30
0
0
VERTEX
8
0
10
20.033534375000002
20
46.612953125000004
30
0
0
VERTEX
8
0
10
19.731996875
20
46.311415625
30
0
42
0.4786611466316301
0
VERTEX
8
0
10
19.706353125
20
46.075668750000006
30
0
0
VERTEX
8
0
10
20.236190625000003
20
45.545834375000005
30
0
0
VERTEX
8
0
10
20.501196875
20
45.280828125
30
0
0
VERTEX
8
0
10
20.501196875
20
44.401146875
30
0
42
0.2168520177416429
0
VERTEX
8
0
10
20.55366875
20
44.28643125
30
0
0
VERTEX
8
0
10
19.4684375
20
43.2012
30
0
0
VERTEX
8
0
10
18.625
20
43.2012
30
0
42
0.06519983346043662
0
VERTEX
8
0
10
18.5996375
20
43.220175000000005
30
0
0
VERTEX
8
0
10
18.592203125
20
43.23246875
30
0
42
0.049032200372206486
0
VERTEX
8
0
10
18.575187500000002
20
43.256875
30
0
0
VERTEX
8
0
10
18.479675
20
43.362996875
30
0
42
0.013139662856957153
0
VERTEX
8
0
10
18.474162500000002
20
43.36880625
30
0
0
VERTEX
8
0
10
18.361790625
20
43.481178125
30
0
42
0.08390496785897875
0
VERTEX
8
0
10
18.334678125
20
43.52410625
30
0
0
VERTEX
8
0
10
16.679684375
20
45.3629875
30
0
42
0.013146903801868101
0
VERTEX
8
0
10
16.67416875
20
45.3688
30
0
0
VERTEX
8
0
10
16.565515625
20
45.477453125000004
30
0
0
VERTEX
8
0
10
16.573590625
20
45.63090625
30
0
42
0.01314544479052645
0
VERTEX
8
0
10
16.573800000000002
20
45.638915625
30
0
0
VERTEX
8
0
10
16.573800000000002
20
62.17385
30
0
42
0.6681786379192989
0
VERTEX
8
0
10
16.313637500000002
20
62.2816125
30
0
0
VERTEX
8
0
10
16.086190625
20
62.054162500000004
30
0
0
VERTEX
8
0
10
4.905828125
20
50.8738
30
0
0
VERTEX
8
0
10
4.6347000000000005
20
50.8738
30
0
42
0.6681786379192989
0
VERTEX
8
0
10
4.5269375
20
50.6136375
30
0
0
VERTEX
8
0
10
4.793534375
20
50.347043750000005
30
0
0
VERTEX
8
0
10
4.9539968750000005
20
49.959653125
30
0
0
VERTEX
8
0
10
4.9539968750000005
20
49.540343750000005
30
0
0
VERTEX
8
0
10
4.793534375
20
49.152953125
30
0
0
VERTEX
8
0
10
4.4970437500000005
20
48.8564625
30
0
0
VERTEX
8
0
10
4.109653125
20
48.696000000000005
30
0
0
VERTEX
8
0
10
3.6903437500000003
20
48.696000000000005
30
0
0
VERTEX
8
0
10
3.302953125
20
48.8564625
30
0
0
VERTEX
8
0
10
3.0064625
20
49.152953125
30
0
0
VERTEX
8
0
10
2.846
20
49.540343750000005
30
0
0
VERTEX
8
0
10
2.846
20
49.959653125
30
0
0
VERTEX
8
0
10
3.0064625
20
50.347043750000005
30
0
0
VERTEX
8
0
10
3.3080000000000003
20
50.64858125
30
0
42
0.4786611466316301
0
VERTEX
8
0
10
3.3336437500000002
20
50.884328125
30
0
0
VERTEX
8
0
10
3.0791625000000002
20
51.13880625
30
0
0
VERTEX
8
0
10
2.5762
20
51.641768750000004
30
0
0
VERTEX
8
0
10
2.5762
20
52.983228125000004
30
0
0
VERTEX
8
0
10
2.76380625
20
53.170834375000005
30
0
0
VERTEX
8
0
10
3.308434375
20
53.715459375
30
0
42
0.41421356237309503
0
VERTEX
8
0
10
3.308434375
20
53.930984375
30
0
0
VERTEX
8
0
10
3.0064625
20
54.232953125
30
0
0
VERTEX
8
0
10
2.846
20
54.62034375
30
0
0
VERTEX
8
0
10
2.846
20
55.039653125
30
0
0
VERTEX
8
0
10
2.8980312500000003
20
55.16526875
30
0
0
VERTEX
8
0
10
3.5538812500000003
20
55.821118750000004
30
0
42
0.039055639702834134
0
VERTEX
8
0
10
3.56115
20
55.830484375000005
30
0
0
VERTEX
8
0
10
3.6903437500000003
20
55.883996875
30
0
0
VERTEX
8
0
10
4.109653125
20
55.883996875
30
0
0
VERTEX
8
0
10
4.4970437500000005
20
55.723534375
30
0
0
VERTEX
8
0
10
4.793534375
20
55.42704375
30
0
0
VERTEX
8
0
10
4.9539968750000005
20
55.039653125
30
0
0
VERTEX
8
0
10
4.9539968750000005
20
54.62034375
30
0
0
VERTEX
8
0
10
4.793534375
20
54.232953125
30
0
0
VERTEX
8
0
10
4.4970437500000005
20
53.936462500000005
30
0
0
VERTEX
8
0
10
4.345278125
20
53.8736
30
0
42
0.30335085355011276
0
VERTEX
8
0
10
4.251196875
20
53.732800000000005
30
0
0
VERTEX
8
0
10
4.251196875
20
53.59416875
30
0
42
0.7028738274509021
0
VERTEX
8
0
10
4.2435625
20
53.288528125
30
0
0
VERTEX
8
0
10
4.4970437500000005
20
53.183534375
30
0
0
VERTEX
8
0
10
4.793534375
20
52.887043750000004
30
0
42
0.38397862864059473
0
VERTEX
8
0
10
4.951634375
20
52.751196875000005
30
0
0
VERTEX
8
0
10
5.15604375
20
52.751196875000005
30
0
42
0.198912367379658
0
VERTEX
8
0
10
5.26380625
20
52.795834375000005
30
0
0
VERTEX
8
0
10
11.191762500000001
20
58.7237875
30
0
42
0.5251121376271743
0
VERTEX
8
0
10
11.133253125000001
20
58.975753125000004
30
0
0
VERTEX
8
0
10
10.991684375
20
59.0478875
30
0
0
VERTEX
8
0
10
10.86333125
20
59.141140625000006
30
0
0
VERTEX
8
0
10
10.751140625
20
59.25333125
30
0
0
VERTEX
8
0
10
10.657887500000001
20
59.381684375000006
30
0
0
VERTEX
8
0
10
10.58585
20
59.5230625
30
0
0
VERTEX
8
0
10
10.54135625
20
59.659993750000005
30
0
0
VERTEX
8
0
10
11.422378125
20
59.659993750000005
30
0
42
0.3844591157128351
0
VERTEX
8
0
10
11.573975
20
59.796778125
30
0
0
VERTEX
8
0
10
11.574778125
20
59.812393750000005
30
0
42
0.11142443262171922
0
VERTEX
8
0
10
11.576459375
20
59.855218750000006
30
0
0
VERTEX
8
0
10
11.617600000000001
20
59.855218750000006
30
0
42
0.41421356237309503
0
VERTEX
8
0
10
11.770000000000001
20
60.007618750000006
30
0
0
VERTEX
8
0
10
11.770000000000001
20
60.888640625
30
0
0
VERTEX
8
0
10
11.906934375
20
60.844146875
30
0
0
VERTEX
8
0
10
12.0483125
20
60.772109375
30
0
0
VERTEX
8
0
10
12.176665625
20
60.67885625
30
0
0
VERTEX
8
0
10
12.28885625
20
60.566665625000006
30
0
0
VERTEX
8
0
10
12.382109375
20
60.4383125
30
0
0
VERTEX
8
0
10
12.455853125
20
60.2935875
30
0
42
0.5475942332524576
0
VERTEX
8
0
10
12.706209375
20
60.238234375000005
30
0
0
VERTEX
8
0
10
15.1791625
20
62.711190625
30
0
42
0.198912367379658
0
VERTEX
8
0
10
15.2238
20
62.818953125
30
0
0
VERTEX
8
0
10
15.2238
20
70.63082812500001
30
0
0
VERTEX
8
0
10
18.1998375
20
73.6068625
30
0
42
0.8206803263371191
0
VERTEX
8
0
10
18.033753125
20
73.855425
30
0
0
VERTEX
8
0
10
17.926503125
20
73.811
30
0
0
VERTEX
8
0
10
17.453490625
20
73.811
30
0
0
VERTEX
8
0
10
17.20429375
20
73.91422187500001
30
0
42
0.3033476855734221
0
VERTEX
8
0
10
17.038209375
20
73.881184375
30
0
0
VERTEX
8
0
10
8.295834375
20
65.13880625
30
0
42
0.198912367379658
0
VERTEX
8
0
10
8.251196875
20
65.03104375000001
30
0
0
VERTEX
8
0
10
8.251196875
20
60.977040625
30
0
42
0.534512315628043
0
VERTEX
8
0
10
8.46191875
20
60.836240625
30
0
0
VERTEX
8
0
10
8.770346875
20
60.963996875
30
0
0
VERTEX
8
0
10
9.189653125000001
20
60.963996875
30
0
0
VERTEX
8
0
10
9.57704375
20
60.803534375000005
30
0
0
VERTEX
8
0
10
9.873534375
20
60.50704375
30
0
0
VERTEX
8
0
10
10.033996875
20
60.119653125000006
30
0
0
VERTEX
8
0
10
10.033996875
20
59.70034375
30
0
0
VERTEX
8
0
10
9.992571875000001
20
59.600334375
30
0
0
VERTEX
8
0
10
9.2896625
20
58.897425000000005
30
0
0
VERTEX
8
0
10
9.189653125000001
20
58.856
30
0
0
VERTEX
8
0
10
8.77034375
20
58.856
30
0
0
VERTEX
8
0
10
8.382953125
20
59.0164625
30
0
0
VERTEX
8
0
10
8.073484375
20
59.325934375
30
0
42
0.41421356237309503
0
VERTEX
8
0
10
7.857959375
20
59.325934375
30
0
0
VERTEX
8
0
10
5.530828125
20
56.9988
30
0
0
VERTEX
8
0
10
4.9889125000000005
20
56.9988
30
0
42
0.30335085355011276
0
VERTEX
8
0
10
4.8481125
20
56.90471875
30
0
0
VERTEX
8
0
10
4.793534375
20
56.772953125
30
0
0
VERTEX
8
0
10
4.4970437500000005
20
56.476462500000004
30
0
0
VERTEX
8
0
10
4.43605625
20
56.4512
30
0
0
VERTEX
8
0
10
3.5315625
20
56.4512
30
0
0
VERTEX
8
0
10
2.9512
20
57.0315625
30
0
0
VERTEX
8
0
10
2.9512
20
57.833628125000004
30
0
0
VERTEX
8
0
10
3.0064625
20
57.96704375
30
0
0
VERTEX
8
0
10
3.302953125
20
58.263534375000006
30
0
0
VERTEX
8
0
10
3.6903437500000003
20
58.423996875
30
0
0
VERTEX
8
0
10
4.109653125
20
58.423996875
30
0
0
VERTEX
8
0
10
4.4970437500000005
20
58.263534375000006
30
0
0
VERTEX
8
0
10
4.793534375
20
57.96704375
30
0
0
VERTEX
8
0
10
4.843971875
20
57.845275
30
0
42
0.30334568164182046
0
VERTEX
8
0
10
4.984771875
20
57.751196875000005
30
0
0
VERTEX
8
0
10
5.15604375
20
57.751196875000005
30
0
42
0.198912367379658
0
VERTEX
8
0
10
5.26380625
20
57.795834375000005
30
0
0
VERTEX
8
0
10
6.135271875
20
58.667300000000004
30
0
42
0.5345160454881743
0
VERTEX
8
0
10
6.085828125
20
58.9158625
30
0
0
VERTEX
8
0
10
5.842953125
20
59.0164625
30
0
0
VERTEX
8
0
10
5.5464625000000005
20
59.312953125
30
0
0
VERTEX
8
0
10
5.386
20
59.70034375
30
0
0
VERTEX
8
0
10
5.386
20
60.119653125000006
30
0
0
VERTEX
8
0
10
5.5464625000000005
20
60.50704375
30
0
0
VERTEX
8
0
10
5.842953125
20
60.803534375000005
30
0
0
VERTEX
8
0
10
6.23034375
20
60.963996875
30
0
0
VERTEX
8
0
10
6.649653125
20
60.963996875
30
0
0
VERTEX
8
0
10
7.0370437500000005
20
60.803534375000005
30
0
0
VERTEX
8
0
10
7.2386375
20
60.601937500000005
30
0
42
0.6681786379192989
0
VERTEX
8
0
10
7.4988
20
60.709700000000005
30
0
0
VERTEX
8
0
10
7.4988
20
65.405828125
30
0
0
VERTEX
8
0
10
15.728121875000001
20
73.635146875
30
0
42
0.8206803263371191
0
VERTEX
8
0
10
15.5620375
20
73.88370937500001
30
0
0
VERTEX
8
0
10
15.386503125
20
73.811
30
0
0
VERTEX
8
0
10
14.913490625000001
20
73.811
30
0
0
VERTEX
8
0
10
14.47648125
20
73.99201562500001
30
0
0
VERTEX
8
0
10
14.142015625
20
74.32648125
30
0
0
VERTEX
8
0
10
14.020796875
20
74.61913125000001
30
0
42
0.6681828341480355
0
VERTEX
8
0
10
13.739196875000001
20
74.619128125
30
0
0
VERTEX
8
0
10
13.617981250000001
20
74.32648125
30
0
0
VERTEX
8
0
10
13.283515625000001
20
73.99201562500001
30
0
0
VERTEX
8
0
10
12.846506250000001
20
73.811
30
0
0
VERTEX
8
0
10
12.373490625
20
73.811
30
0
0
VERTEX
8
0
10
11.93648125
20
73.99201562500001
30
0
0
VERTEX
8
0
10
11.602015625
20
74.32648125
30
0
0
VERTEX
8
0
10
11.480796875000001
20
74.61913125000001
30
0
42
0.6681828341480355
0
VERTEX
8
0
10
11.199196875
20
74.619128125
30
0
0
VERTEX
8
0
10
11.07798125
20
74.32648125
30
0
0
VERTEX
8
0
10
10.743515625
20
73.99201562500001
30
0
0
VERTEX
8
0
10
10.470275
20
73.8788375
30
0
42
0.30334568164182046
0
VERTEX
8
0
10
10.376196875
20
73.7380375
30
0
0
VERTEX
8
0
10
10.376196875
20
71.49416875
30
0
0
VERTEX
8
0
10
4.420834375
20
65.53880625000001
30
0
42
0.198912367379658
0
VERTEX
8
0
10
4.376196875000001
20
65.43104375
30
0
0
VERTEX
8
0
10
4.376196875000001
20
60.955421875000006
30
0
42
0.22174804866288833
0
VERTEX
8
0
10
4.430659375
20
60.83865625
30
0
0
VERTEX
8
0
10
4.4394875
20
60.832662500000005
30
0
42
0.09378764834222936
0
VERTEX
8
0
10
4.4970437500000005
20
60.803534375000005
30
0
0
VERTEX
8
0
10
4.793534375
20
60.50704375
30
0
0
VERTEX
8
0
10
4.9539968750000005
20
60.119653125000006
30
0
0
VERTEX
8
0
10
4.9539968750000005
20
59.70034375
30
0
0
VERTEX
8
0
10
4.793534375
20
59.312953125
30
0
0
VERTEX
8
0
10
4.4970437500000005
20
59.0164625
30
0
0
VERTEX
8
0
10
4.109653125
20
58.856
30
0
0
VERTEX
8
0
10
3.6903437500000003
20
58.856
30
0
0
VERTEX
8
0
10
3.302953125
20
59.0164625
30
0
0
VERTEX
8
0
10
3.0064625
20
59.312953125
30
0
0
VERTEX
8
0
10
2.9512
20
59.446368750000005
30
0
0
VERTEX
8
0
10
2.9512
20
60.373628125
30
0
0
VERTEX
8
0
10
3.0064625
20
60.50704375
30
0
0
VERTEX
8
0
10
3.302953125
20
60.803534375000005
30
0
0
VERTEX
8
0
10
3.5297187500000002
20
60.8974625
30
0
42
0.30335085355011276
0
VERTEX
8
0
10
3.6238
20
61.0382625
30
0
0
VERTEX
8
0
10
3.6238
20
65.805828125
30
0
0
VERTEX
8
0
10
9.5791625
20
71.761190625
30
0
42
0.198912367379658
0
VERTEX
8
0
10
9.623800000000001
20
71.868953125
30
0
0
VERTEX
8
0
10
9.623800000000001
20
73.796028125
30
0
42
0.30335085355011276
0
VERTEX
8
0
10
9.52971875
20
73.936828125
30
0
0
VERTEX
8
0
10
9.39648125
20
73.99201562500001
30
0
0
VERTEX
8
0
10
9.062015625
20
74.32648125
30
0
0
VERTEX
8
0
10
8.91241875
20
74.68764375
30
0
42
0.6969605467877257
0
VERTEX
8
0
10
8.626678125
20
74.676415625
30
0
0
VERTEX
8
0
10
8.589259375000001
20
74.56124687500001
30
0
0
VERTEX
8
0
10
8.507571875
20
74.40092812500001
30
0
0
VERTEX
8
0
10
8.401828125
20
74.255384375
30
0
0
VERTEX
8
0
10
8.2746125
20
74.12816875
30
0
0
VERTEX
8
0
10
8.12906875
20
74.022425
30
0
0
VERTEX
8
0
10
7.96875
20
73.9407375
30
0
0
VERTEX
8
0
10
7.7976656250000005
20
73.885146875
30
0
0
VERTEX
8
0
10
7.784000000000001
20
73.882984375
30
0
0
VERTEX
8
0
10
7.784000000000001
20
74.89837812500001
30
0
42
0.41421356237309503
0
VERTEX
8
0
10
7.631600000000001
20
75.05077812500001
30
0
0
VERTEX
8
0
10
7.5867031250000005
20
75.05077812500001
30
0
42
0.5605023316616333
0
VERTEX
8
0
10
7.42078125
20
75.0505875
30
0
0
VERTEX
8
0
10
7.40930625
20
75.0488375
30
0
42
0.37771889582429974
0
VERTEX
8
0
10
7.2759937500000005
20
74.89837812500001
30
0
0
VERTEX
8
0
10
7.2759937500000005
20
73.882984375
30
0
0
VERTEX
8
0
10
7.26233125
20
73.885146875
30
0
0
VERTEX
8
0
10
7.091246875
20
73.9407375
30
0
0
VERTEX
8
0
10
6.930928125
20
74.022425
30
0
0
VERTEX
8
0
10
6.7853843750000005
20
74.12816875
30
0
0
VERTEX
8
0
10
6.658168750000001
20
74.255384375
30
0
0
VERTEX
8
0
10
6.552425
20
74.40092812500001
30
0
0
VERTEX
8
0
10
6.4707375
20
74.56124687500001
30
0
0
VERTEX
8
0
10
6.433318750000001
20
74.676415625
30
0
42
0.6969605467877257
0
VERTEX
8
0
10
6.147578125
20
74.68764375
30
0
0
VERTEX
8
0
10
6.012796875
20
74.36225312500001
30
0
42
0.09849232979280607
0
VERTEX
8
0
10
6.001196875000001
20
74.30393125
30
0
0
VERTEX
8
0
10
6.001196875000001
20
74.21916875000001
30
0
0
VERTEX
8
0
10
5.780828125
20
73.9988
30
0
42
0.5618637119996815
0
VERTEX
8
0
10
5.54749375
20
73.842128125
30
0
0
VERTEX
8
0
10
5.54749375
20
72.92910625
30
0
42
0.198912367379658
0
VERTEX
8
0
10
5.59213125
20
72.82134375
30
0
0
VERTEX
8
0
10
6.120796875
20
72.29267812500001
30
0
0
VERTEX
8
0
10
6.120796875
20
69.70731875
30
0
0
VERTEX
8
0
10
2.0970343750000002
20
65.68355625000001
30
0
42
0.198912367379658
0
VERTEX
8
0
10
2.052396875
20
65.57579375
30
0
0
VERTEX
8
0
10
2.052396875
20
40.650512500000005
30
0
42
0.198912367379658
0
VERTEX
8
0
10
2.0970343750000002
20
40.542750000000005
30
0
0
VERTEX
8
0
10
2.542753125
20
40.097034375
30
0
42
0.198912367379658
0
VERTEX
8
0
10
2.650515625
20
40.052396875
30
0
0
VERTEX
8
0
10
2.848859375
20
40.052396875
30
0
42
0.2671450703474801
0
VERTEX
8
0
10
2.980259375
20
40.128406250000005
30
0
0
VERTEX
8
0
10
2.98294375
20
40.13235625
30
0
42
0.08485804894494486
0
VERTEX
8
0
10
3.0064625
20
40.18704375
30
0
0
VERTEX
8
0
10
3.302953125
20
40.483534375000005
30
0
0
VERTEX
8
0
10
3.6903437500000003
20
40.643996875
30
0
0
VERTEX
8
0
10
3.873240625
20
40.643996875
30
0
0
VERTEX
8
0
10
3.94611875
20
40.571118750000004
30
0
42
0.198912367379658
0
VERTEX
8
0
10
4
20
40.5488
30
0
0
VERTEX
8
0
10
4.339478125
20
40.5488
30
0
0
VERTEX
8
0
10
4.3462375
20
40.546
30
0
0
VERTEX
8
0
10
4.856
20
40.0362375
30
0
0
VERTEX
8
0
10
4.9238
20
39.87255625
30
0
0
VERTEX
8
0
10
4.9238
20
39.307440625000005
30
0
0
VERTEX
8
0
10
4.793534375
20
38.992953125
30
0
0
VERTEX
8
0
10
4.4970437500000005
20
38.6964625
30
0
0
VERTEX
8
0
10
4.109653125
20
38.536
30
0
0
VERTEX
8
0
10
3.6903437500000003
20
38.536
30
0
0
VERTEX
8
0
10
3.302953125
20
38.6964625
30
0
0
VERTEX
8
0
10
3.112559375
20
38.886859375
30
0
42
0.6681786379192989
0
VERTEX
8
0
10
2.852396875
20
38.779096875
30
0
0
VERTEX
8
0
10
2.852396875
20
37.8609
30
0
42
0.6681786379192989
0
VERTEX
8
0
10
3.112559375
20
37.7531375
30
0
0
VERTEX
8
0
10
3.302953125
20
37.943534375
30
0
0
VERTEX
8
0
10
3.6903437500000003
20
38.103996875
30
0
0
VERTEX
8
0
10
4.109653125
20
38.103996875
30
0
0
VERTEX
8
0
10
4.4970437500000005
20
37.943534375
30
0
0
VERTEX
8
0
10
4.793534375
20
37.64704375
30
0
0
VERTEX
8
0
10
4.9238
20
37.33255625
30
0
0
VERTEX
8
0
10
4.9238
20
36.767440625
30
0
0
VERTEX
8
0
10
4.793534375
20
36.452953125
30
0
0
VERTEX
8
0
10
4.4970437500000005
20
36.1564625
30
0
0
VERTEX
8
0
10
4.109653125
20
35.996
30
0
0
VERTEX
8
0
10
3.6903437500000003
20
35.996
30
0
0
VERTEX
8
0
10
3.302953125
20
36.1564625
30
0
0
VERTEX
8
0
10
3.112559375
20
36.346859375
30
0
42
0.6681786379192989
0
VERTEX
8
0
10
2.852396875
20
36.239096875
30
0
0
VERTEX
8
0
10
2.852396875
20
35.252040625
30
0
42
0.6657644496813949
0
VERTEX
8
0
10
3.13115625
20
35.16668125
30
0
0
VERTEX
8
0
10
3.24333125
20
35.278856250000004
30
0
0
VERTEX
8
0
10
3.371684375
20
35.372109375
30
0
0
VERTEX
8
0
10
3.5130625
20
35.444146875
30
0
0
VERTEX
8
0
10
3.64999375
20
35.488640625
30
0
0
VERTEX
8
0
10
3.64999375
20
34.60761875
30
0
42
0.114284966493578
0
VERTEX
8
0
10
3.665509375
20
34.540621875
30
0
0
VERTEX
8
0
10
3.6716625
20
34.530728125
30
0
42
0.18603552950703328
0
VERTEX
8
0
10
3.64999375
20
34.412378125000004
30
0
0
VERTEX
8
0
10
3.64999375
20
33.53135625
30
0
0
VERTEX
8
0
10
3.5130625
20
33.57585
30
0
0
VERTEX
8
0
10
3.371684375
20
33.6478875
30
0
0
VERTEX
8
0
10
3.24333125
20
33.741140625
30
0
0
VERTEX
8
0
10
3.13115625
20
33.853315625
30
0
42
0.7396899834557362
0
VERTEX
8
0
10
2.852396875
20
33.767956250000005
30
0
0
VERTEX
8
0
10
2.852396875
20
32.7809
30
0
42
0.6681786379192989
0
VERTEX
8
0
10
3.112559375
20
32.6731375
30
0
0
VERTEX
8
0
10
3.302953125
20
32.863534375
30
0
0
VERTEX
8
0
10
3.6903437500000003
20
33.023996875
30
0
0
VERTEX
8
0
10
4.109653125
20
33.023996875
30
0
0
VERTEX
8
0
10
4.3377
20
32.9295375
30
0
0
VERTEX
8
0
10
4.8595375
20
32.4077
30
0
0
VERTEX
8
0
10
4.9539968750000005
20
32.179653125
30
0
0
VERTEX
8
0
10
4.9539968750000005
20
31.76034375
30
0
0
VERTEX
8
0
10
4.793534375
20
31.372953125000002
30
0
0
VERTEX
8
0
10
4.4970437500000005
20
31.0764625
30
0
0
VERTEX
8
0
10
4.109653125
20
30.916
30
0
0
VERTEX
8
0
10
3.6903437500000003
20
30.916
30
0
0
VERTEX
8
0
10
3.302953125
20
31.0764625
30
0
0
VERTEX
8
0
10
3.112559375
20
31.266859375000003
30
0
42
0.6681786379192989
0
VERTEX
8
0
10
2.852396875
20
31.159096875000003
30
0
0
VERTEX
8
0
10
2.852396875
20
8.050515625000001
30
0
42
0.198912367379658
0
VERTEX
8
0
10
2.897034375
20
7.942753125
30
0
0
VERTEX
8
0
10
6.3636375
20
4.476146875
30
0
42
0.104776703296959
0
VERTEX
8
0
10
6.416665625
20
4.441871875
30
0
0
VERTEX
8
0
10
6.418396875
20
4.441021875000001
30
0
42
0.10125604799216754
0
VERTEX
8
0
10
6.459537500000001
20
4.4327000000000005
30
0
0
VERTEX
8
0
10
7.44611875
20
3.44611875
30
0
42
0.198912367379658
0
VERTEX
8
0
10
7.5
20
3.4238
30
0
0
VERTEX
8
0
10
13
20
3.4238
30
0
0
SEQEND
0
POLYLINE
66
1
8
16_copper
10
0.0
20
0.0
30
0.0
70
1
0
VERTEX
8
0
10
16.41755625
20
74.377690625
30
0
42
0.0682690274954603
0
VERTEX
8
0
10
16.462178125
20
74.388378125
30
0
0
VERTEX
8
0
10
16.4758
20
74.39360625
30
0
42
0.971903920909595
0
VERTEX
8
0
10
16.3800625
20
74.707884375
30
0
0
VERTEX
8
0
10
16.36743125
20
74.70303750000001
30
0
42
0.4478970838149414
0
VERTEX
8
0
10
16.26325625
20
74.48165625
30
0
0
VERTEX
8
0
10
16.26779375
20
74.46780625000001
30
0
42
0.023224980474160203
0
VERTEX
8
0
10
16.275934375000002
20
74.453559375
30
0
0
VERTEX
8
0
10
16.283084375
20
74.44104375
30
0
42
0.05380867240737973
0
VERTEX
8
0
10
16.30484375
20
74.41662500000001
30
0
0
VERTEX
8
0
10
16.316396875000002
20
74.408128125
30
0
0
VERTEX
8
0
10
16.328046875000002
20
74.39933437500001
30
0
42
0.003110467414356743
0
VERTEX
8
0
10
16.329675
20
74.3983625
30
0
0
VERTEX
8
0
10
16.34276875
20
74.392334375
30
0
0
VERTEX
8
0
10
16.355884375000002
20
74.386096875
30
0
0
VERTEX
8
0
10
16.356809375
20
74.38586875
30
0
0
VERTEX
8
0
10
16.357671875
20
74.38547187500001
30
0
0
VERTEX
8
0
10
16.371765625000002
20
74.3821875
30
0
0
VERTEX
8
0
10
16.3858125
20
74.37873125
30
0
0
VERTEX
8
0
10
16.3867625
20
74.37869375
30
0
0
VERTEX
8
0
10
16.387690625
20
74.378478125
30
0
0
VERTEX
8
0
10
16.4021125
20
74.378096875
30
0
0
VERTEX
8
0
10
16.4166125
20
74.37753437500001
30
0
0
SEQEND
0
POLYLINE
66
1
8
16_copper
10
0.0
20
0.0
30
0.0
70
1
0
VERTEX
8
0
10
20.286421875000002
20
57.62351875
30
0
42
0.184328151799837
0
VERTEX
8
0
10
20.385628125
20
57.667653125
30
0
0
VERTEX
8
0
10
36.942440625
20
74.22446562500001
30
0
42
0.3033476855734221
0
VERTEX
8
0
10
36.975478125
20
74.39055
30
0
0
VERTEX
8
0
10
36.880796875
20
74.619128125
30
0
42
0.6681828341480355
0
VERTEX
8
0
10
36.599196875000004
20
74.619125
30
0
0
VERTEX
8
0
10
36.47798125
20
74.32648125
30
0
0
VERTEX
8
0
10
36.143515625
20
73.99201562500001
30
0
0
VERTEX
8
0
10
35.706506250000004
20
73.811
30
0
0
VERTEX
8
0
10
35.233490625
20
73.811
30
0
0
VERTEX
8
0
10
34.79648125
20
73.99201562500001
30
0
0
VERTEX
8
0
10
34.580525
20
74.207975
30
0
42
0.4142178091166836
0
VERTEX
8
0
10
34.364996875
20
74.207975
30
0
0
VERTEX
8
0
10
34.2361875
20
74.07916250000001
30
0
0
VERTEX
8
0
10
34.236175
20
74.079146875
30
0
0
VERTEX
8
0
10
20.238634375
20
60.08160625
30
0
42
0.198912367379658
0
VERTEX
8
0
10
20.193996875
20
59.97384375
30
0
0
VERTEX
8
0
10
20.193996875
20
59.70034375
30
0
0
VERTEX
8
0
10
20.033534375000002
20
59.312953125
30
0
0
VERTEX
8
0
10
19.73704375
20
59.0164625
30
0
0
VERTEX
8
0
10
19.349653125
20
58.856
30
0
0
VERTEX
8
0
10
18.930343750000002
20
58.856
30
0
0
VERTEX
8
0
10
18.542953125
20
59.0164625
30
0
0
VERTEX
8
0
10
18.386359375
20
59.173059375
30
0
42
0.6681786379192989
0
VERTEX
8
0
10
18.126196875
20
59.065296875
30
0
0
VERTEX
8
0
10
18.126196875
20
58.2147
30
0
42
0.6681786379192989
0
VERTEX
8
0
10
18.386359375
20
58.1069375
30
0
0
VERTEX
8
0
10
18.542953125
20
58.263534375000006
30
0
0
VERTEX
8
0
10
18.930343750000002
20
58.423996875
30
0
0
VERTEX
8
0
10
19.349653125
20
58.423996875
30
0
0
VERTEX
8
0
10
19.73704375
20
58.263534375000006
30
0
0
VERTEX
8
0
10
20.033534375000002
20
57.96704375
30
0
0
VERTEX
8
0
10
20.137065625
20
57.717093750000004
30
0
0
VERTEX
8
0
10
20.138425
20
57.714568750000005
30
0
0
VERTEX
8
0
10
20.13935
20
57.711859375
30
0
0
VERTEX
8
0
10
20.145721875
20
57.70101875
30
0
0
VERTEX
8
0
10
20.15168125
20
57.68995625
30
0
0
VERTEX
8
0
10
20.15351875
20
57.687759375000006
30
0
0
VERTEX
8
0
10
20.154971875
20
57.6852875
30
0
0
VERTEX
8
0
10
20.163390625
20
57.675956250000006
30
0
0
VERTEX
8
0
10
20.171456250000002
20
57.666315625
30
0
0
VERTEX
8
0
10
20.173703125
20
57.66453125
30
0
0
VERTEX
8
0
10
20.175621875
20
57.662403125000004
30
0
0
VERTEX
8
0
10
20.18574375
20
57.654959375000004
30
0
0
VERTEX
8
0
10
20.195587500000002
20
57.647134375
30
0
0
VERTEX
8
0
10
20.19814375
20
57.645840625000005
30
0
0
VERTEX
8
0
10
20.200453125
20
57.644140625000006
30
0
0
VERTEX
8
0
10
20.21186875
20
57.638884375
30
0
0
VERTEX
8
0
10
20.22308125
20
57.633203125
30
0
0
VERTEX
8
0
10
20.225846875000002
20
57.632446875
30
0
0
VERTEX
8
0
10
20.228450000000002
20
57.63125
30
0
0
VERTEX
8
0
10
20.24065625
20
57.628406250000005
30
0
0
VERTEX
8
0
10
20.252815625
20
57.6250875
30
0
0
VERTEX
8
0
10
20.2556875
20
57.624903125
30
0
0
VERTEX
8
0
10
20.258468750000002
20
57.62425625
30
0
0
VERTEX
8
0
10
20.270993750000002
20
57.623925
30
0
0
VERTEX
8
0
10
20.283578125000002
20
57.623121875
30
0
0
SEQEND
0
POLYLINE
66
1
8
16_copper
10
0.0
20
0.0
30
0.0
70
1
0
VERTEX
8
0
10
17.9131
20
60.749225
30
0
42
0.1827255711104525
0
VERTEX
8
0
10
18.011359375
20
60.793384375
30
0
0
VERTEX
8
0
10
30.771803125
20
73.55382812500001
30
0
42
0.6958875536803908
0
VERTEX
8
0
10
30.638125000000002
20
73.811
30
0
0
VERTEX
8
0
10
30.153490625
20
73.811
30
0
0
VERTEX
8
0
10
29.71648125
20
73.99201562500001
30
0
0
VERTEX
8
0
10
29.382015625
20
74.32648125
30
0
0
VERTEX
8
0
10
29.260796875
20
74.619128125
30
0
42
0.6681828341480355
0
VERTEX
8
0
10
28.979196875000003
20
74.619125
30
0
0
VERTEX
8
0
10
28.85798125
20
74.32648125
30
0
0
VERTEX
8
0
10
28.523515625
20
73.99201562500001
30
0
0
VERTEX
8
0
10
28.086506250000003
20
73.811
30
0
0
VERTEX
8
0
10
27.613490625
20
73.811
30
0
0
VERTEX
8
0
10
27.339546875
20
73.92447187500001
30
0
42
0.3033476855734221
0
VERTEX
8
0
10
27.173462500000003
20
73.891434375
30
0
0
VERTEX
8
0
10
17.795834375000002
20
64.51380625
30
0
42
0.198912367379658
0
VERTEX
8
0
10
17.751196875
20
64.40604375000001
30
0
0
VERTEX
8
0
10
17.751196875
20
60.901146875
30
0
0
VERTEX
8
0
10
17.751390625
20
60.899246875
30
0
0
VERTEX
8
0
10
17.75124375
20
60.897337500000006
30
0
0
VERTEX
8
0
10
17.752940625
20
60.88396875
30
0
0
VERTEX
8
0
10
17.7543125
20
60.870481250000005
30
0
0
VERTEX
8
0
10
17.754890625
20
60.868643750000004
30
0
0
VERTEX
8
0
10
17.755128125000002
20
60.8667625
30
0
0
VERTEX
8
0
10
17.759478125
20
60.854009375000004
30
0
0
VERTEX
8
0
10
17.7635375
20
60.841071875000004
30
0
0
VERTEX
8
0
10
17.7644625
20
60.83940625
30
0
0
VERTEX
8
0
10
17.76508125
20
60.837590625000004
30
0
0
VERTEX
8
0
10
17.771959375
20
60.825890625
30
0
0
VERTEX
8
0
10
17.778490625
20
60.814118750000006
30
0
0
VERTEX
8
0
10
17.77973125
20
60.812675000000006
30
0
0
VERTEX
8
0
10
17.780703125000002
20
60.81101875
30
0
0
VERTEX
8
0
10
17.789765625
20
60.800975
30
0
0
VERTEX
8
0
10
17.798559375
20
60.790725
30
0
0
VERTEX
8
0
10
17.800075
20
60.789550000000006
30
0
0
VERTEX
8
0
10
17.801353125000002
20
60.788134375000006
30
0
0
VERTEX
8
0
10
17.812221875000002
20
60.780140625
30
0
0
VERTEX
8
0
10
17.822928125
20
60.771846875
30
0
0
VERTEX
8
0
10
17.824646875
20
60.771003125
30
0
0
VERTEX
8
0
10
17.826184375
20
60.769871875
30
0
0
VERTEX
8
0
10
17.838421875
20
60.7642375
30
0
0
VERTEX
8
0
10
17.85059375
20
60.758259375
30
0
0
VERTEX
8
0
10
17.852453125
20
60.757778125
30
0
0
VERTEX
8
0
10
17.85418125
20
60.75698125
30
0
0
VERTEX
8
0
10
17.8673
20
60.753925
30
0
0
VERTEX
8
0
10
17.880428125
20
60.750518750000005
30
0
0
VERTEX
8
0
10
17.882340625
20
60.750421875
30
0
0
VERTEX
8
0
10
17.8842
20
60.7499875
30
0
0
VERTEX
8
0
10
17.8977
20
60.74963125
30
0
0
VERTEX
8
0
10
17.911209375000002
20
60.748937500000004
30
0
0
SEQEND
0
POLYLINE
66
1
8
16_copper
10
0.0
20
0.0
30
0.0
70
1
0
VERTEX
8
0
10
16.1381
20
66.474225
30
0
42
0.1827255711104525
0
VERTEX
8
0
10
16.236359375
20
66.518384375
30
0
0
VERTEX
8
0
10
22.756612500000003
20
73.03863750000001
30
0
42
0.6681786379192989
0
VERTEX
8
0
10
22.64885
20
73.2988
30
0
0
VERTEX
8
0
10
22.437934375
20
73.2988
30
0
42
0.09758481025784266
0
VERTEX
8
0
10
22.373684375
20
73.28414375
30
0
0
VERTEX
8
0
10
22.23850625
20
73.29800625
30
0
42
0.0255582885129326
0
VERTEX
8
0
10
22.22295625
20
73.2988
30
0
0
VERTEX
8
0
10
22.086818750000003
20
73.2988
30
0
42
0.04274576848742465
0
VERTEX
8
0
10
22.061075000000002
20
73.311165625
30
0
0
VERTEX
8
0
10
21.975306250000003
20
73.41654062500001
30
0
42
0.025565494996718636
0
VERTEX
8
0
10
21.964871875
20
73.428103125
30
0
0
VERTEX
8
0
10
21.868603125
20
73.524371875
30
0
42
0.1091759402700914
0
VERTEX
8
0
10
21.839596875
20
73.58327187500001
30
0
0
VERTEX
8
0
10
21.342725
20
74.1937125
30
0
42
0.4444768726051433
0
VERTEX
8
0
10
21.116765625
20
74.20526875
30
0
0
VERTEX
8
0
10
20.903515625
20
73.99201562500001
30
0
0
VERTEX
8
0
10
20.466506250000002
20
73.811
30
0
0
VERTEX
8
0
10
19.993490625
20
73.811
30
0
0
VERTEX
8
0
10
19.716009375000002
20
73.9259375
30
0
42
0.3033476855734221
0
VERTEX
8
0
10
19.549925
20
73.8929
30
0
0
VERTEX
8
0
10
16.020834375
20
70.36380625000001
30
0
42
0.198912367379658
0
VERTEX
8
0
10
15.976196875000001
20
70.25604375
30
0
0
VERTEX
8
0
10
15.976196875000001
20
66.626146875
30
0
0
VERTEX
8
0
10
15.976390625
20
66.624246875
30
0
0
VERTEX
8
0
10
15.97624375
20
66.6223375
30
0
0
VERTEX
8
0
10
15.977940625
20
66.60896875
30
0
0
VERTEX
8
0
10
15.9793125
20
66.59548125
30
0
0
VERTEX
8
0
10
15.979890625000001
20
66.59364375
30
0
0
VERTEX
8
0
10
15.980128125
20
66.5917625
30
0
0
VERTEX
8
0
10
15.984478125
20
66.579009375
30
0
0
VERTEX
8
0
10
15.988537500000001
20
66.566071875
30
0
0
VERTEX
8
0
10
15.9894625
20
66.56440625
30
0
0
VERTEX
8
0
10
15.990081250000001
20
66.562590625
30
0
0
VERTEX
8
0
10
15.996959375000001
20
66.55089062500001
30
0
0
VERTEX
8
0
10
16.003490625
20
66.53911875
30
0
0
VERTEX
8
0
10
16.004731250000003
20
66.53767500000001
30
0
0
VERTEX
8
0
10
16.005703125
20
66.53601875
30
0
0
VERTEX
8
0
10
16.014765625
20
66.525975
30
0
0
VERTEX
8
0
10
16.023559375
20
66.515725
30
0
0
VERTEX
8
0
10
16.025075
20
66.51455
30
0
0
VERTEX
8
0
10
16.026353125
20
66.513134375
30
0
0
VERTEX
8
0
10
16.037221875
20
66.50514062500001
30
0
0
VERTEX
8
0
10
16.047928125000002
20
66.496846875
30
0
0
VERTEX
8
0
10
16.049646875
20
66.496003125
30
0
0
VERTEX
8
0
10
16.051184375000002
20
66.494871875
30
0
0
VERTEX
8
0
10
16.063421875
20
66.4892375
30
0
0
VERTEX
8
0
10
16.07559375
20
66.483259375
30
0
0
VERTEX
8
0
10
16.077453125
20
66.48277812500001
30
0
0
VERTEX
8
0
10
16.07918125
20
66.48198125
30
0
0
VERTEX
8
0
10
16.0923
20
66.478925
30
0
0
VERTEX
8
0
10
16.105428125
20
66.47551875
30
0
0
VERTEX
8
0
10
16.107340625
20
66.47542187500001
30
0
0
VERTEX
8
0
10
16.1092
20
66.4749875
30
0
0
VERTEX
8
0
10
16.122700000000002
20
66.47463125
30
0
0
VERTEX
8
0
10
16.136209375
20
66.4739375
30
0
0
SEQEND
0
POLYLINE
66
1
8
16_copper
10
0.0
20
0.0
30
0.0
70
1
0
VERTEX
8
0
10
19.820684375000003
20
60.784746875
30
0
42
0.18757811211667738
0
VERTEX
8
0
10
19.92180625
20
60.82883125
30
0
0
VERTEX
8
0
10
32.681046875
20
73.588071875
30
0
42
0.5345099562746974
0
VERTEX
8
0
10
32.631606250000004
20
73.836634375
30
0
0
VERTEX
8
0
10
32.362978125000005
20
73.94790625
30
0
42
0.3033476855734221
0
VERTEX
8
0
10
32.19689375
20
73.91486875
30
0
0
VERTEX
8
0
10
19.437653125
20
61.155628125
30
0
42
0.5345099562746974
0
VERTEX
8
0
10
19.48709375
20
60.907065625
30
0
0
VERTEX
8
0
10
19.755721875000003
20
60.79579375
30
0
0
VERTEX
8
0
10
19.7603
20
60.794421875000005
30
0
0
VERTEX
8
0
10
19.764628125
20
60.792428125
30
0
0
VERTEX
8
0
10
19.775012500000003
20
60.790009375000004
30
0
0
VERTEX
8
0
10
19.78524375
20
60.786940625
30
0
0
VERTEX
8
0
10
19.790000000000003
20
60.786515625
30
0
0
VERTEX
8
0
10
19.794646875
20
60.785434375
30
0
0
VERTEX
8
0
10
19.805315625000002
20
60.785153125
30
0
0
VERTEX
8
0
10
19.815946875
20
60.784206250000004
30
0
0
SEQEND
0
POLYLINE
66
1
8
16_copper
10
0.0
20
0.0
30
0.0
70
1
0
VERTEX
8
0
10
16.5131
20
64.899225
30
0
42
0.18273306291826927
0
VERTEX
8
0
10
16.611362500000002
20
64.9433875
30
0
0
VERTEX
8
0
10
16.682056250000002
20
65.01408437500001
30
0
42
0.0025483109275129525
0
VERTEX
8
0
10
16.68315
20
65.0151875
30
0
0
VERTEX
8
0
10
25.077334375
20
73.5828875
30
0
42
0.5312348242694953
0
VERTEX
8
0
10
25.02679375
20
73.83034375
30
0
0
VERTEX
8
0
10
24.827828125
20
73.91275625
30
0
42
0.30334251367423254
0
VERTEX
8
0
10
24.661746875000002
20
73.87971875000001
30
0
0
VERTEX
8
0
10
16.395834375
20
65.61380625
30
0
42
0.198912367379658
0
VERTEX
8
0
10
16.351196875
20
65.50604375
30
0
0
VERTEX
8
0
10
16.351196875
20
65.051146875
30
0
0
VERTEX
8
0
10
16.351390625
20
65.04924687500001
30
0
0
VERTEX
8
0
10
16.351243750000002
20
65.047334375
30
0
0
VERTEX
8
0
10
16.35294375
20
65.033953125
30
0
0
VERTEX
8
0
10
16.354312500000002
20
65.02048125
30
0
0
VERTEX
8
0
10
16.3548875
20
65.01864375000001
30
0
0
VERTEX
8
0
10
16.355128125
20
65.016759375
30
0
0
VERTEX
8
0
10
16.359475
20
65.004021875
30
0
0
VERTEX
8
0
10
16.3635375
20
64.991071875
30
0
0
VERTEX
8
0
10
16.364465625
20
64.989396875
30
0
0
VERTEX
8
0
10
16.365084375000002
20
64.9875875
30
0
0
VERTEX
8
0
10
16.3719375
20
64.97592812500001
30
0
0
VERTEX
8
0
10
16.378490625
20
64.96411875
30
0
0
VERTEX
8
0
10
16.379734375
20
64.96266875
30
0
0
VERTEX
8
0
10
16.38070625
20
64.961015625
30
0
0
VERTEX
8
0
10
16.3897875
20
64.95095
30
0
0
VERTEX
8
0
10
16.398559375
20
64.940725
30
0
0
VERTEX
8
0
10
16.400065625
20
64.93955625000001
30
0
0
VERTEX
8
0
10
16.401353125
20
64.93813125
30
0
0
VERTEX
8
0
10
16.41226875
20
64.93010625000001
30
0
0
VERTEX
8
0
10
16.422928125000002
20
64.921846875
30
0
0
VERTEX
8
0
10
16.424646875
20
64.921003125
30
0
0
VERTEX
8
0
10
16.426184375000002
20
64.919871875
30
0
0
VERTEX
8
0
10
16.438403125
20
64.914246875
30
0
0
VERTEX
8
0
10
16.45059375
20
64.908259375
30
0
0
VERTEX
8
0
10
16.452459375
20
64.907775
30
0
0
VERTEX
8
0
10
16.454184375
20
64.90698125
30
0
0
VERTEX
8
0
10
16.467275
20
64.90393125
30
0
0
VERTEX
8
0
10
16.480428125
20
64.90051875
30
0
0
VERTEX
8
0
10
16.482346875
20
64.90041875
30
0
0
VERTEX
8
0
10
16.484203125
20
64.89998750000001
30
0
0
VERTEX
8
0
10
16.497696875
20
64.89963125
30
0
0
VERTEX
8
0
10
16.511209375
20
64.8989375
30
0
0
SEQEND
0
POLYLINE
66
1
8
16_copper
10
0.0
20
0.0
30
0.0
70
1
0
VERTEX
8
0
10
35.203734375
20
47.89954375
30
0
42
0.1859476661714906
0
VERTEX
8
0
10
35.303896875
20
47.943653125000004
30
0
0
VERTEX
8
0
10
35.376737500000004
20
48.016496875
30
0
0
VERTEX
8
0
10
36.8464
20
48.016496875
30
0
42
0.41421356237309503
0
VERTEX
8
0
10
36.9988
20
48.168896875
30
0
0
VERTEX
8
0
10
36.9988
20
72.84885
30
0
42
0.6681786379192989
0
VERTEX
8
0
10
36.7386375
20
72.9566125
30
0
0
VERTEX
8
0
10
19.7290625
20
55.9470375
30
0
42
0.41421356237309503
0
VERTEX
8
0
10
19.7290625
20
55.7315125
30
0
0
VERTEX
8
0
10
20.033534375000002
20
55.42704375
30
0
0
VERTEX
8
0
10
20.193996875
20
55.039653125
30
0
0
VERTEX
8
0
10
20.193996875
20
54.620346875
30
0
0
VERTEX
8
0
10
20.076596875
20
54.33691875
30
0
42
0.534512315628043
0
VERTEX
8
0
10
20.217396875000002
20
54.126196875000005
30
0
0
VERTEX
8
0
10
28.905828125000003
20
54.126196875000005
30
0
0
VERTEX
8
0
10
29.170834375000002
20
53.861190625000006
30
0
0
VERTEX
8
0
10
35.08836875
20
47.943653125000004
30
0
0
VERTEX
8
0
10
35.091328125000004
20
47.9412375
30
0
0
VERTEX
8
0
10
35.0938875
20
47.938403125
30
0
0
VERTEX
8
0
10
35.103243750000004
20
47.931521875
30
0
0
VERTEX
8
0
10
35.11225625
20
47.924171875
30
0
0
VERTEX
8
0
10
35.115643750000004
20
47.922403125
30
0
0
VERTEX
8
0
10
35.11871875
20
47.920140625
30
0
0
VERTEX
8
0
10
35.129287500000004
20
47.915275
30
0
0
VERTEX
8
0
10
35.139575
20
47.9099
30
0
0
VERTEX
8
0
10
35.143240625000004
20
47.90885
30
0
0
VERTEX
8
0
10
35.146715625
20
47.907250000000005
30
0
0
VERTEX
8
0
10
35.158025
20
47.904615625000005
30
0
0
VERTEX
8
0
10
35.16920625
20
47.9014125
30
0
0
VERTEX
8
0
10
35.173025
20
47.901121875
30
0
0
VERTEX
8
0
10
35.176734375
20
47.900256250000005
30
0
0
VERTEX
8
0
10
35.188325
20
47.899950000000004
30
0
0
VERTEX
8
0
10
35.199940625
20
47.8990625
30
0
0
SEQEND
0
POLYLINE
66
1
8
16_copper
10
0.0
20
0.0
30
0.0
70
1
0
VERTEX
8
0
10
38.059815625
20
1.0161906250000001
30
0
42
0.6636741793507447
0
VERTEX
8
0
10
38.165678125
20
1.276159375
30
0
0
VERTEX
8
0
10
37.986696875
20
1.4551375
30
0
0
VERTEX
8
0
10
37.655459375
20
2.028859375
30
0
0
VERTEX
8
0
10
37.484
20
2.66875625
30
0
0
VERTEX
8
0
10
37.484
20
3.331240625
30
0
0
VERTEX
8
0
10
37.655459375
20
3.9711375
30
0
0
VERTEX
8
0
10
37.986696875
20
4.544859375000001
30
0
0
VERTEX
8
0
10
38.4551375
20
5.0133
30
0
0
VERTEX
8
0
10
39.028859375
20
5.3445375
30
0
0
VERTEX
8
0
10
39.66875625
20
5.515996875
30
0
0
VERTEX
8
0
10
40.331240625
20
5.515996875
30
0
0
VERTEX
8
0
10
40.971137500000005
20
5.3445375
30
0
0
VERTEX
8
0
10
41.544859375
20
5.0133
30
0
0
VERTEX
8
0
10
41.7238375
20
4.83431875
30
0
42
0.6681786379192989
0
VERTEX
8
0
10
41.984
20
4.94208125
30
0
0
VERTEX
8
0
10
41.984
20
17.005793750000002
30
0
42
0.42387913529019544
0
VERTEX
8
0
10
41.826596875
20
17.157868750000002
30
0
0
VERTEX
8
0
10
41.8239875
20
17.158003125
30
0
42
0.10417043186839772
0
VERTEX
8
0
10
41.7554
20
17.137775
30
0
0
VERTEX
8
0
10
41.72564375
20
17.120596875
30
0
0
VERTEX
8
0
10
41.689290625000005
20
17.1055375
30
0
0
VERTEX
8
0
10
41.65131875
20
17.0953625
30
0
0
VERTEX
8
0
10
41.61231875
20
17.090228125
30
0
0
VERTEX
8
0
10
38.420021875
20
17.090228125
30
0
0
VERTEX
8
0
10
38.381021875
20
17.0953625
30
0
0
VERTEX
8
0
10
38.343050000000005
20
17.1055375
30
0
0
VERTEX
8
0
10
38.3067
20
17.12059375
30
0
0
VERTEX
8
0
10
38.272653125000005
20
17.14025
30
0
0
VERTEX
8
0
10
38.241446875
20
17.164196875000002
30
0
0
VERTEX
8
0
10
38.21365
20
17.19199375
30
0
0
VERTEX
8
0
10
38.189703125
20
17.223200000000002
30
0
0
VERTEX
8
0
10
38.170046875000004
20
17.257246875
30
0
0
VERTEX
8
0
10
38.154990625
20
17.293596875000002
30
0
0
VERTEX
8
0
10
38.144815625
20
17.331568750000002
30
0
0
VERTEX
8
0
10
38.13968125
20
17.37056875
30
0
0
VERTEX
8
0
10
38.13968125
20
38.812321875
30
0
0
VERTEX
8
0
10
38.144815625
20
38.851321875000004
30
0
0
VERTEX
8
0
10
38.154990625
20
38.88929375
30
0
0
VERTEX
8
0
10
38.170046875000004
20
38.92564375
30
0
0
VERTEX
8
0
10
38.189703125
20
38.959690625
30
0
0
VERTEX
8
0
10
38.21364375
20
38.990890625
30
0
0
VERTEX
8
0
10
38.241446875
20
39.018693750000004
30
0
0
VERTEX
8
0
10
38.272653125000005
20
39.042640625000004
30
0
0
VERTEX
8
0
10
38.3067
20
39.062296875
30
0
0
VERTEX
8
0
10
38.343050000000005
20
39.077353125
30
0
0
VERTEX
8
0
10
38.381021875
20
39.087528125
30
0
0
VERTEX
8
0
10
38.420021875
20
39.0926625
30
0
0
VERTEX
8
0
10
41.61231875
20
39.0926625
30
0
0
VERTEX
8
0
10
41.65131875
20
39.087528125
30
0
0
VERTEX
8
0
10
41.689290625000005
20
39.077353125
30
0
42
0.7330534089884811
0
VERTEX
8
0
10
41.984
20
39.177096875000004
30
0
0
VERTEX
8
0
10
41.984
20
69.057915625
30
0
42
0.6681786379192989
0
VERTEX
8
0
10
41.7238375
20
69.165678125
30
0
0
VERTEX
8
0
10
41.544859375
20
68.986696875
30
0
0
VERTEX
8
0
10
40.971137500000005
20
68.655459375
30
0
0
VERTEX
8
0
10
40.331240625
20
68.48400000000001
30
0
0
VERTEX
8
0
10
39.66875625
20
68.48400000000001
30
0
0
VERTEX
8
0
10
39.028859375
20
68.655459375
30
0
0
VERTEX
8
0
10
38.4551375
20
68.986696875
30
0
0
VERTEX
8
0
10
38.011359375000005
20
69.43047812500001
30
0
42
0.6681786379192989
0
VERTEX
8
0
10
37.751196875000005
20
69.322715625
30
0
0
VERTEX
8
0
10
37.751196875000005
20
46.46916875
30
0
0
VERTEX
8
0
10
37.030828125
20
45.7488
30
0
0
VERTEX
8
0
10
36.453525
20
45.7488
30
0
42
0.8206851812565762
0
VERTEX
8
0
10
36.39520625
20
45.455600000000004
30
0
0
VERTEX
8
0
10
36.6954
20
45.331259375
30
0
0
VERTEX
8
0
10
36.963759375
20
45.0629
30
0
0
VERTEX
8
0
10
37.108996875
20
44.7122625
30
0
0
VERTEX
8
0
10
37.108996875
20
44.332734375
30
0
0
VERTEX
8
0
10
36.963759375
20
43.982096875
30
0
0
VERTEX
8
0
10
36.695403125
20
43.713740625
30
0
42
0.09594283675113115
0
VERTEX
8
0
10
36.636625
20
43.683634375000004
30
0
0
VERTEX
8
0
10
36.628878125
20
43.676284375
30
0
42
0.21390719900041266
0
VERTEX
8
0
10
36.577396875000005
20
43.56303125
30
0
0
VERTEX
8
0
10
36.577396875000005
20
43.08760625
30
0
0
VERTEX
8
0
10
34.97255
20
41.482759375
30
0
42
0.20541740614658985
0
VERTEX
8
0
10
34.927959375
20
41.371187500000005
30
0
0
VERTEX
8
0
10
34.928440625
20
41.367396875000004
30
0
42
0.11397740219712549
0
VERTEX
8
0
10
34.952396875000005
20
41.293409375
30
0
0
VERTEX
8
0
10
34.952396875000005
20
39.3999875
30
0
42
0.198912367379658
0
VERTEX
8
0
10
34.997034375
20
39.292225
30
0
0
VERTEX
8
0
10
35.765196875
20
38.5240625
30
0
0
VERTEX
8
0
10
35.765196875
20
37.475934375
30
0
0
VERTEX
8
0
10
34.997034375
20
36.707771875
30
0
42
0.198912367379658
0
VERTEX
8
0
10
34.952396875000005
20
36.600009375
30
0
0
VERTEX
8
0
10
34.952396875000005
20
19.71260625
30
0
0
VERTEX
8
0
10
17.787390625
20
2.5476
30
0
0
VERTEX
8
0
10
7.01260625
20
2.5476
30
0
0
VERTEX
8
0
10
5.6572031250000006
20
3.903003125
30
0
42
0.7673268726569187
0
VERTEX
8
0
10
5.402234375
20
3.755796875
30
0
0
VERTEX
8
0
10
5.515996875
20
3.331240625
30
0
0
VERTEX
8
0
10
5.515996875
20
2.66875625
30
0
0
VERTEX
8
0
10
5.3445375
20
2.028859375
30
0
0
VERTEX
8
0
10
5.0133
20
1.4551375
30
0
0
VERTEX
8
0
10
4.83431875
20
1.276159375
30
0
42
0.6681786379192989
0
VERTEX
8
0
10
4.94208125
20
1.0159968750000001
30
0
0
VERTEX
8
0
10
38.057915625
20
1.0159968750000001
30
0
0
SEQEND
0
POLYLINE
66
1
8
16_copper
10
0.0
20
0.0
30
0.0
70
1
0
VERTEX
8
0
10
1.1779
20
66.0981
30
0
42
0.1827255711104525
0
VERTEX
8
0
10
1.276159375
20
66.14225937500001
30
0
0
VERTEX
8
0
10
3.3577375000000003
20
68.2238375
30
0
42
0.6681786379192989
0
VERTEX
8
0
10
3.249975
20
68.48400000000001
30
0
0
VERTEX
8
0
10
2.66875625
20
68.48400000000001
30
0
0
VERTEX
8
0
10
2.028859375
20
68.655459375
30
0
0
VERTEX
8
0
10
1.4551375
20
68.986696875
30
0
0
VERTEX
8
0
10
1.276159375
20
69.165678125
30
0
42
0.6681786379192989
0
VERTEX
8
0
10
1.0159968750000001
20
69.057915625
30
0
0
VERTEX
8
0
10
1.0159968750000001
20
66.250021875
30
0
0
VERTEX
8
0
10
1.0161906250000001
20
66.24812187500001
30
0
0
VERTEX
8
0
10
1.0160437500000001
20
66.2462125
30
0
0
VERTEX
8
0
10
1.017740625
20
66.23284375
30
0
0
VERTEX
8
0
10
1.0191125
20
66.21935625
30
0
0
VERTEX
8
0
10
1.019690625
20
66.21751875
30
0
0
VERTEX
8
0
10
1.019928125
20
66.2156375
30
0
0
VERTEX
8
0
10
1.0242781250000002
20
66.202884375
30
0
0
VERTEX
8
0
10
1.0283375000000001
20
66.189946875
30
0
0
VERTEX
8
0
10
1.0292625
20
66.18828125
30
0
0
VERTEX
8
0
10
1.02988125
20
66.186465625
30
0
0
VERTEX
8
0
10
1.0367593750000001
20
66.174765625
30
0
0
VERTEX
8
0
10
1.043290625
20
66.16299375
30
0
0
VERTEX
8
0
10
1.0445312500000001
20
66.16155
30
0
0
VERTEX
8
0
10
1.045503125
20
66.15989375000001
30
0
0
VERTEX
8
0
10
1.054565625
20
66.14985
30
0
0
VERTEX
8
0
10
1.063359375
20
66.1396
30
0
0
VERTEX
8
0
10
1.064875
20
66.138425
30
0
0
VERTEX
8
0
10
1.066153125
20
66.137009375
30
0
0
VERTEX
8
0
10
1.077021875
20
66.12901562500001
30
0
0
VERTEX
8
0
10
1.0877281250000002
20
66.120721875
30
0
0
VERTEX
8
0
10
1.0894468750000001
20
66.119878125
30
0
0
VERTEX
8
0
10
1.0909843750000001
20
66.118746875
30
0
0
VERTEX
8
0
10
1.103221875
20
66.1131125
30
0
0
VERTEX
8
0
10
1.11539375
20
66.107134375
30
0
0
VERTEX
8
0
10
1.117253125
20
66.10665312500001
30
0
0
VERTEX
8
0
10
1.11898125
20
66.10585625
30
0
0
VERTEX
8
0
10
1.1321
20
66.1028
30
0
0
VERTEX
8
0
10
1.145228125
20
66.09939375
30
0
0
VERTEX
8
0
10
1.147140625
20
66.09929687500001
30
0
0
VERTEX
8
0
10
1.149
20
66.09886250000001
30
0
0
VERTEX
8
0
10
1.1625
20
66.09850625
30
0
0
VERTEX
8
0
10
1.176009375
20
66.0978125
30
0
0
SEQEND
0
POLYLINE
66
1
8
16_copper
10
0.0
20
0.0
30
0.0
70
1
0
VERTEX
8
0
10
10.54135625
20
60.160000000000004
30
0
0
VERTEX
8
0
10
10.58585
20
60.296934375000006
30
0
0
VERTEX
8
0
10
10.657887500000001
20
60.4383125
30
0
0
VERTEX
8
0
10
10.751140625
20
60.566665625000006
30
0
0
VERTEX
8
0
10
10.86333125
20
60.67885625
30
0
0
VERTEX
8
0
10
10.991684375
20
60.772109375
30
0
0
VERTEX
8
0
10
11.133062500000001
20
60.844146875
30
0
0
VERTEX
8
0
10
11.269993750000001
20
60.888640625
30
0
0
VERTEX
8
0
10
11.269993750000001
20
60.160000000000004
30
0
0
SEQEND
0
POLYLINE
66
1
8
16_copper
10
0.0
20
0.0
30
0.0
70
1
0
VERTEX
8
0
10
18.664053125000002
20
55.78254375
30
0
42
0.22363283135987566
0
VERTEX
8
0
10
18.79748125
20
55.831171875
30
0
0
VERTEX
8
0
10
18.8068625
20
55.836225000000006
30
0
42
0.24881934407596037
0
VERTEX
8
0
10
18.8738
20
55.96240625
30
0
0
VERTEX
8
0
10
18.8738
20
56.098850000000006
30
0
42
0.6681891244470992
0
VERTEX
8
0
10
18.613634375
20
56.206609375
30
0
0
VERTEX
8
0
10
18.545831250000003
20
56.138803125
30
0
42
0.19890483080740345
0
VERTEX
8
0
10
18.501196875
20
56.03104375
30
0
0
VERTEX
8
0
10
18.501196875
20
55.93431875
30
0
0
VERTEX
8
0
10
18.5014875
20
55.93146875
30
0
0
VERTEX
8
0
10
18.501303125
20
55.928603125
30
0
0
VERTEX
8
0
10
18.503040625
20
55.916159375
30
0
0
VERTEX
8
0
10
18.5043125
20
55.903653125000005
30
0
0
VERTEX
8
0
10
18.505171875000002
20
55.900912500000004
30
0
0
VERTEX
8
0
10
18.505568750000002
20
55.898075000000006
30
0
0
VERTEX
8
0
10
18.509771875000002
20
55.886246875000005
30
0
0
VERTEX
8
0
10
18.5135375
20
55.874243750000005
30
0
0
VERTEX
8
0
10
18.51493125
20
55.871734375
30
0
0
VERTEX
8
0
10
18.515890625
20
55.869031250000006
30
0
0
VERTEX
8
0
10
18.5223875
20
55.858290625
30
0
0
VERTEX
8
0
10
18.528490625
20
55.847290625
30
0
0
VERTEX
8
0
10
18.530362500000003
20
55.845109375
30
0
0
VERTEX
8
0
10
18.53184375
20
55.842659375000004
30
0
0
VERTEX
8
0
10
18.540368750000003
20
55.83344375
30
0
0
VERTEX
8
0
10
18.548559375
20
55.823896875
30
0
0
VERTEX
8
0
10
18.550825
20
55.822140625
30
0
0
VERTEX
8
0
10
18.552775
20
55.820034375000006
30
0
0
VERTEX
8
0
10
18.56299375
20
55.8127125
30
0
0
VERTEX
8
0
10
18.572928125
20
55.80501875
30
0
0
VERTEX
8
0
10
18.575503125
20
55.803753125
30
0
0
VERTEX
8
0
10
18.577834375000002
20
55.802084375
30
0
0
VERTEX
8
0
10
18.58930625
20
55.796975
30
0
0
VERTEX
8
0
10
18.60059375
20
55.79143125
30
0
0
VERTEX
8
0
10
18.60336875
20
55.790709375000006
30
0
0
VERTEX
8
0
10
18.605990625
20
55.78954375
30
0
0
VERTEX
8
0
10
18.618268750000002
20
55.786846875
30
0
0
VERTEX
8
0
10
18.630428125
20
55.783690625000006
30
0
0
VERTEX
8
0
10
18.63329375
20
55.78354375
30
0
0
VERTEX
8
0
10
18.63609375
20
55.782928125000005
30
0
0
VERTEX
8
0
10
18.6486375
20
55.782756250000006
30
0
0
VERTEX
8
0
10
18.661209375000002
20
55.782109375000005
30
0
0
SEQEND
0
POLYLINE
66
1
8
16_copper
10
0.0
20
0.0
30
0.0
70
1
0
VERTEX
8
0
10
18.2881
20
52.982778125
30
0
42
0.1827255711104525
0
VERTEX
8
0
10
18.386359375
20
53.0269375
30
0
0
VERTEX
8
0
10
18.555934375
20
53.196512500000004
30
0
42
0.41421356237309503
0
VERTEX
8
0
10
18.555934375
20
53.412037500000004
30
0
0
VERTEX
8
0
10
18.386359375
20
53.581612500000006
30
0
42
0.6681786379192989
0
VERTEX
8
0
10
18.126196875
20
53.473850000000006
30
0
0
VERTEX
8
0
10
18.126196875
20
53.1347
30
0
0
VERTEX
8
0
10
18.126390625000003
20
53.1328
30
0
0
VERTEX
8
0
10
18.12624375
20
53.130890625
30
0
0
VERTEX
8
0
10
18.126409375
20
53.129593750000005
30
0
0
VERTEX
8
0
10
18.1263875
20
53.129184375
30
0
0
VERTEX
8
0
10
18.126825
20
53.126303125
30
0
0
VERTEX
8
0
10
18.127940625
20
53.117521875
30
0
0
VERTEX
8
0
10
18.1293125
20
53.104034375000005
30
0
0
VERTEX
8
0
10
18.129890625
20
53.102196875000004
30
0
0
VERTEX
8
0
10
18.130128125000002
20
53.100315625
30
0
0
VERTEX
8
0
10
18.134478125
20
53.087562500000004
30
0
0
VERTEX
8
0
10
18.1385375
20
53.074625000000005
30
0
0
VERTEX
8
0
10
18.1394625
20
53.072959375
30
0
0
VERTEX
8
0
10
18.14008125
20
53.071143750000005
30
0
0
VERTEX
8
0
10
18.146959375
20
53.05944375
30
0
0
VERTEX
8
0
10
18.153490625
20
53.047671875000006
30
0
0
VERTEX
8
0
10
18.15473125
20
53.046228125000006
30
0
0
VERTEX
8
0
10
18.155703125000002
20
53.044571875
30
0
0
VERTEX
8
0
10
18.164765625
20
53.034528125
30
0
0
VERTEX
8
0
10
18.173559375
20
53.024278125
30
0
0
VERTEX
8
0
10
18.175075
20
53.023103125000006
30
0
0
VERTEX
8
0
10
18.176353125000002
20
53.021687500000006
30
0
0
VERTEX
8
0
10
18.187221875000002
20
53.01369375
30
0
0
VERTEX
8
0
10
18.197928125
20
53.0054
30
0
0
VERTEX
8
0
10
18.199646875
20
53.00455625
30
0
0
VERTEX
8
0
10
18.201184375
20
53.003425
30
0
0
VERTEX
8
0
10
18.213421875
20
52.997790625
30
0
0
VERTEX
8
0
10
18.22559375
20
52.9918125
30
0
0
VERTEX
8
0
10
18.227453125
20
52.99133125
30
0
0
VERTEX
8
0
10
18.22918125
20
52.990534375
30
0
0
VERTEX
8
0
10
18.242325
20
52.987471875000004
30
0
0
VERTEX
8
0
10
18.255428125
20
52.984071875000005
30
0
0
VERTEX
8
0
10
18.257340625
20
52.983975
30
0
0
VERTEX
8
0
10
18.2592
20
52.983540625
30
0
0
VERTEX
8
0
10
18.2727
20
52.983184375
30
0
0
VERTEX
8
0
10
18.286209375000002
20
52.982490625000004
30
0
0
SEQEND
0
POLYLINE
66
1
8
16_copper
10
0.0
20
0.0
30
0.0
70
1
0
VERTEX
8
0
10
28.97575
20
52.626390625
30
0
42
0.6636741793507447
0
VERTEX
8
0
10
29.081612500000002
20
52.886359375000005
30
0
0
VERTEX
8
0
10
28.638806250000002
20
53.3291625
30
0
42
0.198912367379658
0
VERTEX
8
0
10
28.531043750000002
20
53.3738
30
0
0
VERTEX
8
0
10
19.9147
20
53.3738
30
0
42
0.6681786379192989
0
VERTEX
8
0
10
19.8069375
20
53.1136375
30
0
0
VERTEX
8
0
10
20.033534375000002
20
52.887043750000004
30
0
0
VERTEX
8
0
10
20.102609375
20
52.720278125
30
0
42
0.30335085355011276
0
VERTEX
8
0
10
20.243409375000002
20
52.626196875000005
30
0
0
VERTEX
8
0
10
28.973850000000002
20
52.626196875000005
30
0
0
SEQEND
0
POLYLINE
66
1
8
16_copper
10
0.0
20
0.0
30
0.0
70
1
0
VERTEX
8
0
10
3.6903437500000003
20
46.156
30
0
0
VERTEX
8
0
10
3.302953125
20
46.3164625
30
0
0
VERTEX
8
0
10
3.0064625
20
46.612953125000004
30
0
0
VERTEX
8
0
10
2.846
20
47.00034375
30
0
0
VERTEX
8
0
10
2.846
20
47.419653125
30
0
0
VERTEX
8
0
10
3.0064625
20
47.807043750000005
30
0
0
VERTEX
8
0
10
3.302953125
20
48.103534375
30
0
0
VERTEX
8
0
10
3.6903437500000003
20
48.263996875000004
30
0
0
VERTEX
8
0
10
4.109653125
20
48.263996875000004
30
0
0
VERTEX
8
0
10
4.4970437500000005
20
48.103534375
30
0
0
VERTEX
8
0
10
4.793534375
20
47.807043750000005
30
0
0
VERTEX
8
0
10
4.9539968750000005
20
47.419653125
30
0
0
VERTEX
8
0
10
4.9539968750000005
20
47.00034375
30
0
0
VERTEX
8
0
10
4.793534375
20
46.612953125000004
30
0
0
VERTEX
8
0
10
4.4970437500000005
20
46.3164625
30
0
0
VERTEX
8
0
10
4.109653125
20
46.156
30
0
0
SEQEND
0
POLYLINE
66
1
8
16_copper
10
0.0
20
0.0
30
0.0
70
1
0
VERTEX
8
0
10
29.189
20
47.2625
30
0
0
VERTEX
8
0
10
29.189
20
47.7165
30
0
0
VERTEX
8
0
10
28.735000000000003
20
47.7165
30
0
0
VERTEX
8
0
10
28.735000000000003
20
47.97049375
30
0
0
VERTEX
8
0
10
29.22244375
20
47.970496875
30
0
0
VERTEX
8
0
10
29.287031250000002
20
47.953190625000005
30
0
0
VERTEX
8
0
10
29.3449625
20
47.91974375
30
0
0
VERTEX
8
0
10
29.392243750000002
20
47.872462500000005
30
0
0
VERTEX
8
0
10
29.425690625
20
47.81453125
30
0
0
VERTEX
8
0
10
29.442996875000002
20
47.74994375
30
0
0
VERTEX
8
0
10
29.442996875000002
20
47.2625
30
0
0
SEQEND
0
POLYLINE
66
1
8
16_copper
10
0.0
20
0.0
30
0.0
70
1
0
VERTEX
8
0
10
27.627000000000002
20
47.2625
30
0
0
VERTEX
8
0
10
27.627000000000002
20
47.74994375
30
0
0
VERTEX
8
0
10
27.64430625
20
47.81453125
30
0
0
VERTEX
8
0
10
27.677753125000002
20
47.872462500000005
30
0
0
VERTEX
8
0
10
27.725034375
20
47.91974375
30
0
0
VERTEX
8
0
10
27.782965625000003
20
47.953190625000005
30
0
0
VERTEX
8
0
10
27.847553125
20
47.970496875
30
0
0
VERTEX
8
0
10
28.334993750000002
20
47.970496875
30
0
0
VERTEX
8
0
10
28.334993750000002
20
47.7165
30
0
0
VERTEX
8
0
10
27.881
20
47.7165
30
0
0
VERTEX
8
0
10
27.881
20
47.2625
30
0
0
SEQEND
0
POLYLINE
66
1
8
16_copper
10
0.0
20
0.0
30
0.0
70
1
0
VERTEX
8
0
10
27.847553125
20
46.1545
30
0
0
VERTEX
8
0
10
27.782965625000003
20
46.17180625
30
0
0
VERTEX
8
0
10
27.725034375
20
46.205253125
30
0
0
VERTEX
8
0
10
27.677753125000002
20
46.252534375
30
0
0
VERTEX
8
0
10
27.64430625
20
46.310465625
30
0
0
VERTEX
8
0
10
27.627000000000002
20
46.375053125
30
0
0
VERTEX
8
0
10
27.627000000000002
20
46.86249375
30
0
0
VERTEX
8
0
10
27.881
20
46.86249375
30
0
0
VERTEX
8
0
10
27.881
20
46.408500000000004
30
0
0
VERTEX
8
0
10
28.334993750000002
20
46.408500000000004
30
0
0
VERTEX
8
0
10
28.334993750000002
20
46.1545
30
0
0
SEQEND
0
POLYLINE
66
1
8
16_copper
10
0.0
20
0.0
30
0.0
70
1
0
VERTEX
8
0
10
28.735000000000003
20
46.1545
30
0
0
VERTEX
8
0
10
28.735000000000003
20
46.408500000000004
30
0
0
VERTEX
8
0
10
29.189
20
46.408500000000004
30
0
0
VERTEX
8
0
10
29.189
20
46.86249375
30
0
0
VERTEX
8
0
10
29.442996875000002
20
46.86249375
30
0
0
VERTEX
8
0
10
29.442996875000002
20
46.375053125
30
0
0
VERTEX
8
0
10
29.425690625
20
46.310465625
30
0
0
VERTEX
8
0
10
29.392243750000002
20
46.252534375
30
0
0
VERTEX
8
0
10
29.3449625
20
46.205253125
30
0
0
VERTEX
8
0
10
29.287031250000002
20
46.17180625
30
0
0
VERTEX
8
0
10
29.22244375
20
46.1545
30
0
0
SEQEND
0
POLYLINE
66
1
8
16_copper
10
0.0
20
0.0
30
0.0
70
1
0
VERTEX
8
0
10
18.053190625
20
45.04049375
30
0
42
0.29861563224788623
0
VERTEX
8
0
10
18.191356250000002
20
45.13400625
30
0
0
VERTEX
8
0
10
18.2464625
20
45.26704375
30
0
0
VERTEX
8
0
10
18.490934375000002
20
45.5115125
30
0
42
0.41421356237309503
0
VERTEX
8
0
10
18.490934375000002
20
45.7270375
30
0
0
VERTEX
8
0
10
17.586359375
20
46.6316125
30
0
42
0.6681786379192989
0
VERTEX
8
0
10
17.326196875
20
46.52385
30
0
0
VERTEX
8
0
10
17.326196875
20
45.827840625
30
0
42
0.18528093877452098
0
VERTEX
8
0
10
17.36531875
20
45.725890625000005
30
0
0
VERTEX
8
0
10
17.937278125000002
20
45.090378125
30
0
0
VERTEX
8
0
10
17.94236875
20
45.0857625
30
0
0
VERTEX
8
0
10
17.94690625
20
45.080603125
30
0
0
VERTEX
8
0
10
17.953753125000002
20
45.075434375
30
0
0
VERTEX
8
0
10
17.960109375000002
20
45.069668750000005
30
0
0
VERTEX
8
0
10
17.96601875
20
45.066175
30
0
0
VERTEX
8
0
10
17.97150625
20
45.062031250000004
30
0
0
VERTEX
8
0
10
17.9792625
20
45.058340625
30
0
0
VERTEX
8
0
10
17.986640625
20
45.053978125
30
0
0
VERTEX
8
0
10
17.993134375
20
45.05174375
30
0
0
VERTEX
8
0
10
17.999340625000002
20
45.048790625
30
0
0
VERTEX
8
0
10
18.00766875
20
45.046740625000005
30
0
0
VERTEX
8
0
10
18.015784375000003
20
45.043946875
30
0
0
VERTEX
8
0
10
18.022603125
20
45.043062500000005
30
0
0
VERTEX
8
0
10
18.029271875
20
45.041421875000005
30
0
0
VERTEX
8
0
10
18.037850000000002
20
45.0410875
30
0
0
VERTEX
8
0
10
18.04635
20
45.0399875
30
0
0
SEQEND
0
POLYLINE
66
1
8
16_copper
10
0.0
20
0.0
30
0.0
70
1
0
VERTEX
8
0
10
3.6903437500000003
20
43.616
30
0
0
VERTEX
8
0
10
3.302953125
20
43.7764625
30
0
0
VERTEX
8
0
10
3.0064625
20
44.072953125000005
30
0
0
VERTEX
8
0
10
2.846
20
44.46034375
30
0
0
VERTEX
8
0
10
2.846
20
44.879653125000004
30
0
0
VERTEX
8
0
10
3.0064625
20
45.26704375
30
0
0
VERTEX
8
0
10
3.302953125
20
45.563534375
30
0
0
VERTEX
8
0
10
3.6903437500000003
20
45.723996875000005
30
0
0
VERTEX
8
0
10
4.109653125
20
45.723996875000005
30
0
0
VERTEX
8
0
10
4.4970437500000005
20
45.563534375
30
0
0
VERTEX
8
0
10
4.793534375
20
45.26704375
30
0
0
VERTEX
8
0
10
4.9539968750000005
20
44.879653125000004
30
0
0
VERTEX
8
0
10
4.9539968750000005
20
44.46034375
30
0
0
VERTEX
8
0
10
4.793534375
20
44.072953125000005
30
0
0
VERTEX
8
0
10
4.4970437500000005
20
43.7764625
30
0
0
VERTEX
8
0
10
4.109653125
20
43.616
30
0
0
SEQEND
0
POLYLINE
66
1
8
16_copper
10
0.0
20
0.0
30
0.0
70
1
0
VERTEX
8
0
10
33.425234375
20
43.5685
30
0
0
VERTEX
8
0
10
33.074596875000005
20
43.7137375
30
0
0
VERTEX
8
0
10
32.8062375
20
43.982096875
30
0
0
VERTEX
8
0
10
32.661
20
44.332734375
30
0
0
VERTEX
8
0
10
32.661
20
44.7122625
30
0
0
VERTEX
8
0
10
32.8062375
20
45.0629
30
0
0
VERTEX
8
0
10
33.074596875000005
20
45.331259375
30
0
0
VERTEX
8
0
10
33.425234375
20
45.476496875
30
0
0
VERTEX
8
0
10
33.8047625
20
45.476496875
30
0
0
VERTEX
8
0
10
34.1554
20
45.331259375
30
0
0
VERTEX
8
0
10
34.423759375
20
45.0629
30
0
0
VERTEX
8
0
10
34.568996875
20
44.7122625
30
0
0
VERTEX
8
0
10
34.568996875
20
44.332734375
30
0
0
VERTEX
8
0
10
34.423759375
20
43.982096875
30
0
0
VERTEX
8
0
10
34.1554
20
43.7137375
30
0
0
VERTEX
8
0
10
33.8047625
20
43.5685
30
0
0
SEQEND
0
POLYLINE
66
1
8
16_copper
10
0.0
20
0.0
30
0.0
70
1
0
VERTEX
8
0
10
6.23034375
20
42.346000000000004
30
0
0
VERTEX
8
0
10
5.842953125
20
42.506462500000005
30
0
0
VERTEX
8
0
10
5.5464625000000005
20
42.802953125
30
0
0
VERTEX
8
0
10
5.386
20
43.190343750000004
30
0
0
VERTEX
8
0
10
5.386
20
43.609653125
30
0
0
VERTEX
8
0
10
5.5464625000000005
20
43.99704375
30
0
0
VERTEX
8
0
10
5.842953125
20
44.293534375
30
0
0
VERTEX
8
0
10
6.23034375
20
44.453996875
30
0
0
VERTEX
8
0
10
6.649653125
20
44.453996875
30
0
0
VERTEX
8
0
10
7.0370437500000005
20
44.293534375
30
0
0
VERTEX
8
0
10
7.333534375
20
43.99704375
30
0
0
VERTEX
8
0
10
7.493996875000001
20
43.609653125
30
0
0
VERTEX
8
0
10
7.493996875000001
20
43.190343750000004
30
0
0
VERTEX
8
0
10
7.333534375
20
42.802953125
30
0
0
VERTEX
8
0
10
7.0370437500000005
20
42.506462500000005
30
0
0
VERTEX
8
0
10
6.649653125
20
42.346000000000004
30
0
0
SEQEND
0
POLYLINE
66
1
8
16_copper
10
0.0
20
0.0
30
0.0
70
1
0
VERTEX
8
0
10
30.474003125000003
20
41.827784375
30
0
42
0.40690617358577835
0
VERTEX
8
0
10
30.622600000000002
20
41.979796875000005
30
0
0
VERTEX
8
0
10
30.622600000000002
20
43.57545625
30
0
42
0.26267098221965757
0
VERTEX
8
0
10
30.53530625
20
43.713028125
30
0
0
VERTEX
8
0
10
30.266237500000003
20
43.982096875
30
0
0
VERTEX
8
0
10
30.206456250000002
20
44.126425000000005
30
0
42
0.8045821593360708
0
VERTEX
8
0
10
29.901196875
20
44.056046875
30
0
0
VERTEX
8
0
10
29.901196875
20
42.36916875
30
0
0
VERTEX
8
0
10
29.619584375000002
20
42.087559375000005
30
0
42
0.6681786379192989
0
VERTEX
8
0
10
29.727346875000002
20
41.827396875000005
30
0
0
VERTEX
8
0
10
30.470200000000002
20
41.827396875000005
30
0
0
SEQEND
0
POLYLINE
66
1
8
16_copper
10
0.0
20
0.0
30
0.0
70
1
0
VERTEX
8
0
10
3.6903437500000003
20
41.076
30
0
0
VERTEX
8
0
10
3.633015625
20
41.099746875
30
0
0
VERTEX
8
0
10
2.869746875
20
41.863015625
30
0
0
VERTEX
8
0
10
2.846
20
41.92034375
30
0
0
VERTEX
8
0
10
2.846
20
42.339653125000005
30
0
0
VERTEX
8
0
10
3.0064625
20
42.72704375
30
0
0
VERTEX
8
0
10
3.302953125
20
43.023534375000004
30
0
0
VERTEX
8
0
10
3.6903437500000003
20
43.183996875000005
30
0
0
VERTEX
8
0
10
4.109653125
20
43.183996875000005
30
0
0
VERTEX
8
0
10
4.4970437500000005
20
43.023534375000004
30
0
0
VERTEX
8
0
10
4.793534375
20
42.72704375
30
0
0
VERTEX
8
0
10
4.9539968750000005
20
42.339653125000005
30
0
0
VERTEX
8
0
10
4.9539968750000005
20
41.92034375
30
0
0
VERTEX
8
0
10
4.793534375
20
41.532953125
30
0
0
VERTEX
8
0
10
4.4970437500000005
20
41.2364625
30
0
0
VERTEX
8
0
10
4.109653125
20
41.076
30
0
0
SEQEND
0
POLYLINE
66
1
8
16_copper
10
0.0
20
0.0
30
0.0
70
1
0
VERTEX
8
0
10
6.23034375
20
39.806000000000004
30
0
0
VERTEX
8
0
10
5.842953125
20
39.9664625
30
0
0
VERTEX
8
0
10
5.5464625000000005
20
40.262953125
30
0
0
VERTEX
8
0
10
5.386
20
40.650343750000005
30
0
0
VERTEX
8
0
10
5.386
20
41.069653125
30
0
0
VERTEX
8
0
10
5.5464625000000005
20
41.457043750000004
30
0
0
VERTEX
8
0
10
5.842953125
20
41.753534375
30
0
0
VERTEX
8
0
10
6.23034375
20
41.913996875
30
0
0
VERTEX
8
0
10
6.649653125
20
41.913996875
30
0
0
VERTEX
8
0
10
7.0370437500000005
20
41.753534375
30
0
0
VERTEX
8
0
10
7.333534375
20
41.457043750000004
30
0
0
VERTEX
8
0
10
7.493996875000001
20
41.069653125
30
0
0
VERTEX
8
0
10
7.493996875000001
20
40.650343750000005
30
0
0
VERTEX
8
0
10
7.333534375
20
40.262953125
30
0
0
VERTEX
8
0
10
7.0370437500000005
20
39.9664625
30
0
0
VERTEX
8
0
10
6.649653125
20
39.806000000000004
30
0
0
SEQEND
0
POLYLINE
66
1
8
16_copper
10
0.0
20
0.0
30
0.0
70
1
0
VERTEX
8
0
10
18.611684375
20
40.452109375
30
0
0
VERTEX
8
0
10
18.753062500000002
20
40.524146875
30
0
0
VERTEX
8
0
10
18.889993750000002
20
40.568640625
30
0
0
VERTEX
8
0
10
18.889993750000002
20
39.967768750000005
30
0
0
VERTEX
8
0
10
18.492353125
20
40.365409375
30
0
0
SEQEND
0
POLYLINE
66
1
8
16_copper
10
0.0
20
0.0
30
0.0
70
1
0
VERTEX
8
0
10
19.39
20
39.84
30
0
0
VERTEX
8
0
10
19.39
20
40.568640625
30
0
0
VERTEX
8
0
10
19.526934375
20
40.524146875
30
0
0
VERTEX
8
0
10
19.668312500000003
20
40.452109375
30
0
0
VERTEX
8
0
10
19.796665625
20
40.35885625
30
0
0
VERTEX
8
0
10
19.90885625
20
40.246665625
30
0
0
VERTEX
8
0
10
20.002115625000002
20
40.11830625
30
0
0
VERTEX
8
0
10
20.074146875
20
39.976934375
30
0
0
VERTEX
8
0
10
20.118640625
20
39.84
30
0
0
SEQEND
0
POLYLINE
66
1
8
16_copper
10
0.0
20
0.0
30
0.0
70
1
0
VERTEX
8
0
10
18.371140625000002
20
40.246665625
30
0
42
0.024271677509241873
0
VERTEX
8
0
10
18.3922375
20
40.25
30
0
0
VERTEX
8
0
10
18.323946875
20
40.181709375000004
30
0
0
SEQEND
0
POLYLINE
66
1
8
16_copper
10
0.0
20
0.0
30
0.0
70
1
0
VERTEX
8
0
10
18.1977625
20
39.84
30
0
0
VERTEX
8
0
10
18.5
20
40.1422375
30
0
0
VERTEX
8
0
10
18.8022375
20
39.84
30
0
0
SEQEND
0
POLYLINE
66
1
8
16_copper
10
0.0
20
0.0
30
0.0
70
1
0
VERTEX
8
0
10
1.1779
20
4.790159375
30
0
42
0.1827255711104525
0
VERTEX
8
0
10
1.276159375
20
4.83431875
30
0
0
VERTEX
8
0
10
1.4551375
20
5.0133
30
0
0
VERTEX
8
0
10
2.028859375
20
5.3445375
30
0
0
VERTEX
8
0
10
2.66875625
20
5.515996875
30
0
0
VERTEX
8
0
10
3.331240625
20
5.515996875
30
0
0
VERTEX
8
0
10
3.755796875
20
5.402234375
30
0
42
0.7673268726569187
0
VERTEX
8
0
10
3.903003125
20
5.6572031250000006
30
0
0
VERTEX
8
0
10
1.9476
20
7.612606250000001
30
0
0
VERTEX
8
0
10
1.9476
20
39.349481250000004
30
0
42
0.198912367379658
0
VERTEX
8
0
10
1.9029625000000001
20
39.45724375
30
0
0
VERTEX
8
0
10
1.457246875
20
39.9029625
30
0
0
VERTEX
8
0
10
1.45723125
20
39.902975000000005
30
0
0
VERTEX
8
0
10
1.276159375
20
40.084050000000005
30
0
42
0.6681786379192989
0
VERTEX
8
0
10
1.0159968750000001
20
39.976287500000005
30
0
0
VERTEX
8
0
10
1.0159968750000001
20
4.94208125
30
0
0
VERTEX
8
0
10
1.0161906250000001
20
4.94018125
30
0
0
VERTEX
8
0
10
1.0160437500000001
20
4.938271875
30
0
0
VERTEX
8
0
10
1.01774375
20
4.924896875
30
0
0
VERTEX
8
0
10
1.0191125
20
4.911415625
30
0
0
VERTEX
8
0
10
1.0196875
20
4.909578125
30
0
0
VERTEX
8
0
10
1.019928125
20
4.90769375
30
0
0
VERTEX
8
0
10
1.0242843750000001
20
4.8949218750000005
30
0
0
VERTEX
8
0
10
1.0283375000000001
20
4.88200625
30
0
0
VERTEX
8
0
10
1.0292625
20
4.8803406250000005
30
0
0
VERTEX
8
0
10
1.02988125
20
4.878525000000001
30
0
0
VERTEX
8
0
10
1.0367593750000001
20
4.866825
30
0
0
VERTEX
8
0
10
1.043290625
20
4.855053125
30
0
0
VERTEX
8
0
10
1.0445312500000001
20
4.8536093750000004
30
0
0
VERTEX
8
0
10
1.045503125
20
4.8519531250000005
30
0
0
VERTEX
8
0
10
1.054565625
20
4.841909375
30
0
0
VERTEX
8
0
10
1.063359375
20
4.831659375
30
0
0
VERTEX
8
0
10
1.064875
20
4.830484375
30
0
0
VERTEX
8
0
10
1.066153125
20
4.82906875
30
0
0
VERTEX
8
0
10
1.077021875
20
4.821075
30
0
0
VERTEX
8
0
10
1.0877281250000002
20
4.8127812500000005
30
0
0
VERTEX
8
0
10
1.0894468750000001
20
4.8119375
30
0
0
VERTEX
8
0
10
1.0909843750000001
20
4.810806250000001
30
0
0
VERTEX
8
0
10
1.103221875
20
4.805171875
30
0
0
VERTEX
8
0
10
1.11539375
20
4.799193750000001
30
0
0
VERTEX
8
0
10
1.117253125
20
4.798712500000001
30
0
0
VERTEX
8
0
10
1.11898125
20
4.797915625
30
0
0
VERTEX
8
0
10
1.1321
20
4.794859375000001
30
0
0
VERTEX
8
0
10
1.145228125
20
4.791453125
30
0
0
VERTEX
8
0
10
1.147140625
20
4.791356250000001
30
0
0
VERTEX
8
0
10
1.149
20
4.790921875
30
0
0
VERTEX
8
0
10
1.1625
20
4.790565625
30
0
0
VERTEX
8
0
10
1.176009375
20
4.789871875
30
0
0
SEQEND
0
POLYLINE
66
1
8
16_copper
10
0.0
20
0.0
30
0.0
70
1
0
VERTEX
8
0
10
18.753062500000002
20
38.65585
30
0
0
VERTEX
8
0
10
18.611684375
20
38.7278875
30
0
0
VERTEX
8
0
10
18.483331250000003
20
38.821140625000005
30
0
0
VERTEX
8
0
10
18.371140625000002
20
38.93333125
30
0
0
VERTEX
8
0
10
18.277887500000002
20
39.061684375
30
0
0
VERTEX
8
0
10
18.20585
20
39.2030625
30
0
0
VERTEX
8
0
10
18.16135625
20
39.339993750000005
30
0
0
VERTEX
8
0
10
18.889993750000002
20
39.339993750000005
30
0
0
VERTEX
8
0
10
18.889993750000002
20
38.61135625
30
0
0
SEQEND
0
POLYLINE
66
1
8
16_copper
10
0.0
20
0.0
30
0.0
70
1
0
VERTEX
8
0
10
19.39
20
39.339993750000005
30
0
0
VERTEX
8
0
10
20.118640625
20
39.339993750000005
30
0
0
VERTEX
8
0
10
20.074146875
20
39.2030625
30
0
0
VERTEX
8
0
10
20.002109375
20
39.061684375
30
0
0
VERTEX
8
0
10
19.90885625
20
38.93333125
30
0
0
VERTEX
8
0
10
19.796665625
20
38.821140625000005
30
0
0
VERTEX
8
0
10
19.668312500000003
20
38.7278875
30
0
0
VERTEX
8
0
10
19.526934375
20
38.65585
30
0
0
VERTEX
8
0
10
19.39
20
38.61135625
30
0
0
SEQEND
0
POLYLINE
66
1
8
16_copper
10
0.0
20
0.0
30
0.0
70
1
0
VERTEX
8
0
10
27.780800000000003
20
38.254000000000005
30
0
0
VERTEX
8
0
10
27.780800000000003
20
38.50500625
30
0
0
VERTEX
8
0
10
28.494990625
20
39.219196875
30
0
0
VERTEX
8
0
10
28.74599375
20
39.219196875
30
0
0
VERTEX
8
0
10
28.74599375
20
38.9652
30
0
0
VERTEX
8
0
10
28.600203125
20
38.9652
30
0
0
VERTEX
8
0
10
28.0348
20
38.399796875
30
0
0
VERTEX
8
0
10
28.0348
20
38.254000000000005
30
0
0
SEQEND
0
POLYLINE
66
1
8
16_copper
10
0.0
20
0.0
30
0.0
70
1
0
VERTEX
8
0
10
29.965200000000003
20
38.254000000000005
30
0
0
VERTEX
8
0
10
29.965200000000003
20
38.399796875
30
0
0
VERTEX
8
0
10
29.399796875
20
38.9652
30
0
0
VERTEX
8
0
10
29.254
20
38.9652
30
0
0
VERTEX
8
0
10
29.254
20
39.219196875
30
0
0
VERTEX
8
0
10
29.50500625
20
39.219196875
30
0
0
VERTEX
8
0
10
30.219196875
20
38.50500625
30
0
0
VERTEX
8
0
10
30.219196875
20
38.254000000000005
30
0
0
SEQEND
0
POLYLINE
66
1
8
16_copper
10
0.0
20
0.0
30
0.0
70
1
0
VERTEX
8
0
10
18.930343750000002
20
35.996
30
0
0
VERTEX
8
0
10
18.542953125
20
36.1564625
30
0
0
VERTEX
8
0
10
18.2464625
20
36.452953125
30
0
0
VERTEX
8
0
10
18.086000000000002
20
36.84034375
30
0
0
VERTEX
8
0
10
18.086000000000002
20
37.259653125
30
0
0
VERTEX
8
0
10
18.2464625
20
37.64704375
30
0
0
VERTEX
8
0
10
18.542953125
20
37.943534375
30
0
0
VERTEX
8
0
10
18.930343750000002
20
38.103996875
30
0
0
VERTEX
8
0
10
19.349653125
20
38.103996875
30
0
0
VERTEX
8
0
10
19.73704375
20
37.943534375
30
0
0
VERTEX
8
0
10
20.033534375000002
20
37.64704375
30
0
0
VERTEX
8
0
10
20.193996875
20
37.259653125
30
0
0
VERTEX
8
0
10
20.193996875
20
36.84034375
30
0
0
VERTEX
8
0
10
20.033534375000002
20
36.452953125
30
0
0
VERTEX
8
0
10
19.73704375
20
36.1564625
30
0
0
VERTEX
8
0
10
19.349653125
20
35.996
30
0
0
SEQEND
0
POLYLINE
66
1
8
16_copper
10
0.0
20
0.0
30
0.0
70
1
0
VERTEX
8
0
10
28.494990625
20
36.7808
30
0
0
VERTEX
8
0
10
27.780800000000003
20
37.494990625
30
0
0
VERTEX
8
0
10
27.780800000000003
20
37.745993750000004
30
0
0
VERTEX
8
0
10
28.0348
20
37.745993750000004
30
0
0
VERTEX
8
0
10
28.0348
20
37.600203125
30
0
0
VERTEX
8
0
10
28.600203125
20
37.034800000000004
30
0
0
VERTEX
8
0
10
28.74599375
20
37.034800000000004
30
0
0
VERTEX
8
0
10
28.74599375
20
36.780796875
30
0
0
SEQEND
0
POLYLINE
66
1
8
16_copper
10
0.0
20
0.0
30
0.0
70
1
0
VERTEX
8
0
10
29.254
20
36.7808
30
0
0
VERTEX
8
0
10
29.254
20
37.034800000000004
30
0
0
VERTEX
8
0
10
29.399796875
20
37.034800000000004
30
0
0
VERTEX
8
0
10
29.965200000000003
20
37.600203125
30
0
0
VERTEX
8
0
10
29.965200000000003
20
37.745993750000004
30
0
0
VERTEX
8
0
10
30.219193750000002
20
37.745993750000004
30
0
0
VERTEX
8
0
10
30.219196875
20
37.494990625
30
0
0
VERTEX
8
0
10
29.50500625
20
36.7808
30
0
0
SEQEND
0
POLYLINE
66
1
8
16_copper
10
0.0
20
0.0
30
0.0
70
1
0
VERTEX
8
0
10
18.930343750000002
20
33.456
30
0
0
VERTEX
8
0
10
18.542953125
20
33.616462500000004
30
0
0
VERTEX
8
0
10
18.2464625
20
33.912953125
30
0
0
VERTEX
8
0
10
18.086000000000002
20
34.30034375
30
0
0
VERTEX
8
0
10
18.086000000000002
20
34.719653125
30
0
0
VERTEX
8
0
10
18.2464625
20
35.10704375
30
0
0
VERTEX
8
0
10
18.542953125
20
35.403534375
30
0
0
VERTEX
8
0
10
18.930343750000002
20
35.563996875
30
0
0
VERTEX
8
0
10
19.349653125
20
35.563996875
30
0
0
VERTEX
8
0
10
19.73704375
20
35.403534375
30
0
0
VERTEX
8
0
10
20.033534375000002
20
35.10704375
30
0
0
VERTEX
8
0
10
20.193996875
20
34.719653125
30
0
0
VERTEX
8
0
10
20.193996875
20
34.30034375
30
0
0
VERTEX
8
0
10
20.033534375000002
20
33.912953125
30
0
0
VERTEX
8
0
10
19.73704375
20
33.616462500000004
30
0
0
VERTEX
8
0
10
19.349653125
20
33.456
30
0
0
SEQEND
0
POLYLINE
66
1
8
16_copper
10
0.0
20
0.0
30
0.0
70
1
0
VERTEX
8
0
10
4.15
20
35.488640625
30
0
0
VERTEX
8
0
10
4.286934375
20
35.444146875
30
0
0
VERTEX
8
0
10
4.4283125000000005
20
35.372109375
30
0
0
VERTEX
8
0
10
4.55054375
20
35.28330625
30
0
0
VERTEX
8
0
10
4.15
20
34.8827625
30
0
0
SEQEND
0
POLYLINE
66
1
8
16_copper
10
0.0
20
0.0
30
0.0
70
1
0
VERTEX
8
0
10
11.786740625
20
4.251775
30
0
42
0.1891790299274119
0
VERTEX
8
0
10
11.88880625
20
4.29583125
30
0
0
VERTEX
8
0
10
12.0249625
20
4.431984375
30
0
42
0.19891613561929963
0
VERTEX
8
0
10
12.069600000000001
20
4.539750000000001
30
0
0
VERTEX
8
0
10
12.069600000000001
20
5.277809375
30
0
0
VERTEX
8
0
10
12.5329625
20
5.741171875
30
0
42
0.198912367379658
0
VERTEX
8
0
10
12.5776
20
5.848934375000001
30
0
0
VERTEX
8
0
10
12.5776
20
9.344481250000001
30
0
42
0.198912367379658
0
VERTEX
8
0
10
12.5329625
20
9.452243750000001
30
0
0
VERTEX
8
0
10
12.032528125
20
9.952681250000001
30
0
42
0.3033476855734221
0
VERTEX
8
0
10
11.86644375
20
9.98571875
30
0
0
VERTEX
8
0
10
11.751240625000001
20
9.938
30
0
0
VERTEX
8
0
10
11.328753125
20
9.938
30
0
0
VERTEX
8
0
10
10.938421875000001
20
10.09968125
30
0
0
VERTEX
8
0
10
10.63968125
20
10.398421875
30
0
0
VERTEX
8
0
10
10.478
20
10.788753125000001
30
0
0
VERTEX
8
0
10
10.478
20
11.211243750000001
30
0
0
VERTEX
8
0
10
10.63968125
20
11.601575
30
0
0
VERTEX
8
0
10
10.938421875000001
20
11.900315625000001
30
0
0
VERTEX
8
0
10
11.118865625
20
11.97505625
30
0
42
0.09849047692168986
0
VERTEX
8
0
10
11.16830625
20
12.00809375
30
0
0
VERTEX
8
0
10
22.9029625
20
23.742753125
30
0
42
0.198912367379658
0
VERTEX
8
0
10
22.9476
20
23.850515625
30
0
0
VERTEX
8
0
10
22.9476
20
35.047650000000004
30
0
42
0.6681786379192989
0
VERTEX
8
0
10
22.6874375
20
35.155412500000004
30
0
0
VERTEX
8
0
10
22.420834375000002
20
34.88880625
30
0
42
0.198912367379658
0
VERTEX
8
0
10
22.376196875
20
34.78104375
30
0
0
VERTEX
8
0
10
22.376196875
20
23.84416875
30
0
0
VERTEX
8
0
10
22.111190625000003
20
23.579162500000002
30
0
0
VERTEX
8
0
10
10.040646875
20
11.508621875000001
30
0
42
0.30334982789457476
0
VERTEX
8
0
10
10.0076125
20
11.3425375
30
0
0
VERTEX
8
0
10
10.061996875
20
11.21125
30
0
0
VERTEX
8
0
10
10.061996875
20
10.788753125000001
30
0
0
VERTEX
8
0
10
9.900315625000001
20
10.398421875
30
0
0
VERTEX
8
0
10
9.601575
20
10.09968125
30
0
42
0.4084586398941383
0
VERTEX
8
0
10
9.452396875
20
9.936059375000001
30
0
0
VERTEX
8
0
10
9.452396875
20
5.742606250000001
30
0
0
VERTEX
8
0
10
9.142753125
20
5.4329625
30
0
0
VERTEX
8
0
10
8.955034375
20
5.245246875
30
0
42
0.198912367379658
0
VERTEX
8
0
10
8.910396875
20
5.1374843750000005
30
0
0
VERTEX
8
0
10
8.910396875
20
4.468934375
30
0
42
0.5515082950623604
0
VERTEX
8
0
10
9.047328125
20
4.251196875
30
0
0
VERTEX
8
0
10
11.78104375
20
4.251196875
30
0
0
SEQEND
0
POLYLINE
66
1
8
16_copper
10
0.0
20
0.0
30
0.0
70
1
0
VERTEX
8
0
10
4.2427625
20
34.760000000000005
30
0
0
VERTEX
8
0
10
4.65914375
20
35.17638125
30
0
0
VERTEX
8
0
10
4.66885625
20
35.166665625
30
0
0
VERTEX
8
0
10
4.7621093750000005
20
35.0383125
30
0
0
VERTEX
8
0
10
4.834146875
20
34.896934375
30
0
0
VERTEX
8
0
10
4.878640625
20
34.760000000000005
30
0
0
SEQEND
0
POLYLINE
66
1
8
16_copper
10
0.0
20
0.0
30
0.0
70
1
0
VERTEX
8
0
10
4.15
20
34.25999375
30
0
0
VERTEX
8
0
10
4.878640625
20
34.25999375
30
0
0
VERTEX
8
0
10
4.834146875
20
34.1230625
30
0
0
VERTEX
8
0
10
4.7621093750000005
20
33.981684375
30
0
0
VERTEX
8
0
10
4.66885625
20
33.853331250000004
30
0
0
VERTEX
8
0
10
4.556665625
20
33.741140625
30
0
0
VERTEX
8
0
10
4.4283125000000005
20
33.6478875
30
0
0
VERTEX
8
0
10
4.286934375
20
33.57585
30
0
0
VERTEX
8
0
10
4.15
20
33.53135625
30
0
0
SEQEND
0
POLYLINE
66
1
8
16_copper
10
0.0
20
0.0
30
0.0
70
1
0
VERTEX
8
0
10
18.930343750000002
20
30.916
30
0
0
VERTEX
8
0
10
18.542953125
20
31.0764625
30
0
0
VERTEX
8
0
10
18.2464625
20
31.372953125000002
30
0
0
VERTEX
8
0
10
18.086000000000002
20
31.76034375
30
0
0
VERTEX
8
0
10
18.086000000000002
20
32.179653125
30
0
0
VERTEX
8
0
10
18.2464625
20
32.56704375
30
0
0
VERTEX
8
0
10
18.542953125
20
32.863534375
30
0
0
VERTEX
8
0
10
18.930343750000002
20
33.023996875
30
0
0
VERTEX
8
0
10
19.349653125
20
33.023996875
30
0
0
VERTEX
8
0
10
19.73704375
20
32.863534375
30
0
0
VERTEX
8
0
10
20.033534375000002
20
32.56704375
30
0
0
VERTEX
8
0
10
20.193996875
20
32.179653125
30
0
0
VERTEX
8
0
10
20.193996875
20
31.76034375
30
0
0
VERTEX
8
0
10
20.033534375000002
20
31.372953125000002
30
0
0
VERTEX
8
0
10
19.73704375
20
31.0764625
30
0
0
VERTEX
8
0
10
19.349653125
20
30.916
30
0
0
SEQEND
0
POLYLINE
66
1
8
16_copper
10
0.0
20
0.0
30
0.0
70
1
0
VERTEX
8
0
10
17.66034375
20
28.376
30
0
0
VERTEX
8
0
10
17.272953125
20
28.536462500000003
30
0
0
VERTEX
8
0
10
16.9764625
20
28.832953125000003
30
0
0
VERTEX
8
0
10
16.816000000000003
20
29.22034375
30
0
0
VERTEX
8
0
10
16.816000000000003
20
29.639653125000002
30
0
0
VERTEX
8
0
10
16.9764625
20
30.02704375
30
0
0
VERTEX
8
0
10
17.272953125
20
30.323534375
30
0
0
VERTEX
8
0
10
17.66034375
20
30.483996875000003
30
0
0
VERTEX
8
0
10
18.079653125
20
30.483996875000003
30
0
0
VERTEX
8
0
10
18.467043750000002
20
30.323534375
30
0
0
VERTEX
8
0
10
18.763534375000003
20
30.02704375
30
0
0
VERTEX
8
0
10
18.923996875
20
29.639653125000002
30
0
0
VERTEX
8
0
10
18.923996875
20
29.22034375
30
0
0
VERTEX
8
0
10
18.763534375000003
20
28.832953125000003
30
0
0
VERTEX
8
0
10
18.467043750000002
20
28.536462500000003
30
0
0
VERTEX
8
0
10
18.079653125
20
28.376
30
0
0
SEQEND
0
POLYLINE
66
1
8
16_copper
10
0.0
20
0.0
30
0.0
70
1
0
VERTEX
8
0
10
15.12034375
20
28.376
30
0
0
VERTEX
8
0
10
14.732953125
20
28.536462500000003
30
0
0
VERTEX
8
0
10
14.436462500000001
20
28.832953125000003
30
0
0
VERTEX
8
0
10
14.276
20
29.22034375
30
0
0
VERTEX
8
0
10
14.276
20
29.639653125000002
30
0
0
VERTEX
8
0
10
14.436462500000001
20
30.02704375
30
0
0
VERTEX
8
0
10
14.732953125
20
30.323534375
30
0
0
VERTEX
8
0
10
15.12034375
20
30.483996875000003
30
0
0
VERTEX
8
0
10
15.539653125000001
20
30.483996875000003
30
0
0
VERTEX
8
0
10
15.927043750000001
20
30.323534375
30
0
0
VERTEX
8
0
10
16.223534375
20
30.02704375
30
0
0
VERTEX
8
0
10
16.383996875
20
29.639653125000002
30
0
0
VERTEX
8
0
10
16.383996875
20
29.22034375
30
0
0
VERTEX
8
0
10
16.223534375
20
28.832953125000003
30
0
0
VERTEX
8
0
10
15.927043750000001
20
28.536462500000003
30
0
0
VERTEX
8
0
10
15.539653125000001
20
28.376
30
0
0
SEQEND
0
POLYLINE
66
1
8
16_copper
10
0.0
20
0.0
30
0.0
70
1
0
VERTEX
8
0
10
4.96034375
20
28.376
30
0
0
VERTEX
8
0
10
4.572953125000001
20
28.536462500000003
30
0
0
VERTEX
8
0
10
4.2764625
20
28.832953125000003
30
0
0
VERTEX
8
0
10
4.1160000000000005
20
29.22034375
30
0
0
VERTEX
8
0
10
4.1160000000000005
20
29.639653125000002
30
0
0
VERTEX
8
0
10
4.2764625
20
30.02704375
30
0
0
VERTEX
8
0
10
4.572953125000001
20
30.323534375
30
0
0
VERTEX
8
0
10
4.96034375
20
30.483996875000003
30
0
0
VERTEX
8
0
10
5.379653125
20
30.483996875000003
30
0
0
VERTEX
8
0
10
5.76704375
20
30.323534375
30
0
0
VERTEX
8
0
10
6.063534375000001
20
30.02704375
30
0
0
VERTEX
8
0
10
6.223996875
20
29.639653125000002
30
0
0
VERTEX
8
0
10
6.223996875
20
29.22034375
30
0
0
VERTEX
8
0
10
6.063534375000001
20
28.832953125000003
30
0
0
VERTEX
8
0
10
5.76704375
20
28.536462500000003
30
0
0
VERTEX
8
0
10
5.379653125
20
28.376
30
0
0
SEQEND
0
POLYLINE
66
1
8
16_copper
10
0.0
20
0.0
30
0.0
70
1
0
VERTEX
8
0
10
12.58034375
20
28.376
30
0
0
VERTEX
8
0
10
12.192953125
20
28.536462500000003
30
0
0
VERTEX
8
0
10
11.8964625
20
28.832953125000003
30
0
0
VERTEX
8
0
10
11.736
20
29.22034375
30
0
0
VERTEX
8
0
10
11.736
20
29.639653125000002
30
0
0
VERTEX
8
0
10
11.8964625
20
30.02704375
30
0
0
VERTEX
8
0
10
12.192953125
20
30.323534375
30
0
0
VERTEX
8
0
10
12.58034375
20
30.483996875000003
30
0
0
VERTEX
8
0
10
12.999653125
20
30.483996875000003
30
0
0
VERTEX
8
0
10
13.38704375
20
30.323534375
30
0
0
VERTEX
8
0
10
13.683534375
20
30.02704375
30
0
0
VERTEX
8
0
10
13.843996875
20
29.639653125000002
30
0
0
VERTEX
8
0
10
13.843996875
20
29.22034375
30
0
0
VERTEX
8
0
10
13.683534375
20
28.832953125000003
30
0
0
VERTEX
8
0
10
13.38704375
20
28.536462500000003
30
0
0
VERTEX
8
0
10
12.999653125
20
28.376
30
0
0
SEQEND
0
POLYLINE
66
1
8
16_copper
10
0.0
20
0.0
30
0.0
70
1
0
VERTEX
8
0
10
7.96
20
30.408640625
30
0
0
VERTEX
8
0
10
8.096934375
20
30.364146875000003
30
0
0
VERTEX
8
0
10
8.238312500000001
20
30.292109375000003
30
0
0
VERTEX
8
0
10
8.351853125
20
30.209615625
30
0
0
VERTEX
8
0
10
7.96
20
29.8177625
30
0
0
SEQEND
0
POLYLINE
66
1
8
16_copper
10
0.0
20
0.0
30
0.0
70
1
0
VERTEX
8
0
10
7.187625000000001
20
30.295137500000003
30
0
0
VERTEX
8
0
10
7.323062500000001
20
30.364146875000003
30
0
0
VERTEX
8
0
10
7.459993750000001
20
30.408640625
30
0
0
VERTEX
8
0
10
7.459993750000001
20
30.02276875
30
0
0
SEQEND
0
POLYLINE
66
1
8
16_copper
10
0.0
20
0.0
30
0.0
70
1
0
VERTEX
8
0
10
6.73135625
20
29.68
30
0
0
VERTEX
8
0
10
6.77585
20
29.816934375000002
30
0
0
VERTEX
8
0
10
6.847887500000001
20
29.9583125
30
0
0
VERTEX
8
0
10
6.941140625
20
30.086665625000002
30
0
0
VERTEX
8
0
10
7.05333125
20
30.198856250000002
30
0
0
VERTEX
8
0
10
7.062046875
20
30.205190625
30
0
0
VERTEX
8
0
10
7.459993750000001
20
29.80724375
30
0
0
VERTEX
8
0
10
7.459993750000001
20
29.68
30
0
0
SEQEND
0
POLYLINE
66
1
8
16_copper
10
0.0
20
0.0
30
0.0
70
1
0
VERTEX
8
0
10
8.037762500000001
20
29.68
30
0
0
VERTEX
8
0
10
8.46164375
20
30.10388125
30
0
0
VERTEX
8
0
10
8.47885625
20
30.086665625000002
30
0
0
VERTEX
8
0
10
8.572109375
20
29.9583125
30
0
0
VERTEX
8
0
10
8.644146875
20
29.816934375000002
30
0
0
VERTEX
8
0
10
8.688640625
20
29.68
30
0
0
SEQEND
0
POLYLINE
66
1
8
16_copper
10
0.0
20
0.0
30
0.0
70
1
0
VERTEX
8
0
10
7.96
20
29.17999375
30
0
0
VERTEX
8
0
10
8.688640625
20
29.17999375
30
0
0
VERTEX
8
0
10
8.644146875
20
29.0430625
30
0
0
VERTEX
8
0
10
8.572109375
20
28.901684375000002
30
0
0
VERTEX
8
0
10
8.47885625
20
28.773331250000002
30
0
0
VERTEX
8
0
10
8.366665625
20
28.661140625
30
0
0
VERTEX
8
0
10
8.238312500000001
20
28.5678875
30
0
0
VERTEX
8
0
10
8.096934375
20
28.49585
30
0
0
VERTEX
8
0
10
7.96
20
28.45135625
30
0
0
SEQEND
0
POLYLINE
66
1
8
16_copper
10
0.0
20
0.0
30
0.0
70
1
0
VERTEX
8
0
10
7.323062500000001
20
28.49585
30
0
0
VERTEX
8
0
10
7.181684375000001
20
28.5678875
30
0
0
VERTEX
8
0
10
7.05333125
20
28.661140625
30
0
0
VERTEX
8
0
10
6.941140625
20
28.773331250000002
30
0
0
VERTEX
8
0
10
6.847887500000001
20
28.901684375000002
30
0
0
VERTEX
8
0
10
6.77585
20
29.0430625
30
0
0
VERTEX
8
0
10
6.73135625
20
29.17999375
30
0
0
VERTEX
8
0
10
7.459993750000001
20
29.17999375
30
0
0
VERTEX
8
0
10
7.459993750000001
20
28.45135625
30
0
0
SEQEND
0
POLYLINE
66
1
8
16_copper
10
0.0
20
0.0
30
0.0
70
1
0
VERTEX
8
0
10
27.475934375
20
1.7348000000000001
30
0
0
VERTEX
8
0
10
26.7348
20
2.475934375
30
0
0
VERTEX
8
0
10
26.7348
20
3.5240625000000003
30
0
0
VERTEX
8
0
10
27.2489625
20
4.038225000000001
30
0
42
0.198912367379658
0
VERTEX
8
0
10
27.2936
20
4.1459875
30
0
0
VERTEX
8
0
10
27.2936
20
5.140509375000001
30
0
0
VERTEX
8
0
10
27.401143750000003
20
5.400143750000001
30
0
0
VERTEX
8
0
10
32.6901625
20
10.689159375000001
30
0
42
0.198912367379658
0
VERTEX
8
0
10
32.7348
20
10.796921875
30
0
0
VERTEX
8
0
10
32.7348
20
11.524062500000001
30
0
0
VERTEX
8
0
10
33.475934375
20
12.265196875
30
0
0
VERTEX
8
0
10
34.5240625
20
12.265196875
30
0
0
VERTEX
8
0
10
35.265196875
20
11.524062500000001
30
0
0
VERTEX
8
0
10
35.265196875
20
10.475934375000001
30
0
0
VERTEX
8
0
10
34.5240625
20
9.7348
30
0
0
VERTEX
8
0
10
33.796921875
20
9.7348
30
0
42
0.198912367379658
0
VERTEX
8
0
10
33.689159375
20
9.690162500000001
30
0
0
VERTEX
8
0
10
28.751034375
20
4.752034375
30
0
42
0.198912367379658
0
VERTEX
8
0
10
28.706396875000003
20
4.644271875
30
0
0
VERTEX
8
0
10
28.706396875000003
20
4.1459875
30
0
42
0.198912367379658
0
VERTEX
8
0
10
28.751034375
20
4.038225000000001
30
0
0
VERTEX
8
0
10
29.265196875
20
3.5240625000000003
30
0
0
VERTEX
8
0
10
29.265196875
20
2.475934375
30
0
0
VERTEX
8
0
10
28.524062500000003
20
1.7348000000000001
30
0
0
SEQEND
0
POLYLINE
66
1
8
16_copper
10
0.0
20
0.0
30
0.0
70
1
0
VERTEX
8
0
10
34.475934375
20
1.7348000000000001
30
0
0
VERTEX
8
0
10
33.7348
20
2.475934375
30
0
0
VERTEX
8
0
10
33.7348
20
3.5240625000000003
30
0
0
VERTEX
8
0
10
34.248962500000005
20
4.038225000000001
30
0
42
0.198912367379658
0
VERTEX
8
0
10
34.293600000000005
20
4.1459875
30
0
0
VERTEX
8
0
10
34.293600000000005
20
7.640509375000001
30
0
0
VERTEX
8
0
10
34.40114375
20
7.900143750000001
30
0
0
VERTEX
8
0
10
37.1901625
20
10.689159375000001
30
0
42
0.198912367379658
0
VERTEX
8
0
10
37.2348
20
10.796921875
30
0
0
VERTEX
8
0
10
37.2348
20
11.524062500000001
30
0
0
VERTEX
8
0
10
37.975934375
20
12.265196875
30
0
0
VERTEX
8
0
10
39.0240625
20
12.265196875
30
0
0
VERTEX
8
0
10
39.765196875
20
11.524062500000001
30
0
0
VERTEX
8
0
10
39.765196875
20
10.475934375000001
30
0
0
VERTEX
8
0
10
39.0240625
20
9.7348
30
0
0
VERTEX
8
0
10
38.296921875
20
9.7348
30
0
42
0.198912367379658
0
VERTEX
8
0
10
38.189159375
20
9.690162500000001
30
0
0
VERTEX
8
0
10
35.751034375
20
7.252034375
30
0
42
0.198912367379658
0
VERTEX
8
0
10
35.706396875
20
7.144271875
30
0
0
VERTEX
8
0
10
35.706396875
20
4.1459875
30
0
42
0.198912367379658
0
VERTEX
8
0
10
35.751034375
20
4.038225000000001
30
0
0
VERTEX
8
0
10
36.265196875
20
3.5240625000000003
30
0
0
VERTEX
8
0
10
36.265196875
20
2.475934375
30
0
0
VERTEX
8
0
10
35.5240625
20
1.7348000000000001
30
0
0
SEQEND
0
POLYLINE
66
1
8
16_copper
10
0.0
20
0.0
30
0.0
70
1
0
VERTEX
8
0
10
5.47424375
20
11.254000000000001
30
0
0
VERTEX
8
0
10
5.518434375
20
11.390009375
30
0
0
VERTEX
8
0
10
5.5910375000000005
20
11.532496875000001
30
0
0
VERTEX
8
0
10
5.6850375
20
11.661878125000001
30
0
0
VERTEX
8
0
10
5.79811875
20
11.774959375
30
0
0
VERTEX
8
0
10
5.9275
20
11.868959375000001
30
0
0
VERTEX
8
0
10
6.0699875
20
11.9415625
30
0
0
VERTEX
8
0
10
6.20599375
20
11.985753125
30
0
0
VERTEX
8
0
10
6.20599375
20
11.254000000000001
30
0
0
SEQEND
0
POLYLINE
66
1
8
16_copper
10
0.0
20
0.0
30
0.0
70
1
0
VERTEX
8
0
10
6.0699875
20
10.058434375000001
30
0
0
VERTEX
8
0
10
5.9275
20
10.1310375
30
0
0
VERTEX
8
0
10
5.79811875
20
10.225037500000001
30
0
0
VERTEX
8
0
10
5.6850375
20
10.338118750000001
30
0
0
VERTEX
8
0
10
5.5910375000000005
20
10.467500000000001
30
0
0
VERTEX
8
0
10
5.518434375
20
10.6099875
30
0
0
VERTEX
8
0
10
5.47424375
20
10.74599375
30
0
0
VERTEX
8
0
10
6.20599375
20
10.74599375
30
0
0
VERTEX
8
0
10
6.20599375
20
10.01424375
30
0
0
SEQEND
0
POLYLINE
66
1
8
16_copper
10
0.0
20
0.0
30
0.0
70
1
0
VERTEX
8
0
10
8.21318125
20
5.840975
30
0
42
0.18918278447443876
0
VERTEX
8
0
10
8.315246875
20
5.885034375
30
0
0
VERTEX
8
0
10
8.5029625
20
6.072753125
30
0
42
0.198912367379658
0
VERTEX
8
0
10
8.547600000000001
20
6.180515625
30
0
0
VERTEX
8
0
10
8.547600000000001
20
9.936059375000001
30
0
42
0.2755416048156132
0
VERTEX
8
0
10
8.4676375
20
10.07014375
30
0
0
VERTEX
8
0
10
8.45351875
20
10.076859375
30
0
0
VERTEX
8
0
10
8.398421875
20
10.09968125
30
0
0
VERTEX
8
0
10
8.136359375
20
10.361746875
30
0
42
0.6681786379192989
0
VERTEX
8
0
10
7.876196875000001
20
10.253984375
30
0
0
VERTEX
8
0
10
7.876196875000001
20
5.992796875000001
30
0
42
0.41421356237309503
0
VERTEX
8
0
10
8.028596875
20
5.840396875000001
30
0
0
VERTEX
8
0
10
8.207484375
20
5.840396875000001
30
0
0
SEQEND
0
POLYLINE
66
1
8
16_copper
10
0.0
20
0.0
30
0.0
70
1
0
VERTEX
8
0
10
30.975934375
20
1.7348000000000001
30
0
0
VERTEX
8
0
10
30.2348
20
2.475934375
30
0
0
VERTEX
8
0
10
30.2348
20
3.5240625000000003
30
0
0
VERTEX
8
0
10
30.975934375
20
4.265196875
30
0
0
VERTEX
8
0
10
32.0240625
20
4.265196875
30
0
0
VERTEX
8
0
10
32.765196875
20
3.5240625000000003
30
0
0
VERTEX
8
0
10
32.765196875
20
2.475934375
30
0
0
VERTEX
8
0
10
32.0240625
20
1.7348000000000001
30
0
0
SEQEND
0
POLYLINE
66
1
8
16_copper
10
0.0
20
0.0
30
0.0
70
1
0
VERTEX
8
0
10
19.160103125000003
20
42.0565
30
0
42
0.1413985481041788
0
VERTEX
8
0
10
19.196171875
20
42.078509375
30
0
0
VERTEX
8
0
10
19.305071875
20
42.197309375
30
0
0
VERTEX
8
0
10
21.5315625
20
44.4238
30
0
0
VERTEX
8
0
10
28.5
20
44.4238
30
0
42
0.3324798213940641
0
VERTEX
8
0
10
28.592646875
20
44.472668750000004
30
0
0
VERTEX
8
0
10
28.604384375000002
20
44.491
30
0
42
0.5483945552892805
0
VERTEX
8
0
10
28.534278125
20
44.598696875
30
0
0
VERTEX
8
0
10
28.5127625
20
44.595384375
30
0
42
0.10504781974226676
0
VERTEX
8
0
10
28.477621875
20
44.5762
30
0
0
VERTEX
8
0
10
21.5
20
44.5762
30
0
42
0.198912367379658
0
VERTEX
8
0
10
21.44611875
20
44.55388125
30
0
0
VERTEX
8
0
10
19.19611875
20
42.30388125
30
0
42
0.010863781012060921
0
VERTEX
8
0
10
19.193828125
20
42.301490625
30
0
0
VERTEX
8
0
10
19.083828125
20
42.181490625
30
0
0
VERTEX
8
0
10
19.071562500000002
20
42.163509375000004
30
0
0
VERTEX
8
0
10
19.064881250000003
20
42.142790625
30
0
0
VERTEX
8
0
10
19.064328125
20
42.12103125
30
0
0
VERTEX
8
0
10
19.069953125
20
42.100003125
30
0
0
VERTEX
8
0
10
19.081290625
20
42.081421875000004
30
0
0
VERTEX
8
0
10
19.097421875000002
20
42.06680625
30
0
0
VERTEX
8
0
10
19.117025
20
42.057346875
30
0
0
VERTEX
8
0
10
19.138503125
20
42.053815625
30
0
0
SEQEND
0
CIRCLE
8
drills_NPTH
10
40
20
3
30
0
40
1.5
0
CIRCLE
8
drills_NPTH
10
40
20
71
30
0
40
1.5
0
CIRCLE
8
drills_NPTH
10
3
20
71
30
0
40
1.5
0
CIRCLE
8
drills_NPTH
10
3
20
3
30
0
40
1.5
0
CIRCLE
8
drills_PTH
10
6.46
20
11
30
0
40
0.508
0
CIRCLE
8
drills_PTH
10
34
20
11
30
0
40
0.508
0
CIRCLE
8
drills_PTH
10
38.5
20
11
30
0
40
0.508
0
CIRCLE
8
drills_PTH
10
34.5
20
38
30
0
40
0.508
0
CIRCLE
8
drills_PTH
10
29
20
38
30
0
40
0.508
0
CIRCLE
8
drills_PTH
10
28
20
3
30
0
40
0.508
0
CIRCLE
8
drills_PTH
10
35
20
3
30
0
40
0.508
0
CIRCLE
8
drills_PTH
10
22.77
20
75
30
0
40
0.508
0
CIRCLE
8
drills_PTH
10
31.5
20
3
30
0
40
0.508
0
CIRCLE
8
drills_PTH
10
4.99
20
75
30
0
40
0.508
0
CIRCLE
8
drills_PTH
10
7.53
20
75
30
0
40
0.508
0
CIRCLE
8
drills_PTH
10
10.07
20
75
30
0
40
0.508
0
CIRCLE
8
drills_PTH
10
12.610000000000001
20
75
30
0
40
0.508
0
CIRCLE
8
drills_PTH
10
15.15
20
75
30
0
40
0.508
0
CIRCLE
8
drills_PTH
10
17.69
20
75
30
0
40
0.508
0
CIRCLE
8
drills_PTH
10
20.23
20
75
30
0
40
0.508
0
CIRCLE
8
drills_PTH
10
25.310000000000002
20
75
30
0
40
0.508
0
CIRCLE
8
drills_PTH
10
27.85
20
75
30
0
40
0.508
0
CIRCLE
8
drills_PTH
10
30.39
20
75
30
0
40
0.508
0
CIRCLE
8
drills_PTH
10
32.93
20
75
30
0
40
0.508
0
CIRCLE
8
drills_PTH
10
35.47
20
75
30
0
40
0.508
0
CIRCLE
8
drills_PTH
10
38.010000000000005
20
75
30
0
40
0.508
0
CIRCLE
8
drills_PTH
10
11.540000000000001
20
11
30
0
40
0.508
0
CIRCLE
8
drills_PTH
10
9
20
11
30
0
40
0.508
0
CIRCLE
8
drills_PTH
10
3.9000000000000004
20
34.510000000000005
30
0
40
0.5
0
CIRCLE
8
drills_PTH
10
3.9000000000000004
20
31.970000000000002
30
0
40
0.5
0
CIRCLE
8
drills_PTH
10
6.44
20
59.910000000000004
30
0
40
0.5
0
CIRCLE
8
drills_PTH
10
8.98
20
59.910000000000004
30
0
40
0.5
0
CIRCLE
8
drills_PTH
10
11.520000000000001
20
59.910000000000004
30
0
40
0.5
0
CIRCLE
8
drills_PTH
10
7.71
20
29.43
30
0
40
0.5
0
CIRCLE
8
drills_PTH
10
10.25
20
29.43
30
0
40
0.5
0
CIRCLE
8
drills_PTH
10
12.790000000000001
20
29.43
30
0
40
0.5
0
CIRCLE
8
drills_PTH
10
3.9000000000000004
20
54.830000000000005
30
0
40
0.5
0
CIRCLE
8
drills_PTH
10
6.44
20
43.4
30
0
40
0.5
0
CIRCLE
8
drills_PTH
10
6.44
20
40.86
30
0
40
0.5
0
CIRCLE
8
drills_PTH
10
5.17
20
29.43
30
0
40
0.5
0
CIRCLE
8
drills_PTH
10
3.9000000000000004
20
44.67
30
0
40
0.5
0
CIRCLE
8
drills_PTH
10
3.9000000000000004
20
47.21
30
0
40
0.5
0
CIRCLE
8
drills_PTH
10
3.9000000000000004
20
49.75
30
0
40
0.5
0
CIRCLE
8
drills_PTH
10
3.9000000000000004
20
52.29
30
0
40
0.5
0
CIRCLE
8
drills_PTH
10
3.9000000000000004
20
57.370000000000005
30
0
40
0.5
0
CIRCLE
8
drills_PTH
10
3.9000000000000004
20
59.910000000000004
30
0
40
0.5
0
CIRCLE
8
drills_PTH
10
19.14
20
59.910000000000004
30
0
40
0.5
0
CIRCLE
8
drills_PTH
10
19.14
20
57.370000000000005
30
0
40
0.5
0
CIRCLE
8
drills_PTH
10
19.14
20
54.830000000000005
30
0
40
0.5
0
CIRCLE
8
drills_PTH
10
19.14
20
52.29
30
0
40
0.5
0
CIRCLE
8
drills_PTH
10
19.14
20
49.75
30
0
40
0.5
0
CIRCLE
8
drills_PTH
10
19.14
20
47.21
30
0
40
0.5
0
CIRCLE
8
drills_PTH
10
19.14
20
42.13
30
0
40
0.5
0
CIRCLE
8
drills_PTH
10
19.14
20
39.59
30
0
40
0.5
0
CIRCLE
8
drills_PTH
10
15.33
20
29.43
30
0
40
0.5
0
CIRCLE
8
drills_PTH
10
19.14
20
37.050000000000004
30
0
40
0.5
0
CIRCLE
8
drills_PTH
10
19.14
20
34.510000000000005
30
0
40
0.5
0
CIRCLE
8
drills_PTH
10
19.14
20
31.970000000000002
30
0
40
0.5
0
CIRCLE
8
drills_PTH
10
17.87
20
29.43
30
0
40
0.5
0
CIRCLE
8
drills_PTH
10
19.14
20
44.67
30
0
40
0.5
0
CIRCLE
8
drills_PTH
10
3.9000000000000004
20
42.13
30
0
40
0.5
0
CIRCLE
8
drills_PTH
10
3.9000000000000004
20
39.59
30
0
40
0.5
0
CIRCLE
8
drills_PTH
10
3.9000000000000004
20
37.050000000000004
30
0
40
0.5
0
CIRCLE
8
drills_PTH
10
13.030000000000001
20
4.88
30
0
40
0.40640000000000004
0
CIRCLE
8
drills_PTH
10
7.95
20
4.88
30
0
40
0.40640000000000004
0
CIRCLE
8
drills_PTH
10
28.535
20
47.0625
30
0
40
0.4
0
CIRCLE
8
drills_PTH
10
36.155
20
47.0625
30
0
40
0.4
0
CIRCLE
8
drills_PTH
10
31.075000000000003
20
47.0625
30
0
40
0.4
0
CIRCLE
8
drills_PTH
10
33.615
20
47.0625
30
0
40
0.4
0
CIRCLE
8
drills_PTH
10
33.615
20
44.5225
30
0
40
0.4
0
CIRCLE
8
drills_PTH
10
31.075000000000003
20
44.5225
30
0
40
0.4
0
CIRCLE
8
drills_PTH
10
28.535
20
44.5225
30
0
40
0.4
0
CIRCLE
8
drills_PTH
10
36.155
20
44.5225
30
0
40
0.4
0
ENDSEC
0
EOF